<svg width="652" height="357" viewBox="0 0 652 357" fill="none" xmlns="http://www.w3.org/2000/svg">
<g clip-path="url(#clip0_1_14527)">
<path d="M136.885 342.762H140.675L144.358 354.113H141.281L140.614 351.666H136.915L136.248 354.113H133.171L136.855 342.762H136.885ZM140.053 349.539L138.78 344.859L137.506 349.539H140.053Z" fill="#003686"/>
<path d="M150.013 342.762H155.303C157.425 342.762 158.881 343.886 158.881 345.528C158.881 346.774 158.032 347.716 156.698 348.111C158.365 348.46 159.426 349.569 159.426 351.043C159.426 352.867 157.819 354.113 155.485 354.113H150.013V342.762ZM154.742 347.366C155.5 347.366 156.016 346.849 156.016 346.09C156.016 345.33 155.53 344.813 154.818 344.813H152.938V347.366H154.742ZM155 352.062C155.864 352.062 156.455 351.469 156.455 350.603C156.455 349.737 155.834 349.144 154.939 349.144H152.938V352.062H155Z" fill="#003686"/>
<path d="M160.715 349.873C160.715 347.214 162.549 345.391 165.202 345.391C167.855 345.391 169.689 347.214 169.689 349.873V350.664H163.474C163.656 351.818 164.323 352.365 165.308 352.365C166.02 352.365 166.642 352.077 166.854 351.636H169.568C169.052 353.247 167.279 354.356 165.202 354.356C162.549 354.356 160.715 352.533 160.715 349.873ZM167.082 349.053C166.884 347.928 166.233 347.397 165.278 347.397C164.323 347.397 163.671 347.928 163.474 349.053H167.082Z" fill="#003686"/>
<path d="M174.979 347.473C174.252 347.473 173.842 347.761 173.736 348.096H171.19C171.417 346.546 172.766 345.406 175.101 345.406C177.435 345.406 179.087 346.622 179.087 348.399V354.113H176.313V352.928C175.798 353.824 174.873 354.356 173.706 354.356C172.054 354.356 170.886 353.262 170.886 351.682C170.886 349.782 172.539 348.946 174.964 348.946H176.313V348.384C176.313 347.837 175.798 347.457 174.979 347.457V347.473ZM174.782 352.411C175.661 352.411 176.328 351.879 176.328 351.089V350.512H174.979C174.176 350.512 173.63 350.891 173.63 351.484C173.63 352.031 174.07 352.396 174.797 352.396L174.782 352.411Z" fill="#003686"/>
<path d="M180.952 351.074V345.649H183.771V350.572C183.771 351.454 184.347 352.077 185.136 352.077C185.969 352.077 186.53 351.408 186.53 350.451V345.649H189.35V354.113H186.53V352.7C186.015 353.733 185.014 354.356 183.817 354.356C182.043 354.356 180.952 353.004 180.952 351.074Z" fill="#003686"/>
<path d="M192.26 351.363V347.731H190.926V345.649H192.26V343.461H195.095V345.649H196.854V347.731H195.095V351.363C195.095 351.94 195.429 352.198 196.247 352.198C196.323 352.198 196.459 352.198 196.854 352.138V354.113C196.444 354.204 195.974 354.234 195.641 354.234C193.61 354.234 192.276 353.064 192.276 351.363H192.26Z" fill="#003686"/>
<path d="M200.022 341.562C200.856 341.562 201.507 342.2 201.507 343.02C201.507 343.841 200.856 344.479 200.022 344.479C199.188 344.479 198.536 343.841 198.536 343.02C198.536 342.2 199.188 341.562 200.022 341.562ZM198.612 345.649H201.432V354.113H198.612V345.649Z" fill="#003686"/>
<path d="M207.798 342.017C208.162 342.017 208.587 342.048 208.996 342.139V344.023C208.799 343.978 208.571 343.962 208.42 343.962C207.556 343.962 207.222 344.312 207.222 344.889V345.649H208.89V347.731H207.222V354.113H204.403V347.731H202.993V345.649H204.403V344.889C204.403 343.187 205.706 342.017 207.783 342.017H207.798Z" fill="#003686"/>
<path d="M210.36 351.074V345.649H213.18V350.572C213.18 351.454 213.756 352.077 214.544 352.077C215.378 352.077 215.939 351.408 215.939 350.451V345.649H218.758V354.113H215.939V352.7C215.423 353.733 214.423 354.356 213.225 354.356C211.452 354.356 210.36 353.004 210.36 351.074Z" fill="#003686"/>
<path d="M220.88 342.26H223.7V354.113H220.88V342.26Z" fill="#003686"/>
<path d="M232.538 345.117H229.294V342.762H238.707V345.117H235.463V354.113H232.538V345.117Z" fill="#003686"/>
<path d="M243.013 347.473C242.285 347.473 241.876 347.761 241.77 348.096H239.223C239.45 346.546 240.799 345.406 243.134 345.406C245.468 345.406 247.121 346.622 247.121 348.399V354.113H244.347V352.928C243.831 353.824 242.906 354.356 241.739 354.356C240.087 354.356 238.92 353.262 238.92 351.682C238.92 349.782 240.572 348.946 242.997 348.946H244.347V348.384C244.347 347.837 243.831 347.457 243.013 347.457V347.473ZM242.8 352.411C243.68 352.411 244.347 351.879 244.347 351.089V350.512H242.997C242.194 350.512 241.648 350.891 241.648 351.484C241.648 352.031 242.088 352.396 242.815 352.396L242.8 352.411Z" fill="#003686"/>
<path d="M250.501 341.562C251.335 341.562 251.987 342.2 251.987 343.02C251.987 343.841 251.335 344.479 250.501 344.479C249.667 344.479 249.015 343.841 249.015 343.02C249.015 342.2 249.667 341.562 250.501 341.562ZM249.091 345.649H251.911V354.113H249.091V345.649Z" fill="#003686"/>
<path d="M253.381 345.649H256.246L257.429 351.408L258.641 345.649H261.476L262.689 351.439L263.871 345.649H266.736L264.296 354.113H261.461L260.051 348.05L258.657 354.113H255.822L253.381 345.649Z" fill="#003686"/>
<path d="M271.633 347.473C270.905 347.473 270.496 347.761 270.39 348.096H267.843C268.07 346.546 269.419 345.406 271.754 345.406C274.088 345.406 275.741 346.622 275.741 348.399V354.113H272.967V352.928C272.451 353.824 271.526 354.356 270.359 354.356C268.707 354.356 267.54 353.262 267.54 351.682C267.54 349.782 269.192 348.946 271.617 348.946H272.967V348.384C272.967 347.837 272.451 347.457 271.633 347.457V347.473ZM271.436 352.411C272.315 352.411 272.982 351.879 272.982 351.089V350.512H271.633C270.829 350.512 270.283 350.891 270.283 351.484C270.283 352.031 270.723 352.396 271.451 352.396L271.436 352.411Z" fill="#003686"/>
<path d="M281.941 347.685C281.107 347.685 280.546 348.354 280.546 349.311V354.113H277.726V345.649H280.546V347.062C281.061 346.029 282.062 345.406 283.259 345.406C285.033 345.406 286.124 346.758 286.124 348.688V354.113H283.305V349.19C283.305 348.308 282.729 347.685 281.941 347.685Z" fill="#003686"/>
<path d="M294.841 345.117H291.597V342.762H301.01V345.117H297.766V354.113H294.841V345.117Z" fill="#003686"/>
<path d="M301.162 349.873C301.162 347.214 303.057 345.391 305.801 345.391C308.544 345.391 310.439 347.214 310.439 349.873C310.439 352.533 308.544 354.356 305.801 354.356C303.057 354.356 301.162 352.533 301.162 349.873ZM305.801 352.229C306.847 352.229 307.574 351.271 307.574 349.889C307.574 348.506 306.862 347.548 305.801 347.548C304.74 347.548 304.027 348.506 304.027 349.889C304.027 351.271 304.74 352.229 305.801 352.229Z" fill="#003686"/>
<path d="M311.698 349.873C311.698 347.214 313.35 345.391 315.472 345.391C316.745 345.391 317.7 346.044 318.261 347.153V342.26H321.081V354.113H318.261V352.609C317.7 353.703 316.745 354.371 315.472 354.371C313.35 354.371 311.698 352.548 311.698 349.889V349.873ZM316.397 352.077C317.488 352.077 318.246 351.18 318.246 349.889C318.246 348.597 317.488 347.7 316.397 347.7C315.305 347.7 314.563 348.597 314.563 349.889C314.563 351.18 315.305 352.077 316.397 352.077Z" fill="#003686"/>
<path d="M326.811 347.473C326.083 347.473 325.674 347.761 325.568 348.096H323.021C323.249 346.546 324.598 345.406 326.932 345.406C329.267 345.406 330.919 346.622 330.919 348.399V354.113H328.145V352.928C327.63 353.824 326.705 354.356 325.538 354.356C323.885 354.356 322.718 353.262 322.718 351.682C322.718 349.782 324.37 348.946 326.796 348.946H328.145V348.384C328.145 347.837 327.63 347.457 326.811 347.457V347.473ZM326.599 352.411C327.478 352.411 328.145 351.879 328.145 351.089V350.512H326.796C325.992 350.512 325.447 350.891 325.447 351.484C325.447 352.031 325.886 352.396 326.614 352.396L326.599 352.411Z" fill="#003686"/>
<path d="M335.148 354.128L331.995 345.649H335.012L336.528 351.484L338.044 345.649H341.06L336.831 357H334.011L335.148 354.128Z" fill="#003686"/>
<path d="M341.727 352.745C341.727 351.849 342.409 351.15 343.289 351.15C344.168 351.15 344.835 351.849 344.835 352.745C344.835 353.642 344.168 354.341 343.289 354.341C342.409 354.341 341.727 353.642 341.727 352.745Z" fill="#003686"/>
<path d="M354.036 342.762H357.826L361.51 354.113H358.432L357.765 351.666H354.067L353.4 354.113H350.322L354.006 342.762H354.036ZM357.205 349.539L355.931 344.859L354.658 349.539H357.205Z" fill="#003686"/>
<path d="M367.179 342.762H372.47C374.592 342.762 376.047 343.886 376.047 345.528C376.047 346.774 375.198 347.716 373.864 348.111C375.532 348.46 376.593 349.569 376.593 351.043C376.593 352.867 374.986 354.113 372.652 354.113H367.179V342.762ZM371.909 347.366C372.667 347.366 373.182 346.849 373.182 346.09C373.182 345.33 372.697 344.813 371.985 344.813H370.105V347.366H371.909ZM372.151 352.062C373.015 352.062 373.607 351.469 373.607 350.603C373.607 349.737 372.985 349.144 372.091 349.144H370.09V352.062H372.151Z" fill="#003686"/>
<path d="M377.866 349.873C377.866 347.214 379.7 345.391 382.353 345.391C385.006 345.391 386.84 347.214 386.84 349.873V350.664H380.625C380.807 351.818 381.474 352.365 382.459 352.365C383.172 352.365 383.793 352.077 384.006 351.636H386.719C386.204 353.247 384.43 354.356 382.353 354.356C379.7 354.356 377.866 352.533 377.866 349.873ZM384.248 349.053C384.051 347.928 383.399 347.397 382.444 347.397C381.489 347.397 380.837 347.928 380.64 349.053H384.248Z" fill="#003686"/>
<path d="M389.296 351.363V347.731H387.962V345.649H389.296V343.461H392.131V345.649H393.889V347.731H392.131V351.363C392.131 351.94 392.464 352.198 393.283 352.198C393.359 352.198 393.495 352.198 393.889 352.138V354.113C393.48 354.204 393.01 354.234 392.676 354.234C390.645 354.234 389.311 353.064 389.311 351.363H389.296Z" fill="#003686"/>
<path d="M396.436 351.363V347.731H395.102V345.649H396.436V343.461H399.271V345.649H401.029V347.731H399.271V351.363C399.271 351.94 399.604 352.198 400.423 352.198C400.498 352.198 400.635 352.198 401.029 352.138V354.113C400.62 354.204 400.15 354.234 399.816 354.234C397.785 354.234 396.451 353.064 396.451 351.363H396.436Z" fill="#003686"/>
<path d="M402.227 349.873C402.227 347.214 404.061 345.391 406.714 345.391C409.366 345.391 411.201 347.214 411.201 349.873V350.664H404.985C405.167 351.818 405.834 352.365 406.82 352.365C407.532 352.365 408.154 352.077 408.366 351.636H411.079C410.564 353.247 408.79 354.356 406.714 354.356C404.061 354.356 402.227 352.533 402.227 349.873ZM408.593 349.053C408.396 347.928 407.744 347.397 406.789 347.397C405.834 347.397 405.183 347.928 404.985 349.053H408.593Z" fill="#003686"/>
<path d="M412.883 345.649H415.703V347.077C416.097 346.044 417.173 345.391 418.052 345.391C418.325 345.391 418.659 345.452 418.932 345.558V347.822C418.644 347.761 418.295 347.746 418.052 347.746C416.597 347.746 415.718 348.46 415.718 349.509V354.113H412.898V345.649H412.883Z" fill="#003686"/>
<path d="M427.239 345.117H423.995V342.762H433.408V345.117H430.164V354.113H427.239V345.117Z" fill="#003686"/>
<path d="M437.698 347.473C436.971 347.473 436.562 347.761 436.455 348.096H433.909C434.136 346.546 435.485 345.406 437.82 345.406C440.154 345.406 441.807 346.622 441.807 348.399V354.113H439.032V352.928C438.517 353.824 437.592 354.356 436.425 354.356C434.773 354.356 433.606 353.262 433.606 351.682C433.606 349.782 435.258 348.946 437.683 348.946H439.032V348.384C439.032 347.837 438.517 347.457 437.698 347.457V347.473ZM437.501 352.411C438.381 352.411 439.048 351.879 439.048 351.089V350.512H437.698C436.895 350.512 436.349 350.891 436.349 351.484C436.349 352.031 436.789 352.396 437.517 352.396L437.501 352.411Z" fill="#003686"/>
<path d="M445.187 341.562C446.021 341.562 446.673 342.2 446.673 343.02C446.673 343.841 446.021 344.479 445.187 344.479C444.353 344.479 443.701 343.841 443.701 343.02C443.701 342.2 444.353 341.562 445.187 341.562ZM443.792 345.649H446.612V354.113H443.792V345.649Z" fill="#003686"/>
<path d="M448.067 345.649H450.932L452.115 351.408L453.327 345.649H456.162L457.375 351.439L458.557 345.649H461.422L458.982 354.113H456.147L454.737 348.05L453.342 354.113H450.508L448.067 345.649Z" fill="#003686"/>
<path d="M466.334 347.473C465.606 347.473 465.197 347.761 465.091 348.096H462.544C462.771 346.546 464.12 345.406 466.455 345.406C468.789 345.406 470.442 346.622 470.442 348.399V354.113H467.668V352.928C467.152 353.824 466.228 354.356 465.06 354.356C463.408 354.356 462.241 353.262 462.241 351.682C462.241 349.782 463.893 348.946 466.318 348.946H467.668V348.384C467.668 347.837 467.152 347.457 466.334 347.457V347.473ZM466.121 352.411C467.001 352.411 467.668 351.879 467.668 351.089V350.512H466.318C465.515 350.512 464.969 350.891 464.969 351.484C464.969 352.031 465.409 352.396 466.137 352.396L466.121 352.411Z" fill="#003686"/>
<path d="M476.627 347.685C475.793 347.685 475.232 348.354 475.232 349.311V354.113H472.412V345.649H475.232V347.062C475.747 346.029 476.748 345.406 477.945 345.406C479.719 345.406 480.81 346.758 480.81 348.688V354.113H477.991V349.19C477.991 348.308 477.415 347.685 476.627 347.685Z" fill="#003686"/>
<path d="M489.542 345.117H486.298V342.762H495.712V345.117H492.468V354.113H489.542V345.117Z" fill="#003686"/>
<path d="M495.848 349.873C495.848 347.214 497.743 345.391 500.487 345.391C503.23 345.391 505.125 347.214 505.125 349.873C505.125 352.533 503.23 354.356 500.487 354.356C497.743 354.356 495.848 352.533 495.848 349.873ZM500.487 352.229C501.533 352.229 502.26 351.271 502.26 349.889C502.26 348.506 501.548 347.548 500.487 347.548C499.426 347.548 498.713 348.506 498.713 349.889C498.713 351.271 499.426 352.229 500.487 352.229Z" fill="#003686"/>
<path d="M516.206 347.685C515.448 347.685 514.948 348.354 514.948 349.311V354.113H512.113V349.19C512.113 348.308 511.598 347.685 510.87 347.685C510.143 347.685 509.612 348.354 509.612 349.311V354.113H506.793V345.649H509.612V347.047C510.097 346.014 511.052 345.391 512.204 345.391C513.357 345.391 514.205 346.014 514.63 347.017C515.16 346.029 516.222 345.391 517.465 345.391C519.329 345.391 520.254 346.834 520.254 348.673V354.098H517.419V349.174C517.419 348.293 516.904 347.67 516.191 347.67L516.206 347.685Z" fill="#003686"/>
<path d="M521.815 349.873C521.815 347.214 523.71 345.391 526.454 345.391C529.198 345.391 531.092 347.214 531.092 349.873C531.092 352.533 529.198 354.356 526.454 354.356C523.71 354.356 521.815 352.533 521.815 349.873ZM526.454 352.229C527.5 352.229 528.227 351.271 528.227 349.889C528.227 348.506 527.515 347.548 526.454 347.548C525.393 347.548 524.68 348.506 524.68 349.889C524.68 351.271 525.393 352.229 526.454 352.229Z" fill="#003686"/>
<path d="M532.775 345.649H535.595V347.077C535.989 346.044 537.065 345.391 537.944 345.391C538.217 345.391 538.551 345.452 538.824 345.558V347.822C538.536 347.761 538.187 347.746 537.944 347.746C536.489 347.746 535.61 348.46 535.61 349.509V354.113H532.79V345.649H532.775Z" fill="#003686"/>
<path d="M540.4 345.649H543.22V347.077C543.614 346.044 544.69 345.391 545.569 345.391C545.842 345.391 546.176 345.452 546.448 345.558V347.822C546.16 347.761 545.812 347.746 545.569 347.746C544.114 347.746 543.235 348.46 543.235 349.509V354.113H540.415V345.649H540.4Z" fill="#003686"/>
<path d="M547.525 349.873C547.525 347.214 549.42 345.391 552.163 345.391C554.907 345.391 556.802 347.214 556.802 349.873C556.802 352.533 554.907 354.356 552.163 354.356C549.42 354.356 547.525 352.533 547.525 349.873ZM552.163 352.229C553.209 352.229 553.937 351.271 553.937 349.889C553.937 348.506 553.225 347.548 552.163 347.548C551.102 347.548 550.39 348.506 550.39 349.889C550.39 351.271 551.102 352.229 552.163 352.229Z" fill="#003686"/>
<path d="M557.636 345.649H560.501L561.683 351.408L562.896 345.649H565.731L566.943 351.439L568.126 345.649H570.991L568.55 354.113H565.715L564.306 348.05L562.911 354.113H560.076L557.636 345.649Z" fill="#003686"/>
<path d="M571.885 352.745C571.885 351.849 572.567 351.15 573.446 351.15C574.326 351.15 574.993 351.849 574.993 352.745C574.993 353.642 574.326 354.341 573.446 354.341C572.567 354.341 571.885 353.642 571.885 352.745Z" fill="#003686"/>
<path d="M203.781 296.462V310.472H200.947V308.892H193.352V318.206H190.517V308.892H182.953V310.624H180.239V296.477H190.532V291.387H193.367V296.477H203.796L203.781 296.462ZM190.502 306.217V299.121H182.938V306.217H190.502ZM200.947 306.217V299.121H193.352V306.217H200.947Z" fill="#003686"/>
<path d="M228.308 310.229V312.25H238.45V314.529H228.308V318.221H225.656V314.529H215.605V312.25H225.656V310.229H214.059V307.858H225.656V300.656H214.787V298.376H239.45V300.656H228.308V307.858H240.208V310.229H228.308ZM220.683 295.641H214.256V293.24H220.683V291.341H223.336V293.24H226.52V295.641H223.336V297.632H220.683V295.641ZM221.229 301.294V303.026H224.352V305.336H221.229V307.205H218.682V305.336H214.771V303.026H218.682V301.294H221.229ZM230.673 295.641H227.581V293.24H230.673V291.341H233.326V293.24H239.844V295.641H233.326V297.632H230.673V295.641ZM232.947 307.205V305.214H229.673V302.904H232.947V301.294H235.463V302.904H239.268V305.214H235.463V307.205H232.947Z" fill="#003686"/>
<path d="M265.933 308.116C267.358 312.341 269.677 315.243 271.83 315.213C272.618 315.213 272.936 313.982 273.088 310.988C273.709 311.551 274.725 312.067 275.453 312.31C275.043 316.823 273.997 317.902 271.708 317.902C267.873 317.902 264.629 313.83 262.977 308.116H254.761V314.62L261.719 313.04C261.719 313.8 261.87 315 262.007 315.623C253.821 317.644 252.593 317.933 251.805 318.404C251.608 317.674 251.016 316.504 250.547 315.942C251.168 315.623 251.926 314.894 251.926 313.663V292.769H272.8V301.613H264.675C264.766 302.965 264.963 304.333 265.235 305.564H274.907V308.116H265.933ZM254.761 295.292V299.106H270.041V295.292H254.761ZM262.386 305.564C262.128 304.302 261.946 302.95 261.855 301.613H254.746V305.564H262.37H262.386Z" fill="#003686"/>
<path d="M309.424 292.617V318.313H306.741V317.021H287.625V318.313H285.048V292.617H309.424ZM306.741 314.559V295.079H287.625V314.559H306.741ZM304.573 302.054C303.876 304.713 302.784 307.038 301.45 308.998C301.95 310.259 302.587 311.049 303.345 311.201C303.694 311.323 303.951 310.122 304.133 308.299C304.573 308.739 305.391 309.317 305.861 309.59C305.452 312.933 304.224 314.073 302.526 313.404C301.45 313.116 300.571 312.265 299.874 310.973C298.858 312.082 297.676 313.085 296.402 313.906C296.114 313.496 295.326 312.614 294.886 312.234C295.675 311.763 296.433 311.232 297.13 310.654C294.265 311.125 291.309 311.672 288.974 312.082L288.686 310.031C290.824 309.742 294.007 309.241 297.16 308.739L297.221 310.563C297.857 310.001 298.449 309.393 298.979 308.724C298.282 306.491 297.842 303.649 297.554 300.549H288.989V298.528H297.372C297.312 297.586 297.251 296.659 297.19 295.717H299.434C299.464 296.659 299.525 297.616 299.586 298.528H303.709C303.118 297.86 301.875 297.039 300.813 296.507L302.072 295.246C303.118 295.747 304.406 296.538 305.058 297.176L303.769 298.528H305.558V300.549H299.767C299.965 302.661 300.268 304.652 300.616 306.293C301.405 304.88 301.996 303.33 302.435 301.628L304.603 302.069L304.573 302.054ZM296.326 302.084V307.706H289.869V302.084H296.326ZM294.432 303.634H291.688V306.156H294.432V303.634Z" fill="#003686"/>
<path fill-rule="evenodd" clip-rule="evenodd" d="M334.057 319.194H375.865V291.25H334.057V319.194Z" fill="#DF0011"/>
<path fill-rule="evenodd" clip-rule="evenodd" d="M334.057 305.214H354.961V291.25H334.057V305.214Z" fill="#003686"/>
<path fill-rule="evenodd" clip-rule="evenodd" d="M344.517 292.997L345.184 295.702L347.124 293.696L346.366 296.37L349.034 295.611L347.033 297.556L349.731 298.224L347.033 298.908L349.034 300.853L346.366 300.078L347.124 302.768L345.184 300.762L344.517 303.467L343.834 300.762L341.909 302.768L342.667 300.078L339.984 300.853L341.985 298.908L339.287 298.224L341.985 297.556L339.984 295.611L342.667 296.37L341.909 293.696L343.834 295.702L344.517 292.997Z" fill="white"/>
<path fill-rule="evenodd" clip-rule="evenodd" d="M344.517 301.203H344.668L344.82 301.187L344.971 301.172L345.108 301.142L345.259 301.111L345.396 301.066L345.532 301.02L345.669 300.959L345.79 300.914L345.926 300.838L346.048 300.777L346.169 300.686L346.29 300.61L346.396 300.519L346.502 300.428L346.608 300.321L346.699 300.23L346.806 300.124L346.881 300.002L346.972 299.881L347.048 299.774L347.124 299.653L347.185 299.516L347.245 299.379L347.291 299.258L347.336 299.106L347.382 298.969L347.412 298.832L347.442 298.68L347.457 298.528L347.473 298.391V298.224V298.072L347.457 297.92L347.442 297.784L347.412 297.632L347.382 297.495L347.336 297.343L347.291 297.206L347.245 297.069L347.185 296.948L347.124 296.811L347.048 296.69L346.972 296.568L346.881 296.446L346.806 296.34L346.699 296.234L346.608 296.127L346.502 296.036L346.396 295.945L346.29 295.854L346.169 295.763L346.048 295.687L345.926 295.626L345.79 295.55L345.669 295.489L345.532 295.444L345.396 295.398L345.259 295.352L345.108 295.322L344.971 295.292L344.82 295.276L344.668 295.261H344.517H344.365L344.213 295.276L344.062 295.292L343.91 295.322L343.774 295.352L343.637 295.398L343.501 295.444L343.364 295.489L343.228 295.55L343.107 295.626L342.986 295.687L342.864 295.763L342.743 295.854L342.637 295.945L342.531 296.036L342.425 296.127L342.319 296.234L342.228 296.34L342.137 296.446L342.061 296.568L341.985 296.69L341.909 296.811L341.849 296.948L341.788 297.069L341.727 297.206L341.682 297.343L341.652 297.495L341.606 297.632L341.591 297.784L341.561 297.92V298.072L341.545 298.224L341.561 298.391V298.528L341.591 298.68L341.606 298.832L341.652 298.969L341.682 299.106L341.727 299.258L341.788 299.379L341.849 299.516L341.909 299.653L341.985 299.774L342.061 299.881L342.137 300.002L342.228 300.124L342.319 300.23L342.425 300.321L342.531 300.428L342.637 300.519L342.743 300.61L342.864 300.686L342.986 300.777L343.107 300.838L343.228 300.914L343.364 300.959L343.501 301.02L343.637 301.066L343.774 301.111L343.91 301.142L344.062 301.172L344.213 301.187L344.365 301.203H344.517Z" fill="#003686"/>
<path fill-rule="evenodd" clip-rule="evenodd" d="M344.517 300.853L344.653 300.838H344.774L344.911 300.823L345.032 300.792L345.168 300.762L345.29 300.732L345.411 300.686L345.532 300.64L345.638 300.595L345.76 300.534L345.866 300.473L345.972 300.397L346.078 300.321L346.169 300.245L346.275 300.169L346.366 300.078L346.442 299.987L346.533 299.896L346.608 299.789L346.684 299.698L346.745 299.592L346.806 299.47L346.866 299.364L346.927 299.242L346.972 299.121L347.003 299.014L347.048 298.878L347.078 298.756L347.094 298.635L347.109 298.498L347.124 298.361V298.224V298.088L347.109 297.966L347.094 297.829L347.078 297.708L347.048 297.571L347.003 297.449L346.972 297.328L346.927 297.206L346.866 297.1L346.806 296.978L346.745 296.872L346.684 296.766L346.608 296.659L346.533 296.568L346.442 296.462L346.366 296.37L346.275 296.294L346.169 296.203L346.078 296.127L345.972 296.051L345.866 295.991L345.76 295.93L345.638 295.869L345.532 295.823L345.411 295.763L345.29 295.732L345.168 295.687L345.032 295.656L344.911 295.641L344.774 295.626L344.653 295.611H344.517H344.38L344.244 295.626L344.122 295.641L343.986 295.656L343.865 295.687L343.743 295.732L343.622 295.763L343.501 295.823L343.38 295.869L343.274 295.93L343.167 295.991L343.061 296.051L342.955 296.127L342.849 296.203L342.758 296.294L342.667 296.37L342.576 296.462L342.5 296.568L342.425 296.659L342.349 296.766L342.273 296.872L342.212 296.978L342.152 297.1L342.106 297.206L342.061 297.328L342.015 297.449L341.985 297.571L341.955 297.708L341.924 297.829L341.909 297.966V298.088L341.894 298.224L341.909 298.361V298.498L341.924 298.635L341.955 298.756L341.985 298.878L342.015 299.014L342.061 299.121L342.106 299.242L342.152 299.364L342.212 299.47L342.273 299.592L342.349 299.698L342.425 299.789L342.5 299.896L342.576 299.987L342.667 300.078L342.758 300.169L342.849 300.245L342.955 300.321L343.061 300.397L343.167 300.473L343.274 300.534L343.38 300.595L343.501 300.64L343.622 300.686L343.743 300.732L343.865 300.762L343.986 300.792L344.122 300.823L344.244 300.838H344.38L344.517 300.853Z" fill="white"/>
<path d="M424.935 314.681V317.325H398.983V314.681H410.564V307.949H402.242V305.336H410.564V299.47H404.076C403.166 301.233 402.211 302.783 401.181 304.014C400.62 303.543 399.422 302.753 398.695 302.373C401.059 299.881 402.909 295.869 403.985 291.766L406.789 292.404C406.35 293.894 405.819 295.398 405.274 296.796H410.564V291.341H413.368V296.796H423.54V299.455H413.368V305.321H422.464V307.934H413.368V314.666H424.95L424.935 314.681Z" fill="#003686"/>
<path d="M456.799 293.21V317.796H453.903V316.003H440.139V317.902H437.365V293.21H456.799ZM440.139 295.96V303.102H453.903V295.96H440.139ZM453.903 313.237V305.792H440.139V313.237H453.903Z" fill="#003686"/>
<path d="M468.289 304.515C469.017 302.555 469.547 299.334 469.744 296.978L471.73 297.267C471.579 299.668 471.063 303.072 470.32 305.214L468.274 304.515H468.289ZM476.824 302.403C476.536 301.111 475.778 299.121 474.989 297.449V318.191H472.337V291.326H474.989V296.72L476.596 296.051C477.506 297.753 478.491 300.033 478.825 301.446L476.839 302.418L476.824 302.403ZM495.439 304.485V307.068H486.374C485.555 311.232 483.387 315.365 478.097 318.343C477.718 317.781 476.808 316.732 476.172 316.231C480.992 313.83 482.887 310.487 483.63 307.053H477.263V304.47H484.009C484.1 303.36 484.13 302.236 484.13 301.218V298.376H478.749V295.854H484.13V291.31H486.874V295.854H493.241V304.47H495.439V304.485ZM486.874 301.233C486.874 302.281 486.844 303.376 486.722 304.485H490.588V298.391H486.874V301.233ZM489.239 307.554C491.255 310.426 493.968 314.347 495.348 316.702L492.862 318.115C491.634 315.745 488.981 311.703 486.965 308.679L489.239 307.569V307.554Z" fill="#003686"/>
<path d="M514.509 311.581C512.402 314.103 508.688 316.261 505.247 317.325C504.837 316.626 504.049 315.562 503.427 315.046C506.762 314.316 510.355 312.614 512.25 310.685L514.493 311.596L514.509 311.581ZM518.541 307.509H530.137V309.758H518.541V318.13H515.827V309.758H504.14V307.509H515.827V305.898H518.541V307.509ZM510.992 306.065C510.961 305.685 510.871 305.245 510.81 304.743C506.247 305.381 505.489 305.594 504.989 305.792C504.898 305.351 504.549 304.272 504.292 303.71C504.852 303.588 505.398 303.011 506.111 302.16C506.459 301.75 507.217 300.747 508.066 299.501C505.929 299.759 505.413 299.911 505.05 300.093C504.928 299.653 504.58 298.604 504.383 298.072C504.731 297.981 505.14 297.51 505.55 296.872C505.929 296.279 507.278 293.848 507.945 291.569L510.082 292.359C509.324 294.198 508.293 296.203 507.248 297.753L509.294 297.571C509.825 296.69 510.294 295.778 510.719 294.912L512.674 295.991C511.189 298.574 509.339 301.203 507.475 303.345L510.461 302.996C510.31 302.327 510.143 301.613 510.022 301.005L511.841 300.625C512.25 302.205 512.72 304.226 512.887 305.609L510.992 306.08V306.065ZM521.057 305.184H513.281V293.985H515.615C515.843 293.043 516.085 291.933 516.176 291.143L518.662 291.584C518.344 292.404 518.025 293.255 517.753 293.985H521.057V305.184ZM518.647 296.051H515.585V298.604H518.647V296.051ZM518.647 300.534H515.585V303.148H518.647V300.534ZM521.846 310.426C524.62 311.839 528.273 313.997 530.153 315.501L528.425 317.492C526.666 315.973 523.073 313.648 520.239 312.128L521.846 310.426ZM528.364 306.323C528.303 305.944 528.212 305.564 528.136 305.093C523.574 305.685 522.785 305.852 522.285 306.065C522.164 305.624 521.846 304.515 521.588 303.923C522.149 303.801 522.694 303.224 523.407 302.403C523.786 301.962 524.574 300.975 525.453 299.683C522.998 300.033 522.406 300.185 522.027 300.321C521.937 299.881 521.588 298.802 521.33 298.27C521.739 298.148 522.088 297.677 522.497 297.039C522.937 296.401 524.286 293.939 524.983 291.554L527.212 292.253C526.424 294.182 525.347 296.264 524.256 297.875L526.742 297.647C527.242 296.826 527.682 295.975 528.091 295.155L530.137 296.264C528.591 298.878 526.696 301.507 524.756 303.619L527.742 303.33C527.591 302.692 527.394 302.069 527.212 301.507L529.001 301.035C529.501 302.494 530.016 304.47 530.259 305.746L528.394 306.308L528.364 306.323Z" fill="#003686"/>
<path d="M114.556 169.808C114.556 183.378 114.177 184.7 113.495 188.271C112.919 191.203 111.676 193.27 109.675 194.577C108.174 195.564 104.733 196.734 96.8503 196.734H87.9823L78.7051 211.504L203.675 211.611L194.413 196.81H187.501C178.754 196.795 175.449 195.336 174.267 194.455C172.281 193.012 171.083 190.747 170.598 187.556C170.022 183.697 169.734 182.603 169.75 169.823L169.78 134.874L114.571 134.844L114.541 169.793L114.556 169.808Z" fill="#D01126"/>
<path d="M78.9173 5.75905L88.1794 20.5593H95.6982C105.855 20.5745 109.235 21.6838 110.342 22.3372C112.024 23.3249 113.101 25.2243 113.646 28.157C114.329 31.7583 114.662 40.3437 114.647 53.2598L114.617 84.8509L43.9154 84.7902C30.3785 84.7902 26.5736 84.4103 23.0264 83.7265C20.1007 83.1491 18.0391 81.903 16.7203 79.8973C15.735 78.3929 14.5677 74.9436 14.5677 67.042V58.1527L0.106112 48.8531L0 168.836L14.5222 159.551V152.622C14.5374 143.855 15.9927 140.542 16.8719 139.357C18.312 137.366 20.5706 136.166 23.754 135.679C27.6044 135.102 31.1667 134.813 43.9305 134.829L114.632 134.889L130.139 134.904H130.367H169.84L169.871 87.7533L169.901 53.275C169.916 36.5297 170.583 30.0261 171.129 27.686C171.766 24.9356 172.903 23.1577 174.6 22.2612C175.752 21.6534 179.163 20.6201 189.062 20.6353H194.64L203.918 5.86542L78.9476 5.75905H78.9173Z" fill="#024A8B"/>
<path d="M199.279 107.097C199.658 98.6484 202.781 90.9747 207.753 84.9117L169.75 84.8661L169.719 134.92L209.86 134.965C202.902 127.793 198.794 117.87 199.264 107.082L199.279 107.097Z" fill="#D01126"/>
<path d="M375.395 196.993C366.649 196.993 363.344 195.519 362.162 194.653C360.176 193.209 358.978 190.945 358.493 187.754C357.917 183.894 357.629 182.8 357.644 170.021L357.675 135.132L503.564 135.178L492.74 116.64C488.466 109.635 490.072 100.563 496.53 95.4725L497.455 94.7431C501.654 91.4305 505.504 88.2243 508.991 85.1093L357.735 85.0637L357.766 53.4573C357.781 36.712 358.448 30.2084 358.993 27.8683C359.63 25.1179 360.767 23.3401 362.465 22.4436C363.617 21.8357 367.028 20.8025 376.926 20.8177H382.505L391.782 6.04776L267.813 5.94139L277.075 20.7417H284.593C294.75 20.7569 298.13 21.8661 299.237 22.5195C300.92 23.5072 301.996 25.4067 302.542 28.3394C303.224 31.9407 303.557 40.5261 303.542 53.4421L303.512 85.0181L265.781 84.9725C271.42 91.8864 274.649 100.821 274.225 110.44C273.8 120.043 269.798 128.644 263.583 135.026L303.466 135.072L303.436 169.991C303.436 183.56 303.057 184.882 302.375 188.453C301.799 191.386 300.556 193.452 298.555 194.759C297.054 195.747 293.613 196.917 285.73 196.917H276.862L267.585 211.687L391.555 211.793L382.293 196.993H375.38H375.395Z" fill="#D01126"/>
<path d="M637.478 58.5933V66.1302C637.463 76.3111 636.356 79.6997 635.704 80.809C634.719 82.4957 632.824 83.5745 629.898 84.1216C626.306 84.8054 621.136 85.1548 608.251 85.1397H568.853C568.08 86.2185 567.292 87.2974 566.458 88.3763C572.249 93.0716 577.418 97.9493 581.905 102.949C589.803 111.762 594.669 122.581 596.488 135.193H608.236C624.941 135.208 628.034 135.877 630.368 136.424C633.112 137.062 634.886 138.202 635.78 139.904C636.386 141.059 637.417 144.478 637.402 154.4V159.992L651.894 169.292L652 49.309L637.478 58.5933Z" fill="#D01126"/>
<path d="M575.508 108.723C569.611 102.143 562.426 95.7764 554.073 89.7591C567.489 75.0803 574.28 59.9609 574.28 44.6896C574.28 35.7091 571.991 27.7012 567.474 20.8784C563.002 14.1317 556.711 8.8741 548.768 5.2424C541.173 1.76267 532.699 0.0151978 523.589 0.0151978C505.004 0.0151978 485.555 8.61578 465.803 25.589L458.36 32.1838L469.426 42.7598C472.913 46.1635 477.369 46.6954 480.917 43.9602C492.104 35.3292 502.351 30.9378 511.371 30.9378C518.784 30.9378 524.847 33.3234 529.91 38.2316C534.897 43.0637 537.308 48.7771 537.308 55.6758C537.308 63.5318 534.655 70.4913 529.198 76.9494C522.861 84.4407 513.963 92.7069 502.761 101.535L501.836 102.265C498.804 104.651 498.061 108.936 500.108 112.218L511.644 131.957C513.023 134.16 515.433 135.512 518.041 135.512H541.628C547.267 135.512 547.51 138.004 549.996 141.742C553.285 146.681 554.089 153.048 554.089 159.977C554.089 166.298 552.603 171.981 549.556 177.33C546.494 182.709 542.462 186.857 537.247 190.003C532.108 193.103 526.954 194.607 521.467 194.607C515.676 194.607 509.582 192.951 503.367 189.684C496.742 186.204 491.179 182.117 486.813 177.558C486.055 176.768 485.404 176.038 484.858 175.4C482.69 172.878 482.448 169.216 484.252 166.42L489.042 159.02C477.43 152.258 462.544 156.132 455.677 167.696L445.581 184.685L448.825 189.167C456.677 200.001 466.319 207.979 477.475 212.872C488.314 217.628 499.304 220.029 510.128 220.029C525.726 220.029 539.688 216.336 551.618 209.073C563.457 201.855 572.704 192.465 579.086 181.129C585.468 169.793 588.712 158.229 588.712 146.772C588.712 131.303 584.27 118.493 575.523 108.723H575.508Z" fill="#024A8B"/>
<path d="M260.218 105.76C260.218 100.062 255.61 95.4269 249.91 95.4269C249.061 95.4269 248.242 95.5333 247.454 95.7308C247.121 90.3213 242.649 86.0514 237.176 86.0514C231.704 86.0514 227.202 90.3517 226.883 95.7916C226.035 95.5637 225.14 95.4421 224.215 95.4421C218.531 95.4421 213.907 100.062 213.907 105.775C213.907 110.136 216.606 113.859 220.411 115.378C219.304 117.02 218.667 119.01 218.667 121.137C218.667 126.836 223.276 131.47 228.975 131.47C232.25 131.47 235.16 129.936 237.055 127.55C238.95 129.936 241.86 131.47 245.135 131.47C250.819 131.47 255.443 126.851 255.443 121.137C255.443 119.01 254.806 117.035 253.7 115.378C257.52 113.859 260.218 110.136 260.218 105.775V105.76ZM251.426 106.261C250.986 106.398 250.516 106.216 250.274 105.836L239.723 109.194C239.784 109.422 239.814 109.65 239.814 109.893C239.814 109.908 239.814 109.939 239.814 109.954L247.302 110.607C247.424 110.364 247.697 110.212 247.985 110.242C248.364 110.273 248.652 110.622 248.621 111.002C248.591 111.382 248.242 111.671 247.863 111.64C247.56 111.61 247.318 111.397 247.242 111.109L239.753 110.455C239.708 110.698 239.617 110.926 239.511 111.139L245.347 114.755C245.59 114.512 245.953 114.467 246.257 114.649C246.605 114.862 246.711 115.318 246.499 115.667C246.287 116.017 245.832 116.123 245.483 115.91C245.241 115.758 245.12 115.485 245.135 115.211L239.238 111.564C239.132 111.701 239.011 111.838 238.889 111.944L245.771 120.894C246.181 120.727 246.651 120.834 246.939 121.198C247.272 121.624 247.181 122.247 246.757 122.581C246.332 122.915 245.711 122.824 245.377 122.399C245.104 122.034 245.12 121.548 245.377 121.198L238.495 112.248C238.283 112.37 238.056 112.476 237.828 112.552L239.177 120.028C239.496 120.059 239.753 120.302 239.814 120.621C239.89 121.016 239.617 121.396 239.223 121.472C238.829 121.548 238.45 121.274 238.374 120.879C238.328 120.59 238.45 120.302 238.677 120.15L237.328 112.658C237.237 112.658 237.146 112.658 237.04 112.658C236.934 112.658 236.843 112.658 236.737 112.643L234.993 120.332C235.206 120.499 235.327 120.788 235.251 121.062C235.16 121.457 234.766 121.7 234.372 121.609C233.978 121.517 233.735 121.122 233.826 120.727C233.902 120.408 234.19 120.18 234.493 120.165L236.221 112.537C236.009 112.476 235.797 112.385 235.615 112.263L228.748 121.639C229.021 121.973 229.051 122.475 228.778 122.839C228.46 123.28 227.838 123.371 227.399 123.052C226.959 122.733 226.868 122.11 227.187 121.669C227.459 121.305 227.929 121.183 228.339 121.335L235.206 111.959C235.069 111.838 234.948 111.716 234.842 111.564L228.96 115.211C228.96 115.454 228.854 115.698 228.627 115.834C228.293 116.032 227.869 115.941 227.672 115.606C227.475 115.272 227.566 114.847 227.899 114.649C228.172 114.482 228.521 114.528 228.748 114.74L234.569 111.139C234.448 110.911 234.372 110.668 234.311 110.425L226.929 111.078C226.853 111.382 226.611 111.61 226.277 111.64C225.868 111.671 225.519 111.382 225.489 110.972C225.459 110.562 225.747 110.212 226.156 110.182C226.459 110.151 226.747 110.318 226.868 110.577L234.251 109.923C234.251 109.923 234.251 109.878 234.251 109.863C234.251 109.619 234.281 109.376 234.342 109.148L223.867 105.805C223.624 106.185 223.154 106.368 222.715 106.231C222.184 106.064 221.896 105.501 222.063 104.97C222.23 104.438 222.791 104.149 223.321 104.316C223.761 104.453 224.049 104.878 224.018 105.334L234.524 108.677C234.614 108.48 234.736 108.297 234.857 108.13L229.551 103.435C229.248 103.617 228.839 103.602 228.566 103.344C228.217 103.04 228.187 102.508 228.49 102.158C228.793 101.809 229.324 101.779 229.673 102.083C229.961 102.326 230.021 102.736 229.885 103.055L235.206 107.766C235.372 107.614 235.569 107.492 235.767 107.386L232.811 100.821C232.447 100.912 232.068 100.73 231.901 100.381C231.719 99.9855 231.901 99.5145 232.295 99.3321C232.689 99.1498 233.159 99.3321 233.341 99.7272C233.462 100.016 233.417 100.32 233.235 100.548L236.221 107.203C236.388 107.158 236.57 107.112 236.752 107.097V96.1867C236.312 96.0803 235.994 95.6853 235.994 95.2142C235.994 94.652 236.449 94.2113 236.994 94.2113C237.54 94.2113 237.995 94.6672 237.995 95.2142C237.995 95.6853 237.677 96.0803 237.237 96.1867V107.097C237.449 107.112 237.646 107.158 237.828 107.219L240.905 100.381H240.936C240.678 100.168 240.572 99.8032 240.724 99.4689C240.905 99.0738 241.375 98.8915 241.769 99.0738C242.164 99.2562 242.346 99.7272 242.164 100.122C242.012 100.457 241.679 100.624 241.33 100.578H241.36L238.283 107.416C238.48 107.522 238.662 107.644 238.813 107.796L244.165 103.055C244.013 102.721 244.089 102.326 244.377 102.083C244.725 101.779 245.256 101.809 245.574 102.158C245.878 102.508 245.847 103.04 245.499 103.359C245.211 103.617 244.816 103.632 244.498 103.45L239.162 108.176C239.283 108.343 239.39 108.51 239.48 108.692L250.046 105.319C250.016 104.863 250.304 104.438 250.744 104.301C251.274 104.134 251.835 104.423 252.002 104.954C252.169 105.486 251.88 106.048 251.35 106.216L251.426 106.261Z" fill="#D01126"/>
</g>
<defs>
<clipPath id="clip0_1_14527">
<rect width="652" height="357" fill="white"/>
</clipPath>
</defs>
</svg>
