<svg width="270" height="129" viewBox="0 0 270 129" fill="none" xmlns="http://www.w3.org/2000/svg">
<g filter="url(#filter0_d_160_46)">
<path d="M55.4688 20.0312V34.3672H54.0625C53.2292 31.0599 52.3047 28.6901 51.2891 27.2578C50.2734 25.7995 48.8802 24.6406 47.1094 23.7812C46.1198 23.3125 44.388 23.0781 41.9141 23.0781H37.9688V63.9375C37.9688 66.6458 38.112 68.3385 38.3984 69.0156C38.7109 69.6927 39.2969 70.2917 40.1562 70.8125C41.0417 71.3073 42.2396 71.5547 43.75 71.5547H45.5078V73H17.7734V71.5547H19.5312C21.0677 71.5547 22.3047 71.2812 23.2422 70.7344C23.9193 70.3698 24.4531 69.7448 24.8438 68.8594C25.1302 68.2344 25.2734 66.5938 25.2734 63.9375V23.0781H21.4453C17.8776 23.0781 15.2865 23.8333 13.6719 25.3438C11.4062 27.4531 9.97396 30.4609 9.375 34.3672H7.89062V20.0312H55.4688ZM81.2109 67.6094C76.7578 71.5417 72.7604 73.5078 69.2188 73.5078C67.1354 73.5078 65.4036 72.8307 64.0234 71.4766C62.6432 70.0964 61.9531 68.3776 61.9531 66.3203C61.9531 63.5339 63.151 61.0339 65.5469 58.8203C67.9427 56.5807 73.1641 53.612 81.2109 49.9141V46.2422C81.2109 43.4818 81.0547 41.75 80.7422 41.0469C80.4557 40.3177 79.8958 39.6927 79.0625 39.1719C78.2292 38.625 77.2917 38.3516 76.25 38.3516C74.5573 38.3516 73.1641 38.7292 72.0703 39.4844C71.3932 39.9531 71.0547 40.5 71.0547 41.125C71.0547 41.6719 71.4193 42.349 72.1484 43.1562C73.138 44.276 73.6328 45.3568 73.6328 46.3984C73.6328 47.6745 73.151 48.7682 72.1875 49.6797C71.25 50.5651 70.013 51.0078 68.4766 51.0078C66.8359 51.0078 65.4557 50.513 64.3359 49.5234C63.2422 48.5339 62.6953 47.375 62.6953 46.0469C62.6953 44.1719 63.4375 42.388 64.9219 40.6953C66.4062 38.9766 68.4766 37.6615 71.1328 36.75C73.7891 35.8385 76.5495 35.3828 79.4141 35.3828C82.8776 35.3828 85.612 36.125 87.6172 37.6094C89.6484 39.0677 90.9635 40.6562 91.5625 42.375C91.9271 43.4688 92.1094 45.9818 92.1094 49.9141V64.0938C92.1094 65.7604 92.1745 66.8151 92.3047 67.2578C92.4349 67.6745 92.6302 67.987 92.8906 68.1953C93.151 68.4036 93.4505 68.5078 93.7891 68.5078C94.4661 68.5078 95.1562 68.026 95.8594 67.0625L97.0312 68C95.7292 69.9271 94.375 71.3333 92.9688 72.2188C91.5885 73.0781 90.013 73.5078 88.2422 73.5078C86.1589 73.5078 84.5312 73.026 83.3594 72.0625C82.1875 71.0729 81.4714 69.5885 81.2109 67.6094ZM81.2109 64.7578V52.5312C78.0599 54.3802 75.7161 56.3594 74.1797 58.4688C73.1641 59.875 72.6562 61.2943 72.6562 62.7266C72.6562 63.9245 73.0859 64.9792 73.9453 65.8906C74.5964 66.5938 75.5078 66.9453 76.6797 66.9453C77.9818 66.9453 79.4922 66.2161 81.2109 64.7578ZM109.844 18.7812C111.536 18.7812 112.969 19.3802 114.141 20.5781C115.312 21.75 115.898 23.1693 115.898 24.8359C115.898 26.5026 115.299 27.9219 114.102 29.0938C112.93 30.2656 111.51 30.8516 109.844 30.8516C108.177 30.8516 106.758 30.2656 105.586 29.0938C104.414 27.9219 103.828 26.5026 103.828 24.8359C103.828 23.1693 104.414 21.75 105.586 20.5781C106.758 19.3802 108.177 18.7812 109.844 18.7812ZM115.312 36.4766V65.4219C115.312 68 115.612 69.6536 116.211 70.3828C116.81 71.0859 117.982 71.4896 119.727 71.5938V73H100V71.5938C101.615 71.5417 102.812 71.0729 103.594 70.1875C104.115 69.5885 104.375 68 104.375 65.4219V44.0938C104.375 41.5156 104.076 39.875 103.477 39.1719C102.878 38.4427 101.719 38.026 100 37.9219V36.4766H115.312ZM159.531 74.0938L149.531 47.2969L139.727 74.0938H137.695L127.969 47.6094C126.51 43.5729 125.273 40.9427 124.258 39.7188C123.607 38.8854 122.617 38.2865 121.289 37.9219V36.4766H139.727V37.9219C138.477 37.9219 137.617 38.1042 137.148 38.4688C136.68 38.8333 136.445 39.25 136.445 39.7188C136.445 40.1615 136.862 41.4896 137.695 43.7031L143.047 57.9609L148.203 43.7031L147.812 42.7656C147.031 40.8125 146.341 39.5755 145.742 39.0547C145.169 38.5078 144.271 38.1302 143.047 37.9219V36.4766H161.758V37.9219C160.299 38 159.375 38.2083 158.984 38.5469C158.594 38.8594 158.398 39.3151 158.398 39.9141C158.398 40.487 158.776 41.75 159.531 43.7031L164.688 57.9609L169.375 44.8359C170.052 42.9609 170.391 41.6849 170.391 41.0078C170.391 39.9922 170.143 39.25 169.648 38.7812C169.154 38.3125 168.19 38.026 166.758 37.9219V36.4766H177.578V37.9219C176.38 38.0781 175.43 38.5078 174.727 39.2109C174.023 39.888 173.112 41.8411 171.992 45.0703L161.758 74.0938H159.531ZM201.289 67.6094C196.836 71.5417 192.839 73.5078 189.297 73.5078C187.214 73.5078 185.482 72.8307 184.102 71.4766C182.721 70.0964 182.031 68.3776 182.031 66.3203C182.031 63.5339 183.229 61.0339 185.625 58.8203C188.021 56.5807 193.242 53.612 201.289 49.9141V46.2422C201.289 43.4818 201.133 41.75 200.82 41.0469C200.534 40.3177 199.974 39.6927 199.141 39.1719C198.307 38.625 197.37 38.3516 196.328 38.3516C194.635 38.3516 193.242 38.7292 192.148 39.4844C191.471 39.9531 191.133 40.5 191.133 41.125C191.133 41.6719 191.497 42.349 192.227 43.1562C193.216 44.276 193.711 45.3568 193.711 46.3984C193.711 47.6745 193.229 48.7682 192.266 49.6797C191.328 50.5651 190.091 51.0078 188.555 51.0078C186.914 51.0078 185.534 50.513 184.414 49.5234C183.32 48.5339 182.773 47.375 182.773 46.0469C182.773 44.1719 183.516 42.388 185 40.6953C186.484 38.9766 188.555 37.6615 191.211 36.75C193.867 35.8385 196.628 35.3828 199.492 35.3828C202.956 35.3828 205.69 36.125 207.695 37.6094C209.727 39.0677 211.042 40.6562 211.641 42.375C212.005 43.4688 212.188 45.9818 212.188 49.9141V64.0938C212.188 65.7604 212.253 66.8151 212.383 67.2578C212.513 67.6745 212.708 67.987 212.969 68.1953C213.229 68.4036 213.529 68.5078 213.867 68.5078C214.544 68.5078 215.234 68.026 215.938 67.0625L217.109 68C215.807 69.9271 214.453 71.3333 213.047 72.2188C211.667 73.0781 210.091 73.5078 208.32 73.5078C206.237 73.5078 204.609 73.026 203.438 72.0625C202.266 71.0729 201.549 69.5885 201.289 67.6094ZM201.289 64.7578V52.5312C198.138 54.3802 195.794 56.3594 194.258 58.4688C193.242 59.875 192.734 61.2943 192.734 62.7266C192.734 63.9245 193.164 64.9792 194.023 65.8906C194.674 66.5938 195.586 66.9453 196.758 66.9453C198.06 66.9453 199.57 66.2161 201.289 64.7578ZM236.055 36.4766V41.2031C237.93 39.1719 239.727 37.7005 241.445 36.7891C243.164 35.8516 245.013 35.3828 246.992 35.3828C249.362 35.3828 251.328 36.0469 252.891 37.375C254.453 38.6771 255.495 40.3047 256.016 42.2578C256.432 43.7422 256.641 46.5938 256.641 50.8125V65.0312C256.641 67.8438 256.888 69.6016 257.383 70.3047C257.904 70.9818 258.971 71.4115 260.586 71.5938V73H242.109V71.5938C243.49 71.4115 244.479 70.8385 245.078 69.875C245.495 69.224 245.703 67.6094 245.703 65.0312V48.7812C245.703 45.7865 245.586 43.8984 245.352 43.1172C245.117 42.3359 244.714 41.737 244.141 41.3203C243.594 40.8776 242.982 40.6562 242.305 40.6562C240.065 40.6562 237.982 42.2578 236.055 45.4609V65.0312C236.055 67.7656 236.302 69.4974 236.797 70.2266C237.318 70.9557 238.268 71.4115 239.648 71.5938V73H221.172V71.5938C222.708 71.4375 223.802 70.9427 224.453 70.1094C224.896 69.5365 225.117 67.8438 225.117 65.0312V44.4062C225.117 41.6458 224.857 39.9271 224.336 39.25C223.841 38.5729 222.786 38.1302 221.172 37.9219V36.4766H236.055Z" fill="#C39F60"/>
<path d="M4.304 102.136H23.648V113.44H21.776V103.912H6.104V113.56H4.304V102.136ZM5.264 110.296H22.856V112.048H5.264V110.296ZM12.992 97.84H14.864V119.896H12.992V97.84ZM27.248 107.56H48.776V109.12H27.248V107.56ZM27.512 115.144H48.536V116.728H27.512V115.144ZM28.952 103.696H47.216V105.232H28.952V103.696ZM28.592 111.544H47.624V113.056H28.592V111.544ZM37.016 104.272H38.792V119.968H37.016V104.272ZM31.616 104.392H33.296V112.288H31.616V104.392ZM42.704 104.392H44.408V112.288H42.704V104.392ZM32.888 97.864H34.664V103.024H32.888V97.864ZM41.168 97.864H42.944V103.024H41.168V97.864ZM27.464 99.568H48.56V101.176H27.464V99.568ZM61.976 105.856H63.824C64.16 112.696 67.352 118.168 70.4 118.144C71.144 118.12 71.408 117.136 71.528 114.568C71.96 114.928 72.632 115.288 73.136 115.432C72.848 118.984 72.104 119.92 70.328 119.92C65.888 119.92 62.408 113.488 61.976 105.856ZM54.704 109.576H72.632V111.256H54.704V109.576ZM51.272 117.736C54.2 117.4 58.832 116.752 63.2 116.128L63.272 117.88C59.144 118.528 54.728 119.152 51.68 119.608L51.272 117.736ZM53.792 99.112H55.616V118.264H53.792V99.112ZM54.704 99.112H70.856V106.312H54.704V104.632H69.032V100.792H54.704V99.112ZM78.992 103.768H93.056V105.136H78.992V103.768ZM89 101.8L89.84 100.936C90.776 101.344 91.88 102.016 92.456 102.568L91.592 103.528C91.016 102.952 89.912 102.256 89 101.8ZM90.584 106.24L92.048 106.528C90.848 111.064 88.448 114.424 85.136 116.56C84.92 116.272 84.392 115.672 84.08 115.408C87.344 113.512 89.552 110.392 90.584 106.24ZM78.752 113.584C80.6 113.272 83.288 112.816 86 112.312L86.048 113.584C83.552 114.064 80.984 114.592 78.992 114.952L78.752 113.584ZM81.128 107.776V110.2H83.864V107.776H81.128ZM79.832 106.648H85.184V111.304H79.832V106.648ZM86.096 101.2H87.632C87.944 107.992 89 114.328 91.328 114.688C91.664 114.76 91.904 113.752 92.072 112.192C92.36 112.48 92.912 112.864 93.248 113.008C92.936 115.648 92.096 116.608 90.824 116.152C87.512 115.432 86.528 108.616 86.096 101.2ZM75.968 98.968H96.032V120.016H94.232V100.6H77.672V120.016H75.968V98.968ZM77.024 117.256H95.24V118.888H77.024V117.256ZM102.992 103.768H117.056V105.136H102.992V103.768ZM113 101.8L113.84 100.936C114.776 101.344 115.88 102.016 116.456 102.568L115.592 103.528C115.016 102.952 113.912 102.256 113 101.8ZM114.584 106.24L116.048 106.528C114.848 111.064 112.448 114.424 109.136 116.56C108.92 116.272 108.392 115.672 108.08 115.408C111.344 113.512 113.552 110.392 114.584 106.24ZM102.752 113.584C104.6 113.272 107.288 112.816 110 112.312L110.048 113.584C107.552 114.064 104.984 114.592 102.992 114.952L102.752 113.584ZM105.128 107.776V110.2H107.864V107.776H105.128ZM103.832 106.648H109.184V111.304H103.832V106.648ZM110.096 101.2H111.632C111.944 107.992 113 114.328 115.328 114.688C115.664 114.76 115.904 113.752 116.072 112.192C116.36 112.48 116.912 112.864 117.248 113.008C116.936 115.648 116.096 116.608 114.824 116.152C111.512 115.432 110.528 108.616 110.096 101.2ZM99.968 98.968H120.032V120.016H118.232V100.6H101.672V120.016H99.968V98.968ZM101.024 117.256H119.24V118.888H101.024V117.256ZM125.96 107.632H143.744V108.88H125.96V107.632ZM130.568 100.816H132.176V105.904H130.568V100.816ZM136.232 100.816H137.864V105.904H136.232V100.816ZM126.2 102.424H143.624V106.504H126.2V105.328H141.968V103.576H126.2V102.424ZM132.656 112.216L134.312 112.576C132.608 114.28 130.16 115.768 126.944 116.968C126.728 116.632 126.272 116.128 125.936 115.888C128.984 114.904 131.36 113.512 132.656 112.216ZM131.96 113.704H140.264V114.832H130.832L131.96 113.704ZM139.88 113.704H140.216L140.504 113.632L141.56 114.328C138.656 117.688 132.368 119.248 126.656 119.896C126.512 119.512 126.2 118.936 125.936 118.576C131.336 118.096 137.408 116.68 139.88 113.944V113.704ZM131.288 114.496C133.856 116.872 139.328 118.096 144.944 118.48C144.608 118.816 144.224 119.464 144.008 119.896C138.32 119.392 132.776 117.928 129.92 115.096L131.288 114.496ZM130.976 109.504H132.464V111.016C132.464 111.472 132.632 111.544 133.592 111.544C134.024 111.544 136.472 111.544 137.048 111.544C137.744 111.544 137.864 111.376 137.96 110.296C138.272 110.488 138.824 110.656 139.208 110.752C139.088 112.312 138.632 112.696 137.264 112.696C136.832 112.696 133.856 112.696 133.472 112.696C131.456 112.696 130.976 112.384 130.976 111.016V109.504ZM143.384 107.632H143.672L143.936 107.584L145.136 107.872C144.608 109 143.984 110.224 143.456 111.016L142.016 110.656C142.472 109.936 143.048 108.832 143.384 107.848V107.632ZM128.984 109.336L130.256 109.888C129.68 111.04 128.816 112.24 127.52 112.96L126.296 112.144C127.52 111.52 128.48 110.392 128.984 109.336ZM133.088 109.216L134.048 108.424C135.032 108.904 136.208 109.648 136.808 110.176L135.8 111.064C135.2 110.464 134.024 109.648 133.088 109.216ZM138.656 109.84L139.832 109.192C140.96 110.008 142.232 111.232 142.832 112.12L141.584 112.816C141.032 111.952 139.784 110.704 138.656 109.84ZM133.76 97.864H135.608V100.552H133.76V97.864ZM125.648 99.472H144.632V100.912H125.648V99.472ZM124.832 99.472H126.488V106.816C126.488 110.632 126.176 116.2 124.088 119.92C123.8 119.608 123.08 119.104 122.696 118.936C124.664 115.384 124.832 110.392 124.832 106.816V99.472ZM148.16 103.072H167.936V104.128H148.16V103.072ZM147.128 112.696H168.92V113.776H147.128V112.696ZM156.968 115H168.608V116.152H156.968V115ZM149.672 117.352H155.504V118.48H149.672V117.352ZM147.296 106.96H167.384V108.016H147.296V106.96ZM149.888 105.064H166.208V106.024H149.888V105.064ZM158.024 116.944L159.2 116.2C160.04 116.8 160.976 117.664 161.408 118.312L160.16 119.128C159.752 118.504 158.84 117.592 158.024 116.944ZM157.112 101.92H158.864V105.568H157.112V101.92ZM151.04 108.952H164.984V109.864H151.04V108.952ZM149.672 110.8H166.184V111.76H149.672V110.8ZM157.04 109.192H158.744V111.472H157.04V109.192ZM166.952 106.96H167.216L167.528 106.888L168.752 107.2C168.44 108.256 168.08 109.504 167.768 110.296L166.256 109.936C166.472 109.192 166.76 108.088 166.952 107.176V106.96ZM148.808 114.568H156.344V119.056H154.76V115.672H150.32V119.152H148.808V114.568ZM164 113.608H165.776V118.312C165.776 119.128 165.584 119.464 164.96 119.704C164.312 119.92 163.352 119.92 161.96 119.92C161.84 119.512 161.528 118.96 161.312 118.6C162.416 118.624 163.328 118.624 163.64 118.6C163.928 118.6 164 118.504 164 118.264V113.608ZM149.936 99.424H157.712V100.672H149.936V99.424ZM159.272 99.424H168.968V100.672H159.272V99.424ZM150.296 97.744L151.976 98.2C151.112 99.976 149.696 101.704 148.376 102.832C148.04 102.568 147.32 102.064 146.888 101.824C148.28 100.792 149.552 99.28 150.296 97.744ZM159.824 97.744L161.528 98.176C160.736 99.928 159.272 101.56 157.856 102.616C157.496 102.352 156.728 101.896 156.296 101.68C157.784 100.72 159.104 99.28 159.824 97.744ZM151.376 100.408L152.888 100C153.344 100.672 153.824 101.608 154.016 102.208L152.432 102.664C152.264 102.04 151.808 101.104 151.376 100.408ZM161.456 100.36L162.92 99.904C163.568 100.576 164.288 101.512 164.576 102.16L163.04 102.664C162.752 102.016 162.08 101.056 161.456 100.36ZM181.28 98.056H182.984V103.672H181.28V98.056ZM187.472 98.056H189.2V103.672H187.472V98.056ZM185.864 108.376H187.352V119.8H185.864V108.376ZM177.392 100.096H192.968V101.68H177.392V100.096ZM181.832 111.328H191.384V112.624H181.832V111.328ZM181.832 114.688H191.384V115.96H181.832V114.688ZM178.592 104.512H193.064V106.096H178.592V104.512ZM177.8 104.512H179.48V109.696C179.48 112.696 179.144 117.016 177.248 119.92C176.984 119.608 176.288 119.032 175.904 118.816C177.632 116.128 177.8 112.384 177.8 109.672V104.512ZM180.92 107.872H191.624V109.24H182.48V119.92H180.92V107.872ZM190.88 107.872H192.464V118.168C192.464 118.984 192.32 119.416 191.744 119.68C191.168 119.92 190.256 119.944 188.84 119.944C188.768 119.536 188.6 118.936 188.384 118.528C189.416 118.552 190.256 118.552 190.52 118.528C190.808 118.504 190.88 118.432 190.88 118.168V107.872ZM175.568 97.984L177.248 98.44C175.88 102.592 173.744 106.816 171.368 109.624C171.2 109.192 170.72 108.232 170.408 107.776C172.52 105.376 174.416 101.68 175.568 97.984ZM173.648 103.864L175.304 102.208L175.352 102.256V119.92H173.648V103.864ZM195.104 110.944H216.896V112.456H195.104V110.944ZM203.36 108.376L205.136 108.856C203.576 111.328 201.416 114.496 199.904 116.464L198.2 115.888C199.736 113.944 201.92 110.728 203.36 108.376ZM210.32 111.496L212.072 112C210.008 117.28 204.992 119.248 196.16 119.944C196.04 119.44 195.752 118.768 195.44 118.336C203.84 117.856 208.448 116.128 210.32 111.496ZM199.568 115.6L200.504 114.28C206.36 115.336 212.48 116.968 216.176 118.432L215.072 119.92C211.448 118.408 205.616 116.752 199.568 115.6ZM195.368 102.784H216.584V104.296H195.368V102.784ZM205.04 99.568H206.84V109.12H205.04V99.568ZM204.152 103.144L205.616 103.792C203.408 106.456 199.472 108.76 195.944 109.888C195.704 109.456 195.2 108.808 194.84 108.472C198.296 107.512 202.184 105.448 204.152 103.144ZM207.752 103.168C209.72 105.376 213.632 107.344 217.088 108.232C216.704 108.592 216.176 109.264 215.936 109.72C212.408 108.64 208.472 106.384 206.288 103.816L207.752 103.168ZM212.84 97.888L214.16 99.184C209.912 100.144 203.048 100.624 197.432 100.744C197.384 100.336 197.216 99.712 197.048 99.328C202.544 99.184 209.288 98.68 212.84 97.888ZM224.336 100.24V102.712H235.736V100.24H224.336ZM222.536 98.776H237.632V104.2H222.536V98.776ZM223.304 109.888V111.592H236.744V109.888H223.304ZM223.304 112.864V114.592H236.744V112.864H223.304ZM223.304 106.936V108.616H236.744V106.936H223.304ZM221.504 105.592H238.592V115.912H221.504V105.592ZM226.088 115.888L227.768 116.992C225.848 118.168 222.728 119.32 220.256 119.944C219.944 119.56 219.344 118.984 218.912 118.624C221.432 118.024 224.576 116.872 226.088 115.888ZM231.944 117.136L233.504 115.96C236 116.704 239.216 117.88 241.088 118.672L239.528 119.968C237.752 119.128 234.488 117.88 231.944 117.136ZM247.448 106.048V109.672H260.624V106.048H247.448ZM245.912 104.824H262.256V110.896H245.912V104.824ZM249.848 102.232H258.224V103.504H249.848V102.232ZM253.136 105.208H254.672V110.224H253.136V105.208ZM253.88 99.304C251.744 101.488 247.736 103.936 243.752 105.424C243.536 105.016 243.128 104.392 242.792 104.008C246.872 102.616 250.928 100.168 252.92 97.84H254.624C257.336 100.456 261.512 102.664 265.232 103.768C264.848 104.152 264.44 104.8 264.176 105.256C260.648 104.032 256.328 101.656 253.88 99.304ZM248.912 106.768L250.208 106.336C250.832 107.176 251.408 108.304 251.648 109.072L250.256 109.576C250.064 108.808 249.512 107.632 248.912 106.768ZM257.552 106.24L259.088 106.72C258.536 107.752 257.936 108.856 257.456 109.576L256.184 109.144C256.64 108.328 257.264 107.056 257.552 106.24ZM247.328 112.048H260.888V119.896H259.064V113.32H249.104V119.92H247.328V112.048ZM248.384 114.928H259.856V116.248H248.384V114.928ZM248.384 117.88H259.856V119.176H248.384V117.88Z" fill="#C39F60"/>
</g>
<defs>
<filter id="filter0_d_160_46" x="-2" y="0" width="272" height="132" filterUnits="userSpaceOnUse" color-interpolation-filters="sRGB">
<feFlood flood-opacity="0" result="BackgroundImageFix"/>
<feColorMatrix in="SourceAlpha" type="matrix" values="0 0 0 0 0 0 0 0 0 0 0 0 0 0 0 0 0 0 127 0" result="hardAlpha"/>
<feOffset dy="4"/>
<feGaussianBlur stdDeviation="2"/>
<feComposite in2="hardAlpha" operator="out"/>
<feColorMatrix type="matrix" values="0 0 0 0 0 0 0 0 0 0 0 0 0 0 0 0 0 0 0.25 0"/>
<feBlend mode="normal" in2="BackgroundImageFix" result="effect1_dropShadow_160_46"/>
<feBlend mode="normal" in="SourceGraphic" in2="effect1_dropShadow_160_46" result="shape"/>
</filter>
</defs>
</svg>
