<svg width="184" height="83" viewBox="0 0 184 83" fill="none" xmlns="http://www.w3.org/2000/svg">
<path d="M44.8233 65.8488C44.818 71.2636 44.6758 71.7953 44.4071 73.2169C44.1858 74.3888 43.7011 75.2135 42.9267 75.7398C42.3419 76.1359 41.0037 76.6025 37.9481 76.5971H34.5025L30.8937 82.4948L79.4575 82.5382L75.8592 76.6296H73.1724C69.7743 76.6242 68.4941 76.0382 68.0304 75.691C67.256 75.1104 66.7924 74.2098 66.608 72.9402C66.3814 71.3993 66.2708 70.9652 66.2761 65.8596L66.2919 51.9048L44.8391 51.8939L44.8233 65.8488Z" fill="#D01126"/>
<path d="M30.9727 0.35532L34.571 6.2639H37.495C41.441 6.26932 42.7528 6.71423 43.1848 6.97466C43.8381 7.37074 44.2543 8.13033 44.4703 9.29685C44.739 10.7347 44.8654 14.1637 44.8602 19.3181L44.8496 31.9328L17.0748 31.9057C11.817 31.9003 10.3365 31.7538 8.95623 31.4771C7.81826 31.2492 7.01747 30.75 6.50643 29.9525C6.12184 29.3502 5.66876 27.9721 5.67403 24.8252V21.2768L0.0421469 17.5602L0 65.4636L5.64242 61.7578V58.9907C5.64769 55.4912 6.21667 54.1727 6.55385 53.6953C7.11757 52.8977 7.99212 52.4202 9.22491 52.2303C10.7211 51.997 12.1067 51.8831 17.0642 51.8885L44.8391 51.9156L50.8661 51.9211H50.9557L66.2919 51.9319L66.3024 33.0993L66.3182 19.3344C66.3235 12.6499 66.5816 10.051 66.7976 9.11781C67.0453 8.01639 67.4878 7.31105 68.1464 6.94753C68.5942 6.70338 69.9165 6.29102 73.7677 6.29645H75.933L79.5366 0.398725L30.9727 0.35532Z" fill="#003C83"/>
<path d="M77.7401 40.8201C77.8876 37.4508 79.0993 34.3852 81.0328 31.9654L66.2655 31.9491L66.255 51.9319L81.8546 51.9482C79.152 49.0834 77.5557 45.1227 77.7401 40.8147V40.8201Z" fill="#D01126"/>
<path d="M178.187 21.4558V24.4671C178.181 28.5309 177.749 29.8819 177.497 30.3268C177.112 30.9996 176.374 31.4282 175.242 31.6507C173.846 31.9274 172.639 32.063 167.629 32.0576L139.459 32.0305L139.47 19.4158C139.475 12.7313 139.733 10.1324 139.949 9.1992C140.197 8.09778 140.639 7.39244 141.298 7.02892C141.745 6.78477 143.068 6.37241 146.919 6.37784H149.084L152.693 0.480116L104.519 0.43671L108.117 6.34529H111.041C114.987 6.35071 116.299 6.79562 116.731 7.05605C117.385 7.45213 117.801 8.21172 118.017 9.37825C118.285 10.8161 118.412 14.2451 118.407 19.3995L118.396 32.0034L103.281 31.9871C105.473 34.7488 106.727 38.3134 106.558 42.1548C106.389 45.9908 104.841 49.4253 102.422 51.9699L118.375 51.9862L118.364 65.9248C118.359 71.3396 118.217 71.8713 117.948 73.2929C117.727 74.4648 117.242 75.2895 116.468 75.8158C115.883 76.2119 114.545 76.6785 111.489 76.6731H108.044L104.435 82.5708L152.609 82.6142L149.011 76.7056H146.324C142.926 76.7002 141.645 76.1142 141.182 75.767C140.407 75.1864 139.944 74.2858 139.759 73.0161C139.533 71.4753 139.422 71.0412 139.427 65.9356L139.438 52.0079L167.613 52.035C174.104 52.0404 174.504 52.3063 175.416 52.5233C176.485 52.7783 177.17 53.2341 177.523 53.9123C177.76 54.3735 178.16 55.7353 178.155 59.7015V61.9315L183.787 65.6481L183.829 17.7447L178.187 21.4504V21.4558Z" fill="#D01126"/>
<path d="M101.548 40.424C101.548 38.0204 99.6565 36.078 97.3278 36.078C96.9801 36.078 96.643 36.1215 96.3216 36.2028C96.1846 33.9295 94.3512 32.1282 92.1069 32.1282C89.8626 32.1282 88.0186 33.9403 87.8922 36.2245C87.5445 36.1269 87.181 36.078 86.8016 36.078C84.4678 36.078 82.5817 38.0259 82.5817 40.424C82.5817 42.2579 83.688 43.8259 85.2475 44.4662C84.7944 45.1607 84.531 45.9908 84.531 46.8914C84.531 49.295 86.4223 51.2374 88.7509 51.2374C90.0944 51.2374 91.285 50.5918 92.0595 49.588C92.8339 50.5918 94.0246 51.2374 95.368 51.2374C97.7019 51.2374 99.588 49.2896 99.588 46.8914C99.588 45.9962 99.3245 45.1607 98.8715 44.4716C100.436 43.8368 101.543 42.2633 101.543 40.4295L101.548 40.424ZM97.9442 40.6356C97.7598 40.6953 97.5702 40.6139 97.4701 40.4566L93.15 41.8727C93.1711 41.9649 93.1869 42.0626 93.1869 42.1657C93.1869 42.1765 93.1869 42.182 93.1869 42.1874L96.2584 42.4641C96.311 42.361 96.4164 42.2959 96.5376 42.3067C96.6956 42.323 96.8115 42.4641 96.801 42.6269C96.7852 42.7896 96.6482 42.909 96.4902 42.8981C96.3637 42.8873 96.2689 42.7951 96.2373 42.6757L93.1711 42.399C93.15 42.5021 93.1184 42.5997 93.071 42.6865L95.4628 44.2057C95.5577 44.1081 95.7157 44.0809 95.8369 44.1623C95.9791 44.2546 96.0213 44.4445 95.937 44.591C95.8474 44.7375 95.663 44.7809 95.5208 44.694C95.4207 44.6289 95.368 44.515 95.3785 44.4011L92.9656 42.8656C92.9235 42.9253 92.8761 42.9795 92.8234 43.0284L95.642 46.7938C95.8053 46.7233 96.0055 46.7721 96.1161 46.924C96.2531 47.1085 96.2162 47.3689 96.0424 47.5046C95.8632 47.6456 95.6103 47.6076 95.4786 47.4286C95.3627 47.2767 95.3733 47.0705 95.4786 46.924L92.6601 43.1531C92.5758 43.2074 92.4809 43.2508 92.3861 43.2779L92.9393 46.4248C93.0657 46.4411 93.1764 46.5388 93.2027 46.6744C93.2343 46.8426 93.1237 47 92.9604 47.0325C92.797 47.0651 92.6443 46.9511 92.6127 46.7829C92.5916 46.6581 92.6443 46.5388 92.7391 46.4737L92.1859 43.3213C92.149 43.3213 92.1069 43.3268 92.07 43.3268C92.0279 43.3268 91.9857 43.3268 91.9488 43.3213L91.2323 46.5551C91.3219 46.6256 91.3693 46.745 91.3377 46.8643C91.3008 47.0271 91.1428 47.1356 90.9795 47.0976C90.8161 47.0596 90.716 46.8969 90.7529 46.7287C90.7845 46.593 90.9004 46.5008 91.0269 46.4899L91.7381 43.2779C91.6485 43.2508 91.5642 43.2128 91.4905 43.164L88.6772 47.1085C88.7878 47.2495 88.7983 47.4611 88.6877 47.6131C88.556 47.7975 88.3031 47.8355 88.124 47.6999C87.9449 47.5642 87.908 47.3038 88.0397 47.1193C88.1503 46.962 88.3453 46.9132 88.5139 46.9783L91.3272 43.0338C91.2692 42.985 91.2218 42.9307 91.1744 42.871L88.7667 44.4065C88.7667 44.5096 88.7246 44.6127 88.635 44.6723C88.5033 44.7592 88.3242 44.7157 88.2452 44.5747C88.1609 44.439 88.203 44.2546 88.34 44.1732C88.4559 44.1026 88.5981 44.1243 88.6877 44.2112L91.069 42.6974C91.0216 42.6052 90.9847 42.5021 90.9636 42.3936L87.9396 42.6648C87.908 42.7896 87.8079 42.8873 87.6762 42.9036C87.5129 42.9198 87.3654 42.7896 87.3495 42.6214C87.3337 42.4532 87.4602 42.3013 87.6235 42.285C87.7499 42.2742 87.8658 42.3447 87.9185 42.4532L90.9426 42.182C90.9426 42.182 90.9426 42.1657 90.9426 42.1548C90.9426 42.0517 90.9584 41.9486 90.9847 41.851L86.691 40.4457C86.5909 40.6031 86.4012 40.6845 86.2169 40.6248C86.0008 40.5542 85.8797 40.3155 85.9482 40.0931C86.0166 39.8706 86.2485 39.7458 86.4645 39.8164C86.6489 39.876 86.7595 40.0551 86.749 40.245L91.0532 41.6557C91.0901 41.5743 91.1375 41.4983 91.1902 41.4278L89.0196 39.4528C88.8932 39.5288 88.7299 39.5234 88.614 39.4148C88.4717 39.2846 88.4559 39.0622 88.5823 38.9157C88.7088 38.7692 88.9248 38.7529 89.067 38.8831C89.1829 38.9862 89.2093 39.1544 89.1513 39.2955L91.3272 41.2759C91.3957 41.2162 91.4747 41.1619 91.559 41.1185L90.3473 38.3568C90.1997 38.3948 90.0417 38.3189 89.9785 38.1724C89.9047 38.0042 89.9785 37.8088 90.1418 37.7329C90.3051 37.6569 90.4948 37.7329 90.5685 37.9011C90.6212 38.0204 90.6001 38.1507 90.5264 38.2483L91.7539 41.048C91.8224 41.0263 91.8962 41.01 91.9699 41.0046V36.4144C91.7908 36.3656 91.6591 36.2028 91.6591 36.0021C91.6591 35.7688 91.8435 35.5789 92.07 35.5789C92.2966 35.5789 92.4809 35.7688 92.4809 36.0021C92.4809 36.1974 92.3492 36.3656 92.1701 36.4144V41.0046C92.2544 41.01 92.3387 41.0317 92.4125 41.0534L93.6716 38.1778H93.6821C93.5768 38.091 93.5346 37.9336 93.5978 37.7926C93.6716 37.6244 93.8613 37.5484 94.0246 37.6244C94.1879 37.7003 94.2616 37.8957 94.1879 38.0639C94.1299 38.2049 93.9877 38.2755 93.8454 38.2538H93.856L92.5968 41.1294C92.6759 41.1728 92.7496 41.227 92.8181 41.2921L95.0098 39.3009C94.9518 39.1598 94.9781 38.9971 95.094 38.8886C95.2363 38.7583 95.4576 38.7692 95.584 38.9211C95.7105 39.0676 95.6999 39.2955 95.5524 39.4257C95.4365 39.5288 95.2732 39.5396 95.1467 39.4637L92.9604 41.4549C93.013 41.5254 93.0552 41.596 93.0921 41.6774L97.4227 40.2613C97.4121 40.0714 97.5228 39.8923 97.7072 39.8326C97.9232 39.7621 98.155 39.8869 98.2235 40.1093C98.292 40.3318 98.1708 40.5705 97.9548 40.6411L97.9442 40.6356Z" fill="#D01126"/>
</svg>
