<?xml version="1.0" encoding="UTF-8" standalone="no"?>
<!DOCTYPE svg PUBLIC "-//W3C//DTD SVG 1.1//EN" "http://www.w3.org/Graphics/SVG/1.1/DTD/svg11.dtd">
<svg width="100%" height="100%" viewBox="0 0 561 329" version="1.1" xmlns="http://www.w3.org/2000/svg" xmlns:xlink="http://www.w3.org/1999/xlink" xml:space="preserve" xmlns:serif="http://www.serif.com/" style="fill-rule:evenodd;clip-rule:evenodd;stroke-linejoin:round;stroke-miterlimit:2;">
    <g transform="matrix(1,0,0,1,-2123.02,-4456.93)">
        <g transform="matrix(2.66667,0,0,2.66667,0,0)">
            <g transform="matrix(1,0,0,1,0,1009.49)">
                <path d="M816.357,668.721L809.649,668.721L809.649,674.965L816.357,674.965L816.357,668.721ZM807.145,668.721L800.463,668.721L800.463,674.965L807.145,674.965L807.145,668.721ZM818.859,666.373L818.859,678.706L816.357,678.706L816.357,677.313L809.648,677.313L809.648,685.517L807.145,685.517L807.145,677.313L800.463,677.313L800.463,678.835L798.064,678.835L798.064,666.373L807.145,666.373L807.145,661.884L809.648,661.884L809.648,666.373L818.859,666.373Z" style="fill:rgb(4,60,131);fill-rule:nonzero;"/>
            </g>
            <g transform="matrix(1,0,0,1,844.612,1681.05)">
                <path d="M0,4.283L0,2.529L-2.89,2.529L-2.89,0.49L0,0.49L0,-0.928L2.219,-0.928L2.219,0.49L5.573,0.49L5.573,2.529L2.219,2.529L2.219,4.283L0,4.283ZM-2.012,-5.908L-4.747,-5.908L-4.747,-8.024L-2.012,-8.024L-2.012,-9.701L0.336,-9.701L0.336,-8.024L6.089,-8.024L6.089,-5.908L0.336,-5.908L0.336,-4.153L-2.012,-4.153L-2.012,-5.908ZM-10.346,-0.928L-10.346,0.594L-7.586,0.594L-7.586,2.632L-10.346,2.632L-10.346,4.283L-12.59,4.283L-12.59,2.632L-16.048,2.632L-16.048,0.594L-12.59,0.594L-12.59,-0.928L-10.346,-0.928ZM-10.836,-5.908L-16.512,-5.908L-16.512,-8.024L-10.836,-8.024L-10.836,-9.701L-8.488,-9.701L-8.488,-8.024L-5.676,-8.024L-5.676,-5.908L-8.488,-5.908L-8.488,-4.153L-10.836,-4.153L-10.836,-5.908ZM-4.102,6.94L-4.102,8.721L4.85,8.721L4.85,10.733L-4.102,10.733L-4.102,13.984L-6.45,13.984L-6.45,10.733L-15.326,10.733L-15.326,8.721L-6.45,8.721L-6.45,6.94L-16.693,6.94L-16.693,4.851L-6.45,4.851L-6.45,-1.496L-16.048,-1.496L-16.048,-3.508L5.728,-3.508L5.728,-1.496L-4.102,-1.496L-4.102,4.851L6.398,4.851L6.398,6.94L-4.102,6.94Z" style="fill:rgb(4,60,131);fill-rule:nonzero;"/>
            </g>
            <g transform="matrix(1,0,0,1,870.599,1683.91)">
                <path d="M0,-0.026C-0.233,-1.135 -0.387,-2.322 -0.465,-3.509L-6.734,-3.509L-6.734,-0.026L0,-0.026ZM-6.734,-5.728L6.76,-5.728L6.76,-9.082L-6.734,-9.082L-6.734,-5.728ZM3.122,2.219C4.386,5.934 6.424,8.488 8.333,8.462C9.03,8.462 9.314,7.379 9.443,4.747C9.985,5.237 10.887,5.702 11.532,5.908C11.171,9.881 10.242,10.836 8.23,10.836C4.85,10.836 1.986,7.25 0.516,2.219L-6.734,2.219L-6.734,7.946L-0.594,6.553C-0.594,7.224 -0.465,8.282 -0.336,8.823C-7.56,10.604 -8.643,10.862 -9.34,11.275C-9.521,10.63 -10.036,9.598 -10.449,9.107C-9.907,8.823 -9.237,8.178 -9.237,7.095L-9.237,-11.301L9.185,-11.301L9.185,-3.509L2.012,-3.509C2.09,-2.322 2.27,-1.11 2.502,-0.026L11.042,-0.026L11.042,2.219L3.122,2.219Z" style="fill:rgb(4,60,131);fill-rule:nonzero;"/>
            </g>
            <g transform="matrix(1,0,0,1,0,1010.7)">
                <path d="M898.88,671.481L896.455,671.481L896.455,673.7L898.88,673.7L898.88,671.481ZM900.557,675.068L894.855,675.068L894.855,670.114L900.557,670.114L900.557,675.068ZM907.833,670.088C907.214,672.436 906.259,674.474 905.072,676.203C905.511,677.313 906.078,678.009 906.749,678.138C907.059,678.242 907.291,677.184 907.446,675.584C907.833,675.971 908.555,676.487 908.968,676.719C908.607,679.66 907.523,680.666 906.027,680.073C905.072,679.815 904.298,679.067 903.679,677.932C902.776,678.912 901.744,679.789 900.609,680.512C900.351,680.15 899.654,679.376 899.267,679.041C899.964,678.628 900.635,678.164 901.254,677.648C898.725,678.061 896.12,678.551 894.055,678.912L893.797,677.106C895.681,676.848 898.493,676.409 901.28,675.971L901.331,677.57C901.899,677.08 902.415,676.539 902.879,675.945C902.26,673.984 901.873,671.481 901.615,668.747L894.055,668.747L894.055,666.967L901.46,666.967C901.408,666.141 901.357,665.316 901.305,664.49L903.292,664.49C903.318,665.316 903.37,666.167 903.421,666.967L907.059,666.967C906.543,666.373 905.433,665.651 904.505,665.186L905.614,664.077C906.543,664.515 907.678,665.212 908.246,665.78L907.111,666.967L908.684,666.967L908.684,668.747L903.576,668.747C903.756,670.604 904.015,672.359 904.324,673.804C905.021,672.565 905.537,671.198 905.923,669.702L907.833,670.088ZM909.742,663.948L892.869,663.948L892.869,681.105L909.742,681.105L909.742,663.948ZM912.116,661.781L912.116,684.407L909.742,684.407L909.742,683.273L892.868,683.273L892.868,684.407L890.598,684.407L890.598,661.781L912.116,661.781Z" style="fill:rgb(4,60,131);fill-rule:nonzero;"/>
            </g>
            <g transform="matrix(1,0,0,1,819.301,1713.57)">
                <path d="M0,18.215L0,20.537L-22.911,20.537L-22.911,18.215L-12.694,18.215L-12.694,12.281L-20.047,12.281L-20.047,9.985L-12.694,9.985L-12.694,4.824L-18.422,4.824C-19.221,6.373 -20.073,7.74 -20.976,8.824C-21.466,8.411 -22.524,7.714 -23.169,7.379C-21.079,5.186 -19.453,1.651 -18.499,-1.961L-16.022,-1.393C-16.409,-0.078 -16.873,1.238 -17.364,2.477L-12.694,2.477L-12.694,-2.322L-10.217,-2.322L-10.217,2.477L-1.238,2.477L-1.238,4.824L-10.217,4.824L-10.217,9.985L-2.193,9.985L-2.193,12.281L-10.217,12.281L-10.217,18.215L0,18.215Z" style="fill:rgb(4,60,131);fill-rule:nonzero;"/>
            </g>
            <g transform="matrix(1,0,0,1,0,1090.61)">
                <path d="M844.873,633.361L832.721,633.361L832.721,639.914L844.873,639.914L844.873,633.361ZM832.722,630.987L844.874,630.987L844.874,624.692L832.722,624.692L832.722,630.987ZM847.427,622.266L847.427,643.913L844.873,643.913L844.873,642.339L832.722,642.339L832.722,644.016L830.27,644.016L830.27,622.266L847.427,622.266Z" style="fill:rgb(4,60,131);fill-rule:nonzero;"/>
            </g>
            <g transform="matrix(1,0,0,1,876.071,1720.72)">
                <path d="M0,4.8C1.78,7.328 4.18,10.785 5.392,12.85L3.199,14.088C2.116,11.998 -0.232,8.438 -2.012,5.78L0,4.8ZM-2.09,-0.773C-2.09,0.156 -2.115,1.11 -2.219,2.091L1.187,2.091L1.187,-3.276L-2.09,-3.276L-2.09,-0.773ZM5.47,2.091L5.47,4.361L-2.528,4.361C-3.251,8.025 -5.16,11.663 -9.83,14.294C-10.166,13.804 -10.965,12.875 -11.533,12.437C-7.276,10.321 -5.599,7.38 -4.954,4.361L-10.578,4.361L-10.578,2.091L-4.618,2.091C-4.541,1.11 -4.515,0.13 -4.515,-0.773L-4.515,-3.276L-9.262,-3.276L-9.262,-5.495L-4.515,-5.495L-4.515,-9.494L-2.09,-9.494L-2.09,-5.495L3.535,-5.495L3.535,2.091L5.47,2.091ZM-10.965,0.259C-11.223,-0.876 -11.894,-2.631 -12.59,-4.101L-12.59,14.165L-14.938,14.165L-14.938,-9.494L-12.59,-9.494L-12.59,-4.746L-11.172,-5.34C-10.372,-3.843 -9.494,-1.831 -9.211,-0.593L-10.965,0.259ZM-18.499,2.116C-17.854,0.388 -17.389,-2.45 -17.209,-4.514L-15.454,-4.256C-15.583,-2.14 -16.048,0.853 -16.693,2.736L-18.499,2.116Z" style="fill:rgb(4,60,131);fill-rule:nonzero;"/>
            </g>
            <g transform="matrix(1,0,0,1,910.597,1721.47)">
                <path d="M0,2.967C-0.052,2.632 -0.129,2.296 -0.206,1.883C-4.231,2.4 -4.928,2.555 -5.367,2.735C-5.47,2.348 -5.753,1.368 -5.986,0.852C-5.496,0.749 -5.005,0.232 -4.386,-0.49C-4.051,-0.877 -3.354,-1.754 -2.58,-2.889C-4.747,-2.58 -5.264,-2.451 -5.599,-2.322C-5.676,-2.709 -5.986,-3.663 -6.218,-4.128C-5.857,-4.231 -5.547,-4.644 -5.186,-5.211C-4.799,-5.779 -3.612,-7.947 -2.993,-10.036L-1.032,-9.417C-1.729,-7.714 -2.684,-5.882 -3.638,-4.463L-1.445,-4.67C-1.006,-5.392 -0.619,-6.14 -0.258,-6.862L1.548,-5.882C0.18,-3.586 -1.496,-1.264 -3.199,0.593L-0.568,0.336C-0.697,-0.232 -0.878,-0.774 -1.032,-1.264L0.542,-1.677C0.98,-0.387 1.445,1.342 1.651,2.477L0,2.967ZM-5.753,6.579C-3.302,7.818 -0.077,9.727 1.574,11.043L0.051,12.797C-1.496,11.456 -4.67,9.417 -7.173,8.076L-5.753,6.579ZM-8.566,-2.141L-11.275,-2.141L-11.275,0.155L-8.566,0.155L-8.566,-2.141ZM-8.566,-6.089L-11.275,-6.089L-11.275,-3.844L-8.566,-3.844L-8.566,-6.089ZM-6.45,1.961L-13.313,1.961L-13.313,-7.895L-11.249,-7.895C-11.043,-8.72 -10.836,-9.701 -10.759,-10.398L-8.566,-10.01C-8.85,-9.288 -9.134,-8.54 -9.366,-7.895L-6.45,-7.895L-6.45,1.961ZM-15.326,2.735C-15.351,2.4 -15.429,2.013 -15.48,1.574C-19.505,2.142 -20.176,2.323 -20.614,2.503C-20.692,2.116 -21.002,1.161 -21.234,0.671C-20.743,0.568 -20.253,0.052 -19.634,-0.697C-19.324,-1.058 -18.654,-1.935 -17.906,-3.044C-19.789,-2.812 -20.253,-2.683 -20.563,-2.528C-20.666,-2.915 -20.976,-3.844 -21.156,-4.309C-20.847,-4.386 -20.486,-4.799 -20.125,-5.366C-19.789,-5.882 -18.602,-8.024 -18.009,-10.036L-16.125,-9.34C-16.796,-7.714 -17.699,-5.96 -18.628,-4.592L-16.822,-4.747C-16.357,-5.521 -15.945,-6.321 -15.558,-7.095L-13.829,-6.14C-15.145,-3.87 -16.77,-1.548 -18.422,0.336L-15.79,0.026C-15.919,-0.568 -16.074,-1.186 -16.177,-1.728L-14.577,-2.064C-14.216,-0.671 -13.804,1.11 -13.648,2.323L-15.326,2.735ZM-8.669,3.999L1.574,3.999L1.574,5.986L-8.669,5.986L-8.669,13.365L-11.068,13.365L-11.068,5.986L-21.388,5.986L-21.388,3.999L-11.068,3.999L-11.068,2.58L-8.669,2.58L-8.669,3.999ZM-12.23,7.586C-14.087,9.805 -17.364,11.713 -20.408,12.642C-20.77,12.023 -21.466,11.095 -22.008,10.63C-19.067,9.985 -15.893,8.488 -14.216,6.786L-12.23,7.586Z" style="fill:rgb(4,60,131);fill-rule:nonzero;"/>
            </g>
            <g transform="matrix(1,0,0,1,803.136,1764.59)">
                <path d="M0,2.061L-1.184,-2.31L-2.376,2.061L0,2.061ZM-2.96,-4.261L0.585,-4.261L4.035,6.322L1.162,6.322L0.541,4.035L-2.916,4.035L-3.537,6.322L-6.41,6.322L-2.96,-4.261Z" style="fill:rgb(4,60,131);fill-rule:nonzero;"/>
            </g>
            <g transform="matrix(1,0,0,1,817.089,1762.24)">
                <path d="M0,6.752C0.803,6.752 1.359,6.204 1.359,5.393C1.359,4.589 0.774,4.034 -0.059,4.034L-1.922,4.034L-1.922,6.752L0,6.752ZM-0.234,2.381C0.468,2.381 0.95,1.9 0.95,1.19C0.95,0.481 0.497,-0.002 -0.168,-0.002L-1.922,-0.002L-1.922,2.381L-0.234,2.381ZM-4.657,-1.916L0.292,-1.916C2.28,-1.916 3.64,-0.871 3.64,0.657C3.64,1.818 2.85,2.702 1.593,3.061C3.15,3.39 4.143,4.422 4.143,5.803C4.143,7.498 2.645,8.668 0.46,8.668L-4.657,8.668L-4.657,-1.916Z" style="fill:rgb(4,60,131);fill-rule:nonzero;"/>
            </g>
            <g transform="matrix(1,0,0,1,828.37,1767.74)">
                <path d="M0,-1.55C-0.183,-2.602 -0.79,-3.098 -1.682,-3.098C-2.573,-3.098 -3.18,-2.602 -3.369,-1.55L0,-1.55ZM-5.958,-0.775C-5.958,-3.252 -4.247,-4.956 -1.762,-4.956C0.731,-4.956 2.434,-3.252 2.434,-0.775L2.434,-0.036L-3.377,-0.036C-3.201,1.045 -2.587,1.55 -1.659,1.55C-0.995,1.55 -0.417,1.279 -0.212,0.869L2.324,0.869C1.849,2.375 0.183,3.406 -1.762,3.406C-4.247,3.406 -5.958,1.702 -5.958,-0.775" style="fill:rgb(4,60,131);fill-rule:nonzero;"/>
            </g>
            <g transform="matrix(1,0,0,1,835.552,1764.6)">
                <path d="M0,4.722C0.826,4.722 1.44,4.225 1.44,3.494L1.44,2.96L0.176,2.96C-0.57,2.96 -1.089,3.319 -1.089,3.873C-1.089,4.379 -0.68,4.722 0,4.722M0.19,0.111C-0.489,0.111 -0.87,0.374 -0.979,0.695L-3.355,0.695C-3.143,-0.745 -1.886,-1.82 0.3,-1.82C2.536,-1.82 4.027,-0.68 4.027,0.973L4.027,6.308L1.44,6.308L1.44,5.205C0.958,6.038 0.095,6.542 -0.994,6.542C-2.544,6.542 -3.632,5.526 -3.632,4.049C-3.632,2.281 -2.083,1.499 0.176,1.499L1.44,1.499L1.44,0.973C1.44,0.461 0.965,0.111 0.19,0.111" style="fill:rgb(4,60,131);fill-rule:nonzero;"/>
            </g>
            <g transform="matrix(1,0,0,1,841.302,1766.08)">
                <path d="M0,2.002L0,-3.063L2.639,-3.063L2.639,1.534C2.639,2.361 3.172,2.931 3.917,2.931C4.7,2.931 5.219,2.309 5.219,1.418L5.219,-3.063L7.858,-3.063L7.858,4.831L5.219,4.831L5.219,3.515C4.744,4.479 3.808,5.065 2.675,5.065C1.023,5.065 0,3.808 0,2.002" style="fill:rgb(4,60,131);fill-rule:nonzero;"/>
            </g>
            <g transform="matrix(1,0,0,1,851.861,1763.65)">
                <path d="M0,4.692L0,1.301L-1.243,1.301L-1.243,-0.636L0,-0.636L0,-2.682L2.645,-2.682L2.645,-0.636L4.283,-0.636L4.283,1.301L2.645,1.301L2.645,4.692C2.645,5.233 2.96,5.467 3.72,5.467C3.794,5.467 3.917,5.46 4.283,5.416L4.283,7.265C3.896,7.345 3.464,7.374 3.143,7.374C1.242,7.374 0,6.278 0,4.692" style="fill:rgb(4,60,131);fill-rule:nonzero;"/>
            </g>
            <g transform="matrix(1,0,0,1,0,1173.23)">
                <path d="M857.797,589.788L860.436,589.788L860.436,597.682L857.797,597.682L857.797,589.788ZM859.112,585.981C859.894,585.981 860.501,586.572 860.501,587.347C860.501,588.115 859.894,588.707 859.112,588.707C858.33,588.707 857.723,588.115 857.723,587.347C857.723,586.572 858.33,585.981 859.112,585.981" style="fill:rgb(4,60,131);fill-rule:nonzero;"/>
            </g>
            <g transform="matrix(1,0,0,1,866.38,1770.91)">
                <path d="M0,-11.285C0.336,-11.285 0.738,-11.256 1.126,-11.176L1.126,-9.422C0.936,-9.465 0.724,-9.472 0.592,-9.472C-0.212,-9.472 -0.527,-9.151 -0.527,-8.603L-0.527,-7.894L1.038,-7.894L1.038,-5.957L-0.527,-5.957L-0.527,0L-3.165,0L-3.165,-5.957L-4.481,-5.957L-4.481,-7.894L-3.165,-7.894L-3.165,-8.603C-3.165,-10.189 -1.945,-11.285 0,-11.285" style="fill:rgb(4,60,131);fill-rule:nonzero;"/>
            </g>
            <g transform="matrix(1,0,0,1,868.756,1766.08)">
                <path d="M0,2.002L0,-3.063L2.639,-3.063L2.639,1.534C2.639,2.361 3.172,2.931 3.917,2.931C4.7,2.931 5.219,2.309 5.219,1.418L5.219,-3.063L7.858,-3.063L7.858,4.831L5.219,4.831L5.219,3.515C4.744,4.479 3.808,5.065 2.675,5.065C1.023,5.065 0,3.808 0,2.002" style="fill:rgb(4,60,131);fill-rule:nonzero;"/>
            </g>
            <g transform="matrix(1,0,0,1,0,1173.88)">
                <rect x="878.577" y="585.981" width="2.639" height="11.051" style="fill:rgb(4,60,131);"/>
            </g>
            <g transform="matrix(1,0,0,1,889.466,1768.72)">
                <path d="M0,-6.199L-3.033,-6.199L-3.033,-8.391L5.767,-8.391L5.767,-6.199L2.734,-6.199L2.734,2.192L0,2.192L0,-6.199Z" style="fill:rgb(4,60,131);fill-rule:nonzero;"/>
            </g>
            <g transform="matrix(1,0,0,1,899.046,1764.6)">
                <path d="M0,4.722C0.826,4.722 1.44,4.225 1.44,3.494L1.44,2.96L0.176,2.96C-0.57,2.96 -1.089,3.319 -1.089,3.873C-1.089,4.379 -0.68,4.722 0,4.722M0.19,0.111C-0.49,0.111 -0.87,0.374 -0.979,0.695L-3.355,0.695C-3.143,-0.745 -1.886,-1.82 0.3,-1.82C2.536,-1.82 4.027,-0.68 4.027,0.973L4.027,6.308L1.44,6.308L1.44,5.205C0.958,6.038 0.096,6.542 -0.994,6.542C-2.544,6.542 -3.632,5.526 -3.632,4.049C-3.632,2.281 -2.083,1.499 0.176,1.499L1.44,1.499L1.44,0.973C1.44,0.461 0.965,0.111 0.19,0.111" style="fill:rgb(4,60,131);fill-rule:nonzero;"/>
            </g>
            <g transform="matrix(1,0,0,1,0,1173.23)">
                <path d="M904.913,589.788L907.552,589.788L907.552,597.682L904.913,597.682L904.913,589.788ZM906.228,585.981C907.01,585.981 907.617,586.572 907.617,587.347C907.617,588.115 907.01,588.707 906.228,588.707C905.446,588.707 904.839,588.115 904.839,587.347C904.839,586.572 905.446,585.981 906.228,585.981" style="fill:rgb(4,60,131);fill-rule:nonzero;"/>
            </g>
            <g transform="matrix(1,0,0,1,908.913,1770.91)">
                <path d="M0,-7.894L2.683,-7.894L3.794,-2.521L4.926,-7.894L7.573,-7.894L8.713,-2.492L9.817,-7.894L12.499,-7.894L10.211,0L7.565,0L6.249,-5.657L4.942,0L2.288,0L0,-7.894Z" style="fill:rgb(4,60,131);fill-rule:nonzero;"/>
            </g>
            <g transform="matrix(1,0,0,1,925.769,1764.6)">
                <path d="M0,4.722C0.826,4.722 1.44,4.225 1.44,3.494L1.44,2.96L0.176,2.96C-0.57,2.96 -1.089,3.319 -1.089,3.873C-1.089,4.379 -0.68,4.722 0,4.722M0.19,0.111C-0.489,0.111 -0.87,0.374 -0.979,0.695L-3.355,0.695C-3.143,-0.745 -1.886,-1.82 0.3,-1.82C2.536,-1.82 4.027,-0.68 4.027,0.973L4.027,6.308L1.44,6.308L1.44,5.205C0.958,6.038 0.095,6.542 -0.994,6.542C-2.544,6.542 -3.632,5.526 -3.632,4.049C-3.632,2.281 -2.083,1.499 0.176,1.499L1.44,1.499L1.44,0.973C1.44,0.461 0.965,0.111 0.19,0.111" style="fill:rgb(4,60,131);fill-rule:nonzero;"/>
            </g>
            <g transform="matrix(1,0,0,1,935.575,1768.78)">
                <path d="M0,-3.86C-0.782,-3.86 -1.301,-3.239 -1.301,-2.346L-1.301,2.134L-3.94,2.134L-3.94,-5.76L-1.301,-5.76L-1.301,-4.444C-0.825,-5.408 0.11,-5.994 1.243,-5.994C2.895,-5.994 3.918,-4.736 3.918,-2.931L3.918,2.134L1.28,2.134L1.28,-2.463C1.28,-3.29 0.745,-3.86 0,-3.86" style="fill:rgb(4,60,131);fill-rule:nonzero;"/>
            </g>
            <g transform="matrix(1,0,0,1,947.622,1768.72)">
                <path d="M0,-6.199L-3.033,-6.199L-3.033,-8.391L5.767,-8.391L5.767,-6.199L2.734,-6.199L2.734,2.192L0,2.192L0,-6.199Z" style="fill:rgb(4,60,131);fill-rule:nonzero;"/>
            </g>
            <g transform="matrix(1,0,0,1,957.845,1764.78)">
                <path d="M0,4.37C0.979,4.37 1.652,3.479 1.652,2.185C1.652,0.891 0.979,-0.001 0,-0.001C-0.979,-0.001 -1.652,0.891 -1.652,2.185C-1.652,3.479 -0.979,4.37 0,4.37M-4.335,2.185C-4.335,-0.293 -2.565,-1.996 0,-1.996C2.565,-1.996 4.335,-0.293 4.335,2.185C4.335,4.662 2.565,6.366 0,6.366C-2.565,6.366 -4.335,4.662 -4.335,2.185" style="fill:rgb(4,60,131);fill-rule:nonzero;"/>
            </g>
            <g transform="matrix(1,0,0,1,967.747,1761.99)">
                <path d="M0,7.017C1.023,7.017 1.732,6.184 1.732,4.97C1.732,3.756 1.023,2.923 0,2.923C-1.023,2.923 -1.717,3.756 -1.717,4.97C-1.717,6.184 -1.023,7.017 0,7.017M-4.4,4.97C-4.4,2.493 -2.858,0.789 -0.878,0.789C0.306,0.789 1.206,1.404 1.732,2.426L1.732,-2.134L4.371,-2.134L4.371,8.917L1.732,8.917L1.732,7.514C1.206,8.536 0.314,9.151 -0.878,9.151C-2.858,9.151 -4.4,7.447 -4.4,4.97" style="fill:rgb(4,60,131);fill-rule:nonzero;"/>
            </g>
            <g transform="matrix(1,0,0,1,977.266,1764.6)">
                <path d="M0,4.722C0.826,4.722 1.44,4.225 1.44,3.494L1.44,2.96L0.176,2.96C-0.57,2.96 -1.089,3.319 -1.089,3.873C-1.089,4.379 -0.68,4.722 0,4.722M0.19,0.111C-0.489,0.111 -0.87,0.374 -0.979,0.695L-3.355,0.695C-3.143,-0.745 -1.886,-1.82 0.3,-1.82C2.536,-1.82 4.027,-0.68 4.027,0.973L4.027,6.308L1.44,6.308L1.44,5.205C0.958,6.038 0.095,6.542 -0.994,6.542C-2.544,6.542 -3.632,5.526 -3.632,4.049C-3.632,2.281 -2.083,1.499 0.176,1.499L1.44,1.499L1.44,0.973C1.44,0.461 0.965,0.111 0.19,0.111" style="fill:rgb(4,60,131);fill-rule:nonzero;"/>
            </g>
            <g transform="matrix(1,0,0,1,985.246,1765.69)">
                <path d="M0,5.235L-2.953,-2.675L-0.131,-2.675L1.286,2.771L2.705,-2.675L5.526,-2.675L1.572,7.91L-1.067,7.91L0,5.235Z" style="fill:rgb(4,60,131);fill-rule:nonzero;"/>
            </g>
            <g transform="matrix(1,0,0,1,991.713,1773.85)">
                <path d="M0,-4.758L2.507,-4.758L1.031,0L-0.68,0L0,-4.758Z" style="fill:rgb(4,60,131);fill-rule:nonzero;"/>
            </g>
            <g transform="matrix(1,0,0,1,803.136,1787.85)">
                <path d="M0,2.061L-1.184,-2.31L-2.376,2.061L0,2.061ZM-2.96,-4.261L0.585,-4.261L4.035,6.322L1.162,6.322L0.541,4.035L-2.916,4.035L-3.537,6.322L-6.41,6.322L-2.96,-4.261Z" style="fill:rgb(4,60,131);fill-rule:nonzero;"/>
            </g>
            <g transform="matrix(1,0,0,1,817.089,1785.5)">
                <path d="M0,6.752C0.803,6.752 1.359,6.204 1.359,5.393C1.359,4.589 0.774,4.034 -0.059,4.034L-1.922,4.034L-1.922,6.752L0,6.752ZM-0.234,2.381C0.468,2.381 0.95,1.9 0.95,1.19C0.95,0.481 0.497,-0.002 -0.168,-0.002L-1.922,-0.002L-1.922,2.381L-0.234,2.381ZM-4.657,-1.916L0.292,-1.916C2.28,-1.916 3.64,-0.871 3.64,0.657C3.64,1.818 2.85,2.704 1.593,3.061C3.15,3.39 4.143,4.422 4.143,5.803C4.143,7.498 2.645,8.668 0.46,8.668L-4.657,8.668L-4.657,-1.916Z" style="fill:rgb(4,60,131);fill-rule:nonzero;"/>
            </g>
            <g transform="matrix(1,0,0,1,828.37,1791)">
                <path d="M0,-1.55C-0.183,-2.602 -0.79,-3.099 -1.682,-3.099C-2.573,-3.099 -3.18,-2.602 -3.369,-1.55L0,-1.55ZM-5.958,-0.775C-5.958,-3.252 -4.247,-4.956 -1.762,-4.956C0.731,-4.956 2.434,-3.252 2.434,-0.775L2.434,-0.036L-3.377,-0.036C-3.201,1.045 -2.587,1.55 -1.659,1.55C-0.995,1.55 -0.417,1.279 -0.212,0.869L2.324,0.869C1.849,2.375 0.183,3.406 -1.762,3.406C-4.247,3.406 -5.958,1.702 -5.958,-0.775" style="fill:rgb(4,60,131);fill-rule:nonzero;"/>
            </g>
            <g transform="matrix(1,0,0,1,833.075,1786.91)">
                <path d="M0,4.691L0,1.3L-1.243,1.3L-1.243,-0.637L0,-0.637L0,-2.684L2.645,-2.684L2.645,-0.637L4.283,-0.637L4.283,1.3L2.645,1.3L2.645,4.691C2.645,5.232 2.96,5.466 3.72,5.466C3.794,5.466 3.917,5.459 4.283,5.415L4.283,7.264C3.896,7.344 3.464,7.375 3.143,7.375C1.242,7.375 0,6.277 0,4.691" style="fill:rgb(4,60,131);fill-rule:nonzero;"/>
            </g>
            <g transform="matrix(1,0,0,1,839.749,1786.91)">
                <path d="M0,4.691L0,1.3L-1.243,1.3L-1.243,-0.637L0,-0.637L0,-2.684L2.645,-2.684L2.645,-0.637L4.283,-0.637L4.283,1.3L2.645,1.3L2.645,4.691C2.645,5.232 2.96,5.466 3.72,5.466C3.794,5.466 3.917,5.459 4.283,5.415L4.283,7.264C3.896,7.344 3.464,7.375 3.143,7.375C1.242,7.375 0,6.277 0,4.691" style="fill:rgb(4,60,131);fill-rule:nonzero;"/>
            </g>
            <g transform="matrix(1,0,0,1,851.1,1791)">
                <path d="M0,-1.55C-0.183,-2.602 -0.79,-3.099 -1.681,-3.099C-2.573,-3.099 -3.18,-2.602 -3.369,-1.55L0,-1.55ZM-5.957,-0.775C-5.957,-3.252 -4.247,-4.956 -1.762,-4.956C0.731,-4.956 2.434,-3.252 2.434,-0.775L2.434,-0.036L-3.377,-0.036C-3.202,1.045 -2.587,1.55 -1.659,1.55C-0.994,1.55 -0.417,1.279 -0.212,0.869L2.324,0.869C1.849,2.375 0.183,3.406 -1.762,3.406C-4.247,3.406 -5.957,1.702 -5.957,-0.775" style="fill:rgb(4,60,131);fill-rule:nonzero;"/>
            </g>
            <g transform="matrix(1,0,0,1,855.095,1793.94)">
                <path d="M0,-7.66L2.639,-7.66L2.639,-6.321C3.004,-7.286 4.013,-7.894 4.832,-7.894C5.08,-7.894 5.394,-7.836 5.65,-7.74L5.65,-5.628C5.387,-5.68 5.058,-5.693 4.824,-5.693C3.465,-5.693 2.639,-5.029 2.639,-4.056L2.639,0.234L0,0.234L0,-7.66Z" style="fill:rgb(4,60,131);fill-rule:nonzero;"/>
            </g>
            <g transform="matrix(1,0,0,1,868.496,1791.98)">
                <path d="M0,-6.199L-3.033,-6.199L-3.033,-8.391L5.767,-8.391L5.767,-6.199L2.734,-6.199L2.734,2.192L0,2.192L0,-6.199Z" style="fill:rgb(4,60,131);fill-rule:nonzero;"/>
            </g>
            <g transform="matrix(1,0,0,1,878.076,1787.86)">
                <path d="M0,4.722C0.826,4.722 1.44,4.225 1.44,3.494L1.44,2.96L0.176,2.96C-0.57,2.96 -1.089,3.319 -1.089,3.873C-1.089,4.379 -0.679,4.722 0,4.722M0.19,0.109C-0.489,0.109 -0.87,0.374 -0.979,0.695L-3.355,0.695C-3.143,-0.745 -1.886,-1.82 0.3,-1.82C2.536,-1.82 4.027,-0.68 4.027,0.973L4.027,6.308L1.44,6.308L1.44,5.205C0.958,6.038 0.095,6.542 -0.994,6.542C-2.544,6.542 -3.632,5.526 -3.632,4.049C-3.632,2.281 -2.083,1.499 0.176,1.499L1.44,1.499L1.44,0.973C1.44,0.461 0.965,0.109 0.19,0.109" style="fill:rgb(4,60,131);fill-rule:nonzero;"/>
            </g>
            <g transform="matrix(1,0,0,1,0,1219.75)">
                <path d="M883.943,566.527L886.582,566.527L886.582,574.421L883.943,574.421L883.943,566.527ZM885.259,562.72C886.041,562.72 886.648,563.313 886.648,564.086C886.648,564.854 886.041,565.447 885.259,565.447C884.477,565.447 883.87,564.854 883.87,564.086C883.87,563.313 884.477,562.72 885.259,562.72" style="fill:rgb(4,60,131);fill-rule:nonzero;"/>
            </g>
            <g transform="matrix(1,0,0,1,887.943,1794.17)">
                <path d="M0,-7.894L2.683,-7.894L3.794,-2.521L4.926,-7.894L7.573,-7.894L8.713,-2.492L9.817,-7.894L12.499,-7.894L10.211,0L7.565,0L6.249,-5.657L4.941,0L2.288,0L0,-7.894Z" style="fill:rgb(4,60,131);fill-rule:nonzero;"/>
            </g>
            <g transform="matrix(1,0,0,1,904.799,1787.86)">
                <path d="M0,4.722C0.826,4.722 1.44,4.225 1.44,3.494L1.44,2.96L0.176,2.96C-0.57,2.96 -1.089,3.319 -1.089,3.873C-1.089,4.379 -0.68,4.722 0,4.722M0.19,0.109C-0.49,0.109 -0.87,0.374 -0.979,0.695L-3.355,0.695C-3.143,-0.745 -1.886,-1.82 0.3,-1.82C2.536,-1.82 4.027,-0.68 4.027,0.973L4.027,6.308L1.44,6.308L1.44,5.205C0.958,6.038 0.096,6.542 -0.994,6.542C-2.544,6.542 -3.632,5.526 -3.632,4.049C-3.632,2.281 -2.083,1.499 0.176,1.499L1.44,1.499L1.44,0.973C1.44,0.461 0.965,0.109 0.19,0.109" style="fill:rgb(4,60,131);fill-rule:nonzero;"/>
            </g>
            <g transform="matrix(1,0,0,1,914.606,1792.04)">
                <path d="M0,-3.86C-0.782,-3.86 -1.301,-3.239 -1.301,-2.346L-1.301,2.134L-3.94,2.134L-3.94,-5.76L-1.301,-5.76L-1.301,-4.444C-0.826,-5.408 0.11,-5.994 1.243,-5.994C2.895,-5.994 3.918,-4.736 3.918,-2.931L3.918,2.134L1.28,2.134L1.28,-2.463C1.28,-3.29 0.746,-3.86 0,-3.86" style="fill:rgb(4,60,131);fill-rule:nonzero;"/>
            </g>
            <g transform="matrix(1,0,0,1,926.652,1791.98)">
                <path d="M0,-6.199L-3.033,-6.199L-3.033,-8.391L5.767,-8.391L5.767,-6.199L2.734,-6.199L2.734,2.192L0,2.192L0,-6.199Z" style="fill:rgb(4,60,131);fill-rule:nonzero;"/>
            </g>
            <g transform="matrix(1,0,0,1,936.876,1788.04)">
                <path d="M0,4.37C0.979,4.37 1.652,3.479 1.652,2.185C1.652,0.891 0.979,-0.001 0,-0.001C-0.979,-0.001 -1.652,0.891 -1.652,2.185C-1.652,3.479 -0.979,4.37 0,4.37M-4.335,2.185C-4.335,-0.293 -2.565,-1.996 0,-1.996C2.565,-1.996 4.335,-0.293 4.335,2.185C4.335,4.662 2.565,6.366 0,6.366C-2.565,6.366 -4.335,4.662 -4.335,2.185" style="fill:rgb(4,60,131);fill-rule:nonzero;"/>
            </g>
            <g transform="matrix(1,0,0,1,951.558,1792.04)">
                <path d="M0,-3.86C-0.709,-3.86 -1.177,-3.239 -1.177,-2.346L-1.177,2.134L-3.823,2.134L-3.823,-2.463C-3.823,-3.29 -4.306,-3.86 -4.978,-3.86C-5.679,-3.86 -6.155,-3.239 -6.155,-2.346L-6.155,2.134L-8.793,2.134L-8.793,-5.76L-6.155,-5.76L-6.155,-4.451C-5.701,-5.408 -4.809,-5.994 -3.736,-5.994C-2.661,-5.994 -1.864,-5.408 -1.462,-4.473C-0.965,-5.395 0.021,-5.994 1.184,-5.994C2.924,-5.994 3.794,-4.649 3.794,-2.931L3.794,2.134L1.147,2.134L1.147,-2.463C1.147,-3.29 0.672,-3.86 0,-3.86" style="fill:rgb(4,60,131);fill-rule:nonzero;"/>
            </g>
            <g transform="matrix(1,0,0,1,961.117,1788.04)">
                <path d="M0,4.37C0.979,4.37 1.652,3.479 1.652,2.185C1.652,0.891 0.979,-0.001 0,-0.001C-0.979,-0.001 -1.652,0.891 -1.652,2.185C-1.652,3.479 -0.979,4.37 0,4.37M-4.335,2.185C-4.335,-0.293 -2.565,-1.996 0,-1.996C2.565,-1.996 4.335,-0.293 4.335,2.185C4.335,4.662 2.565,6.366 0,6.366C-2.565,6.366 -4.335,4.662 -4.335,2.185" style="fill:rgb(4,60,131);fill-rule:nonzero;"/>
            </g>
            <g transform="matrix(1,0,0,1,967.006,1793.94)">
                <path d="M0,-7.66L2.639,-7.66L2.639,-6.321C3.004,-7.286 4.013,-7.894 4.832,-7.894C5.08,-7.894 5.394,-7.836 5.65,-7.74L5.65,-5.628C5.387,-5.68 5.058,-5.693 4.824,-5.693C3.465,-5.693 2.639,-5.029 2.639,-4.056L2.639,0.234L0,0.234L0,-7.66Z" style="fill:rgb(4,60,131);fill-rule:nonzero;"/>
            </g>
            <g transform="matrix(1,0,0,1,974.125,1793.94)">
                <path d="M0,-7.66L2.639,-7.66L2.639,-6.321C3.004,-7.286 4.013,-7.894 4.832,-7.894C5.08,-7.894 5.394,-7.836 5.65,-7.74L5.65,-5.628C5.387,-5.68 5.058,-5.693 4.824,-5.693C3.465,-5.693 2.639,-5.029 2.639,-4.056L2.639,0.234L0,0.234L0,-7.66Z" style="fill:rgb(4,60,131);fill-rule:nonzero;"/>
            </g>
            <g transform="matrix(1,0,0,1,985.118,1788.04)">
                <path d="M0,4.37C0.979,4.37 1.652,3.479 1.652,2.185C1.652,0.891 0.979,-0.001 0,-0.001C-0.979,-0.001 -1.652,0.891 -1.652,2.185C-1.652,3.479 -0.979,4.37 0,4.37M-4.335,2.185C-4.335,-0.293 -2.565,-1.996 0,-1.996C2.565,-1.996 4.335,-0.293 4.335,2.185C4.335,4.662 2.565,6.366 0,6.366C-2.565,6.366 -4.335,4.662 -4.335,2.185" style="fill:rgb(4,60,131);fill-rule:nonzero;"/>
            </g>
            <g transform="matrix(1,0,0,1,990.21,1794.17)">
                <path d="M0,-7.894L2.683,-7.894L3.794,-2.521L4.926,-7.894L7.573,-7.894L8.713,-2.492L9.817,-7.894L12.499,-7.894L10.211,0L7.565,0L6.249,-5.657L4.941,0L2.288,0L0,-7.894Z" style="fill:rgb(4,60,131);fill-rule:nonzero;"/>
            </g>
            <g transform="matrix(0,1,1,0,1004.97,1791.44)">
                <path d="M1.454,-1.448C0.614,-1.448 -0.036,-0.812 -0.036,0.007C-0.036,0.825 0.614,1.454 1.454,1.454C2.287,1.454 2.938,0.825 2.938,0.007C2.938,-0.812 2.287,-1.448 1.454,-1.448" style="fill:rgb(4,60,131);fill-rule:nonzero;"/>
            </g>
            <g transform="matrix(1,0,0,1,0,1010.8)">
                <rect x="925.129" y="661.541" width="34.499" height="23.008" style="fill:rgb(208,17,38);"/>
            </g>
            <g transform="matrix(1,0,0,1,0,999.29)">
                <rect x="925.129" y="673.052" width="17.25" height="11.496" style="fill:rgb(4,60,131);"/>
            </g>
            <g transform="matrix(1,0,0,1,933.754,1682.4)">
                <path d="M0,-8.628L0.558,-6.398L2.156,-8.05L1.525,-5.839L3.734,-6.471L2.083,-4.872L4.312,-4.314L2.083,-3.756L3.734,-2.157L1.525,-2.789L2.156,-0.578L0.558,-2.231L0,0L-0.558,-2.231L-2.156,-0.578L-1.525,-2.789L-3.734,-2.157L-2.083,-3.756L-4.312,-4.314L-2.083,-4.872L-3.734,-6.471L-1.525,-5.839L-2.156,-8.05L-0.558,-6.398L0,-8.628Z" style="fill:white;"/>
            </g>
            <g transform="matrix(0,-1,-1,0,936.2,1678.09)">
                <ellipse cx="0" cy="2.446" rx="2.446" ry="2.445" style="fill:rgb(0,54,134);"/>
            </g>
            <g transform="matrix(0,-1,-1,0,935.911,1678.09)">
                <ellipse cx="0" cy="2.157" rx="2.157" ry="2.157" style="fill:white;"/>
            </g>
        </g>
    </g>
</svg>
