<svg width="720" height="312" viewBox="0 0 720 312" fill="none" xmlns="http://www.w3.org/2000/svg">
<path d="M58.5146 82.9494C58.5146 89.8131 58.3223 90.4859 57.9698 92.2879C57.6814 93.7696 57.0485 94.8187 56.0311 95.4835C55.27 95.9801 53.5235 96.5807 49.5259 96.5727H45.0315L40.3209 104.045H103.722L99.0277 96.6128H95.5188C91.0805 96.6048 89.4062 95.8679 88.8053 95.4274C87.7959 94.6906 87.187 93.5533 86.9467 91.9435C86.6503 89.9893 86.5061 89.4367 86.5141 82.9734L86.5301 65.2894L58.5226 65.2734L58.5066 82.9574L58.5146 82.9494Z" fill="#D01126"/>
<path d="M40.3289 0.0160215L45.1357 7.43238H48.9491C54.1003 7.44039 55.8148 8.00103 56.3756 8.3374C57.2248 8.84197 57.7775 9.80306 58.0579 11.2767C58.4024 13.1028 58.5787 17.4437 58.5707 23.979L58.5546 39.9651L22.2955 39.933C15.4298 39.933 13.4991 39.7408 11.6965 39.3884C10.2144 39.1001 9.16493 38.4674 8.49999 37.4502C8.00329 36.6894 7.40245 34.9434 7.41046 30.9469V26.4538L0 21.9528V82.7253L7.3704 77.7597V74.2517C7.37842 69.8147 8.11545 68.1408 8.55607 67.5402C9.29311 66.531 10.4307 65.9223 12.041 65.6821C13.9958 65.3857 15.8063 65.2416 22.2714 65.2496L58.5306 65.2816L66.4057 65.2896H66.5179H86.5381L86.5541 41.4307L86.5702 23.979C86.5782 15.5055 86.9146 12.2138 87.195 11.0284C87.5235 9.63487 88.1003 8.73786 88.9575 8.28134C89.5424 7.96899 91.2728 7.45641 96.2959 7.45641H99.1239L103.73 0H40.3289V0.0160215Z" fill="#003C83"/>
<path d="M101.495 51.2259C101.688 46.9491 103.274 43.0727 105.797 40.0053L86.5221 39.9893L86.5061 65.3138L106.871 65.3378C103.338 61.7097 101.255 56.6881 101.495 51.2339V51.2259Z" fill="#D01126"/>
<path d="M232.632 26.6782V30.4905C232.624 35.6403 232.064 37.3542 231.727 37.9148C231.222 38.7638 230.261 39.3164 228.787 39.5967C226.96 39.9411 225.39 40.1173 218.853 40.1093L182.081 40.0773L182.097 24.0913C182.105 15.6177 182.441 12.326 182.722 11.1407C183.05 9.74709 183.627 8.85007 184.484 8.39356C185.069 8.08121 186.8 7.56863 191.823 7.56863H194.651L199.257 0.0161133H136.36L141.167 7.52858H144.981C150.132 7.53659 151.846 8.09722 152.407 8.4336C153.256 8.93817 153.809 9.89926 154.089 11.3729C154.434 13.199 154.61 17.5399 154.602 24.0752L154.586 40.0533L134.854 40.0372C137.714 43.5372 139.349 48.0543 139.132 52.9238C138.916 57.7852 136.889 62.1342 133.733 65.3618L154.562 65.3858L154.546 83.0538C154.546 89.9175 154.354 90.5903 154.001 92.3923C153.713 93.874 153.08 94.9231 152.063 95.5879C151.302 96.0844 149.555 96.6851 145.557 96.6771H141.063L136.352 104.053H199.249L194.555 96.7172H191.046C186.607 96.7091 184.933 95.9723 184.332 95.5318C183.323 94.795 182.714 93.6577 182.474 92.0479C182.177 90.0937 182.033 89.5411 182.041 83.0778L182.057 65.4259L218.837 65.4579C227.313 65.4659 227.834 65.8023 229.019 66.0826C230.413 66.411 231.31 66.9876 231.767 67.8446C232.08 68.4293 232.592 70.1592 232.592 75.1809V78.0081L239.995 82.7494V22.0009L232.632 26.6942V26.6782Z" fill="#D01126"/>
<path d="M132.699 49.8641C132.699 46.7886 130.208 44.2978 127.131 44.2978C126.675 44.2978 126.226 44.3539 125.801 44.458C125.625 41.5507 123.206 39.2441 120.25 39.2441C117.293 39.2441 114.858 41.5668 114.698 44.49C114.241 44.3699 113.761 44.2978 113.264 44.2978C110.187 44.2978 107.696 46.7886 107.696 49.8641C107.696 52.2108 109.154 54.221 111.213 55.0379C110.62 55.9269 110.268 56.9922 110.268 58.1374C110.268 61.2129 112.759 63.7037 115.835 63.7037C117.606 63.7037 119.176 62.8788 120.194 61.5973C121.211 62.8788 122.789 63.7037 124.552 63.7037C127.628 63.7037 130.12 61.2129 130.12 58.1374C130.12 56.9922 129.775 55.9269 129.174 55.0379C131.233 54.221 132.699 52.2108 132.699 49.8641ZM127.949 50.1364C127.708 50.2165 127.452 50.1124 127.324 49.9042L121.628 51.7142C121.66 51.8343 121.676 51.9625 121.676 52.0906C121.676 52.0986 121.676 52.1146 121.676 52.1227L125.721 52.4751C125.793 52.3469 125.93 52.2588 126.09 52.2748C126.298 52.2908 126.45 52.4751 126.434 52.6833C126.418 52.8915 126.234 53.0437 126.026 53.0277C125.858 53.0117 125.729 52.8915 125.689 52.7394L121.644 52.387C121.62 52.5151 121.572 52.6432 121.515 52.7554L124.664 54.7016C124.792 54.5734 124.992 54.5414 125.153 54.6455C125.337 54.7576 125.401 55.0059 125.281 55.1981C125.169 55.3823 124.92 55.4464 124.728 55.3263C124.592 55.2462 124.528 55.102 124.544 54.9499L121.363 52.9876C121.307 53.0597 121.243 53.1318 121.171 53.1959L124.888 58.0173C125.105 57.9292 125.361 57.9853 125.513 58.1855C125.689 58.4178 125.649 58.7541 125.417 58.9303C125.185 59.1065 124.848 59.0665 124.672 58.8342C124.52 58.642 124.528 58.3697 124.672 58.1855L120.955 53.3641C120.843 53.4361 120.722 53.4922 120.594 53.5242L121.323 57.5528C121.491 57.5688 121.636 57.6969 121.668 57.8731C121.708 58.0894 121.564 58.2896 121.347 58.3297C121.131 58.3697 120.931 58.2255 120.891 58.0093C120.859 57.8491 120.931 57.6969 121.059 57.6168L120.33 53.5803C120.282 53.5803 120.226 53.5803 120.178 53.5803C120.121 53.5803 120.065 53.5803 120.017 53.5723L119.072 57.713C119.192 57.8011 119.248 57.9532 119.216 58.1134C119.168 58.3217 118.96 58.4578 118.744 58.4097C118.527 58.3617 118.399 58.1535 118.447 57.9372C118.487 57.761 118.639 57.6409 118.808 57.6329L119.745 53.5242C119.625 53.4922 119.521 53.4361 119.416 53.3801L115.707 58.4258C115.851 58.61 115.867 58.8743 115.723 59.0745C115.547 59.3148 115.219 59.3628 114.978 59.1866C114.738 59.0104 114.69 58.6821 114.866 58.4418C115.01 58.2416 115.267 58.1775 115.491 58.2656L119.2 53.2199C119.128 53.1558 119.064 53.0837 119 53.0117L115.827 54.9739C115.827 55.102 115.771 55.2382 115.651 55.3103C115.475 55.4224 115.243 55.3663 115.138 55.1901C115.026 55.0139 115.082 54.7817 115.259 54.6775C115.411 54.5894 115.595 54.6135 115.715 54.7256L118.856 52.7874C118.792 52.6673 118.744 52.5391 118.719 52.403L114.73 52.7554C114.69 52.9156 114.554 53.0437 114.377 53.0597C114.161 53.0757 113.969 52.9155 113.945 52.6993C113.929 52.4831 114.089 52.2908 114.305 52.2668C114.474 52.2508 114.618 52.3389 114.69 52.4831L118.679 52.1307C118.679 52.1307 118.679 52.1066 118.679 52.0986C118.679 51.9625 118.695 51.8343 118.736 51.7142L113.072 49.9122C112.943 50.1204 112.687 50.2165 112.447 50.1444C112.158 50.0563 111.998 49.744 112.094 49.4637C112.182 49.1753 112.495 49.0152 112.775 49.1113C113.015 49.1914 113.168 49.4156 113.152 49.6559L118.824 51.4579C118.872 51.3538 118.936 51.2577 119.008 51.1696L116.148 48.6467C115.98 48.7428 115.763 48.7348 115.611 48.5987C115.427 48.4305 115.403 48.1422 115.571 47.958C115.739 47.7738 116.028 47.7497 116.212 47.9179C116.364 48.0541 116.404 48.2703 116.324 48.4465L119.192 50.9774C119.28 50.8973 119.384 50.8332 119.497 50.7771L117.902 47.2372C117.71 47.2852 117.502 47.1891 117.414 46.9969C117.318 46.7806 117.414 46.5324 117.63 46.4362C117.846 46.3401 118.095 46.4363 118.191 46.6525C118.263 46.8047 118.231 46.9728 118.135 47.093L119.753 50.673C119.849 50.649 119.937 50.625 120.041 50.617V44.7463C119.809 44.6823 119.633 44.474 119.633 44.2177C119.633 43.9134 119.873 43.6731 120.178 43.6731C120.482 43.6731 120.722 43.9134 120.722 44.2177C120.722 44.474 120.546 44.6823 120.314 44.7463V50.617C120.426 50.625 120.53 50.649 120.634 50.681L122.293 46.9969H122.309C122.164 46.8848 122.116 46.6845 122.196 46.5083C122.293 46.2921 122.549 46.196 122.757 46.2921C122.974 46.3882 123.07 46.6445 122.973 46.8527C122.893 47.0289 122.709 47.125 122.525 47.101H122.541L120.883 50.7851C120.987 50.8412 121.083 50.9133 121.171 50.9934L124.063 48.4385C123.983 48.2623 124.023 48.0461 124.175 47.9099C124.367 47.7417 124.656 47.7577 124.816 47.95C124.984 48.1422 124.968 48.4305 124.776 48.5907C124.624 48.7268 124.408 48.7348 124.239 48.6387L121.355 51.1856C121.419 51.2737 121.483 51.3698 121.523 51.4659L127.227 49.6479C127.211 49.4076 127.364 49.1753 127.604 49.1033C127.892 49.0152 128.197 49.1673 128.285 49.4557C128.373 49.744 128.221 50.0483 127.932 50.1364H127.949Z" fill="#D01126"/>
<path d="M298.517 82.9494C298.517 89.8131 298.325 90.4859 297.972 92.2879C297.684 93.7696 297.051 94.8187 296.034 95.4835C295.273 95.9801 293.526 96.5807 289.529 96.5727H285.034L280.324 104.045H343.725L339.03 96.6128H335.521C331.083 96.6048 329.409 95.8679 328.808 95.4274C327.799 94.6906 327.19 93.5533 326.949 91.9435C326.653 89.9893 326.509 89.4367 326.517 82.9734L326.533 65.2894L298.525 65.2734L298.509 82.9574L298.517 82.9494Z" fill="#D01126"/>
<path d="M280.332 0.0160215L285.138 7.43238H288.952C294.103 7.44039 295.817 8.00103 296.378 8.3374C297.227 8.84197 297.78 9.80306 298.061 11.2767C298.405 13.1028 298.581 17.4437 298.573 23.979L298.557 39.9651L262.298 39.933C255.432 39.933 253.502 39.7408 251.699 39.3884C250.217 39.1001 249.168 38.4674 248.503 37.4502C248.006 36.6894 247.405 34.9434 247.413 30.9469V26.4538L240.003 21.9528V82.7253L247.373 77.7597V74.2517C247.381 69.8147 248.118 68.1408 248.559 67.5402C249.296 66.531 250.433 65.9223 252.044 65.6821C253.998 65.3857 255.809 65.2416 262.274 65.2496L298.533 65.2816L306.408 65.2896H306.521H326.541L326.557 41.4307L326.573 23.979C326.581 15.5055 326.917 12.2138 327.198 11.0284C327.526 9.63487 328.103 8.73786 328.96 8.28134C329.545 7.96899 331.275 7.45641 336.299 7.45641H339.127L343.733 0H280.332V0.0160215Z" fill="#003C83"/>
<path d="M341.498 51.2259C341.69 46.9491 343.276 43.0727 345.8 40.0053L326.525 39.9893L326.509 65.3138L346.873 65.3378C343.34 61.7097 341.258 56.6881 341.498 51.2339V51.2259Z" fill="#D01126"/>
<path d="M472.635 26.6782V30.4905C472.627 35.6403 472.066 37.3542 471.73 37.9148C471.225 38.7638 470.264 39.3164 468.79 39.5967C466.963 39.9411 465.393 40.1173 458.856 40.1093L422.084 40.0773L422.1 24.0913C422.108 15.6177 422.444 12.326 422.725 11.1407C423.053 9.74709 423.63 8.85007 424.487 8.39356C425.072 8.08121 426.802 7.56863 431.825 7.56863H434.653L439.26 0.0161133H376.363L381.17 7.52858H384.983C390.135 7.53659 391.849 8.09722 392.41 8.4336C393.259 8.93817 393.812 9.89926 394.092 11.3729C394.437 13.199 394.613 17.5399 394.605 24.0752L394.589 40.0533L374.857 40.0372C377.717 43.5372 379.351 48.0543 379.135 52.9238C378.919 57.7852 376.892 62.1342 373.735 65.3618L394.565 65.3858L394.549 83.0538C394.549 89.9175 394.357 90.5903 394.004 92.3923C393.716 93.874 393.083 94.9231 392.065 95.5879C391.304 96.0844 389.558 96.6851 385.56 96.6771H381.066L376.355 104.053H439.252L434.557 96.7172H431.048C426.61 96.7091 424.936 95.9723 424.335 95.5318C423.325 94.795 422.717 93.6577 422.476 92.0479C422.18 90.0937 422.036 89.5411 422.044 83.0778L422.06 65.4259L458.839 65.4579C467.315 65.4659 467.836 65.8023 469.022 66.0826C470.416 66.411 471.313 66.9876 471.77 67.8446C472.082 68.4293 472.595 70.1592 472.595 75.1809V78.0081L479.997 82.7494V22.0009L472.635 26.6942V26.6782Z" fill="white"/>
<path d="M372.702 49.8641C372.702 46.7886 370.21 44.2978 367.134 44.2978C366.677 44.2978 366.229 44.3539 365.804 44.458C365.628 41.5507 363.209 39.2441 360.252 39.2441C357.296 39.2441 354.861 41.5668 354.701 44.49C354.244 44.3699 353.763 44.2978 353.267 44.2978C350.19 44.2978 347.699 46.7886 347.699 49.8641C347.699 52.2108 349.157 54.221 351.216 55.0379C350.623 55.9269 350.27 56.9922 350.27 58.1374C350.27 61.2129 352.762 63.7037 355.838 63.7037C357.609 63.7037 359.179 62.8788 360.196 61.5973C361.214 62.8788 362.792 63.7037 364.554 63.7037C367.631 63.7037 370.122 61.2129 370.122 58.1374C370.122 56.9922 369.778 55.9269 369.177 55.0379C371.236 54.221 372.702 52.2108 372.702 49.8641ZM367.943 50.1364C367.703 50.2165 367.447 50.1124 367.318 49.9042L361.622 51.7142C361.654 51.8343 361.67 51.9625 361.67 52.0906C361.67 52.0986 361.67 52.1146 361.67 52.1227L365.716 52.4751C365.788 52.3469 365.924 52.2588 366.085 52.2748C366.293 52.2908 366.445 52.4751 366.429 52.6833C366.413 52.8915 366.229 53.0437 366.021 53.0277C365.852 53.0117 365.724 52.8915 365.684 52.7394L361.638 52.387C361.614 52.5151 361.566 52.6432 361.51 52.7554L364.659 54.7016C364.787 54.5734 364.987 54.5414 365.147 54.6455C365.332 54.7576 365.396 55.0059 365.275 55.1981C365.163 55.3823 364.915 55.4464 364.723 55.3263C364.587 55.2462 364.522 55.102 364.538 54.9499L361.358 52.9876C361.302 53.0597 361.238 53.1318 361.166 53.1959L364.883 58.0173C365.099 57.9292 365.356 57.9853 365.508 58.1855C365.684 58.4178 365.644 58.7541 365.412 58.9303C365.179 59.1065 364.843 59.0665 364.667 58.8342C364.514 58.642 364.522 58.3697 364.667 58.1855L360.949 53.3641C360.837 53.4361 360.717 53.4922 360.589 53.5242L361.318 57.5528C361.486 57.5688 361.63 57.6969 361.662 57.8731C361.702 58.0894 361.558 58.2896 361.342 58.3297C361.126 58.3697 360.925 58.2255 360.885 58.0093C360.853 57.8491 360.925 57.6969 361.054 57.6168L360.324 53.5803C360.276 53.5803 360.22 53.5803 360.172 53.5803C360.116 53.5803 360.06 53.5803 360.012 53.5723L359.067 57.713C359.187 57.8011 359.243 57.9532 359.211 58.1134C359.163 58.3217 358.955 58.4578 358.738 58.4097C358.53 58.3617 358.394 58.1535 358.442 57.9372C358.482 57.761 358.634 57.6409 358.802 57.6329L359.74 53.5242C359.619 53.4922 359.515 53.4361 359.411 53.3801L355.702 58.4258C355.846 58.61 355.862 58.8743 355.718 59.0745C355.542 59.3148 355.213 59.3628 354.973 59.1866C354.733 59.0104 354.685 58.6821 354.861 58.4418C355.005 58.2416 355.261 58.1775 355.486 58.2656L359.195 53.2199C359.123 53.1558 359.059 53.0837 358.995 53.0117L355.822 54.9739C355.822 55.102 355.766 55.2382 355.646 55.3103C355.47 55.4224 355.237 55.3663 355.133 55.1901C355.021 55.0139 355.077 54.7817 355.253 54.6775C355.406 54.5894 355.59 54.6135 355.71 54.7256L358.85 52.7874C358.786 52.6673 358.738 52.5391 358.714 52.403L354.725 52.7554C354.685 52.9156 354.548 53.0437 354.372 53.0597C354.156 53.0757 353.964 52.9155 353.939 52.6993C353.923 52.4831 354.084 52.2908 354.3 52.2668C354.468 52.2508 354.612 52.3389 354.685 52.4831L358.674 52.1307C358.674 52.1307 358.674 52.1066 358.674 52.0986C358.674 51.9625 358.69 51.8343 358.73 51.7142L353.066 49.9122C352.938 50.1204 352.682 50.2165 352.441 50.1444C352.153 50.0563 351.993 49.744 352.089 49.4637C352.177 49.1753 352.489 49.0152 352.77 49.1113C353.01 49.1914 353.162 49.4156 353.146 49.6559L358.818 51.4579C358.866 51.3538 358.931 51.2577 359.003 51.1696L356.143 48.6467C355.974 48.7428 355.758 48.7348 355.606 48.5987C355.422 48.4305 355.398 48.1422 355.566 47.958C355.734 47.7738 356.022 47.7497 356.207 47.9179C356.359 48.0541 356.399 48.2703 356.319 48.4465L359.187 50.9774C359.275 50.8973 359.379 50.8332 359.491 50.7771L357.897 47.2372C357.705 47.2852 357.497 47.1891 357.408 46.9969C357.312 46.7806 357.408 46.5324 357.625 46.4362C357.841 46.3401 358.089 46.4363 358.185 46.6525C358.258 46.8047 358.226 46.9728 358.129 47.093L359.748 50.673C359.844 50.649 359.932 50.625 360.036 50.617V44.7463C359.804 44.6823 359.627 44.474 359.627 44.2177C359.627 43.9134 359.868 43.6731 360.172 43.6731C360.477 43.6731 360.717 43.9134 360.717 44.2177C360.717 44.474 360.541 44.6823 360.308 44.7463V50.617C360.421 50.625 360.525 50.649 360.629 50.681L362.287 46.9969H362.303C362.159 46.8848 362.111 46.6845 362.191 46.5083C362.287 46.2921 362.544 46.196 362.752 46.2921C362.968 46.3882 363.064 46.6445 362.968 46.8527C362.888 47.0289 362.704 47.125 362.52 47.101H362.536L360.877 50.7851C360.981 50.8412 361.078 50.9133 361.166 50.9934L364.058 48.4385C363.978 48.2623 364.018 48.0461 364.17 47.9099C364.362 47.7417 364.651 47.7577 364.811 47.95C364.979 48.1422 364.963 48.4305 364.771 48.5907C364.619 48.7268 364.402 48.7348 364.234 48.6387L361.35 51.1856C361.414 51.2737 361.478 51.3698 361.518 51.4659L367.222 49.6479C367.206 49.4076 367.358 49.1753 367.599 49.1033C367.887 49.0152 368.192 49.1673 368.28 49.4557C368.368 49.744 368.216 50.0483 367.927 50.1364H367.943Z" fill="#D01126"/>
<path d="M538.52 82.9494C538.52 89.8131 538.328 90.4859 537.975 92.2879C537.687 93.7696 537.054 94.8187 536.036 95.4835C535.275 95.9801 533.529 96.5807 529.531 96.5727H525.037L520.326 104.045H583.728L579.033 96.6128H575.524C571.086 96.6048 569.412 95.8679 568.811 95.4274C567.801 94.6906 567.192 93.5533 566.952 91.9435C566.656 89.9893 566.511 89.4367 566.519 82.9734L566.535 65.2894L538.528 65.2734L538.512 82.9574L538.52 82.9494Z" fill="#D01126"/>
<path d="M520.334 0.0160215L525.141 7.43238H528.954C534.106 7.44039 535.82 8.00103 536.381 8.3374C537.23 8.84197 537.783 9.80306 538.063 11.2767C538.408 13.1028 538.584 17.4437 538.576 23.979L538.56 39.9651L502.301 39.933C495.435 39.933 493.504 39.7408 491.702 39.3884C490.22 39.1001 489.17 38.4674 488.505 37.4502C488.009 36.6894 487.408 34.9434 487.416 30.9469V26.4538L480.005 21.9528V82.7253L487.376 77.7597V74.2517C487.384 69.8147 488.121 68.1408 488.561 67.5402C489.298 66.531 490.436 65.9223 492.046 65.6821C494.001 65.3857 495.812 65.2416 502.277 65.2496L538.536 65.2816L546.411 65.2896H546.523H566.543L566.559 41.4307L566.575 23.979C566.583 15.5055 566.92 12.2138 567.2 11.0284C567.529 9.63487 568.106 8.73786 568.963 8.28134C569.548 7.96899 571.278 7.45641 576.301 7.45641H579.129L583.736 0H520.334V0.0160215Z" fill="#003C83"/>
<path d="M581.493 51.2259C581.685 46.9491 583.271 43.0727 585.795 40.0053L566.519 39.9893L566.503 65.3138L586.868 65.3378C583.335 61.7097 581.252 56.6881 581.493 51.2339V51.2259Z" fill="#D01126"/>
<path d="M712.638 26.6782V30.4905C712.63 35.6403 712.069 37.3542 711.732 37.9148C711.228 38.7638 710.266 39.3164 708.792 39.5967C706.966 39.9411 705.395 40.1173 698.858 40.1093L662.086 40.0773L662.102 24.0913C662.11 15.6177 662.447 12.326 662.727 11.1407C663.056 9.74709 663.633 8.85007 664.49 8.39356C665.075 8.08121 666.805 7.56863 671.828 7.56863H674.656L679.263 0.0161133H616.366L621.173 7.52858H624.986C630.137 7.53659 631.852 8.09722 632.412 8.4336C633.262 8.93817 633.814 9.89926 634.095 11.3729C634.439 13.199 634.616 17.5399 634.608 24.0752L634.592 40.0533L614.86 40.0372C617.72 43.5372 619.354 48.0543 619.138 52.9238C618.921 57.7852 616.895 62.1342 613.738 65.3618L634.567 65.3858L634.552 83.0538C634.552 89.9175 634.359 90.5903 634.007 92.3923C633.718 93.874 633.085 94.9231 632.068 95.5879C631.307 96.0844 629.56 96.6851 625.563 96.6771H621.068L616.358 104.053H679.255L674.56 96.7172H671.051C666.613 96.7091 664.938 95.9723 664.338 95.5318C663.328 94.795 662.719 93.6577 662.479 92.0479C662.182 90.0937 662.038 89.5411 662.046 83.0778L662.062 65.4259L698.842 65.4579C707.318 65.4659 707.839 65.8023 709.025 66.0826C710.419 66.411 711.316 66.9876 711.772 67.8446C712.085 68.4293 712.598 70.1592 712.598 75.1809V78.0081L720 82.7494V22.0009L712.638 26.6942V26.6782Z" fill="#D01126"/>
<path d="M612.697 49.8641C612.697 46.7886 610.205 44.2978 607.129 44.2978C606.672 44.2978 606.223 44.3539 605.799 44.458C605.623 41.5507 603.203 39.2441 600.247 39.2441C597.291 39.2441 594.855 41.5668 594.695 44.49C594.239 44.3699 593.758 44.2978 593.261 44.2978C590.185 44.2978 587.693 46.7886 587.693 49.8641C587.693 52.2108 589.151 54.221 591.21 55.0379C590.617 55.9269 590.265 56.9922 590.265 58.1374C590.265 61.2129 592.756 63.7037 595.833 63.7037C597.603 63.7037 599.173 62.8788 600.191 61.5973C601.208 62.8788 602.787 63.7037 604.549 63.7037C607.625 63.7037 610.117 61.2129 610.117 58.1374C610.117 56.9922 609.772 55.9269 609.172 55.0379C611.23 54.221 612.697 52.2108 612.697 49.8641ZM607.946 50.1364C607.706 50.2165 607.449 50.1124 607.321 49.9042L601.625 51.7142C601.657 51.8343 601.673 51.9625 601.673 52.0906C601.673 52.0986 601.673 52.1146 601.673 52.1227L605.719 52.4751C605.791 52.3469 605.927 52.2588 606.087 52.2748C606.296 52.2908 606.448 52.4751 606.432 52.6833C606.416 52.8915 606.231 53.0437 606.023 53.0277C605.855 53.0117 605.727 52.8915 605.687 52.7394L601.641 52.387C601.617 52.5151 601.569 52.6432 601.513 52.7554L604.661 54.7016C604.789 54.5734 604.99 54.5414 605.15 54.6455C605.334 54.7576 605.398 55.0059 605.278 55.1981C605.166 55.3823 604.918 55.4464 604.725 55.3263C604.589 55.2462 604.525 55.102 604.541 54.9499L601.361 52.9876C601.304 53.0597 601.24 53.1318 601.168 53.1959L604.886 58.0173C605.102 57.9292 605.358 57.9853 605.51 58.1855C605.687 58.4178 605.647 58.7541 605.414 58.9303C605.182 59.1065 604.845 59.0665 604.669 58.8342C604.517 58.642 604.525 58.3697 604.669 58.1855L600.952 53.3641C600.84 53.4361 600.72 53.4922 600.591 53.5242L601.32 57.5528C601.489 57.5688 601.633 57.6969 601.665 57.8731C601.705 58.0894 601.561 58.2896 601.345 58.3297C601.128 58.3697 600.928 58.2255 600.888 58.0093C600.856 57.8491 600.928 57.6969 601.056 57.6168L600.327 53.5803C600.279 53.5803 600.223 53.5803 600.175 53.5803C600.119 53.5803 600.063 53.5803 600.015 53.5723L599.069 57.713C599.189 57.8011 599.246 57.9532 599.213 58.1134C599.165 58.3217 598.957 58.4578 598.741 58.4097C598.533 58.3617 598.396 58.1535 598.444 57.9372C598.485 57.761 598.637 57.6409 598.805 57.6329L599.742 53.5242C599.622 53.4922 599.518 53.4361 599.414 53.3801L595.705 58.4258C595.849 58.61 595.865 58.8743 595.721 59.0745C595.544 59.3148 595.216 59.3628 594.976 59.1866C594.735 59.0104 594.687 58.6821 594.863 58.4418C595.008 58.2416 595.264 58.1775 595.488 58.2656L599.198 53.2199C599.125 53.1558 599.061 53.0837 598.997 53.0117L595.825 54.9739C595.825 55.102 595.769 55.2382 595.649 55.3103C595.472 55.4224 595.24 55.3663 595.136 55.1901C595.024 55.0139 595.08 54.7817 595.256 54.6775C595.408 54.5894 595.592 54.6135 595.713 54.7256L598.853 52.7874C598.789 52.6673 598.741 52.5391 598.717 52.403L594.727 52.7554C594.687 52.9156 594.551 53.0437 594.375 53.0597C594.158 53.0757 593.966 52.9155 593.942 52.6993C593.926 52.4831 594.086 52.2908 594.303 52.2668C594.471 52.2508 594.615 52.3389 594.687 52.4831L598.677 52.1307C598.677 52.1307 598.677 52.1066 598.677 52.0986C598.677 51.9625 598.693 51.8343 598.733 51.7142L593.069 49.9122C592.941 50.1204 592.684 50.2165 592.444 50.1444C592.156 50.0563 591.995 49.744 592.091 49.4637C592.18 49.1753 592.492 49.0152 592.772 49.1113C593.013 49.1914 593.165 49.4156 593.149 49.6559L598.821 51.4579C598.869 51.3538 598.933 51.2577 599.005 51.1696L596.145 48.6467C595.977 48.7428 595.761 48.7348 595.608 48.5987C595.424 48.4305 595.4 48.1422 595.568 47.958C595.737 47.7738 596.025 47.7497 596.209 47.9179C596.361 48.0541 596.402 48.2703 596.321 48.4465L599.189 50.9774C599.278 50.8973 599.382 50.8332 599.494 50.7771L597.9 47.2372C597.707 47.2852 597.499 47.1891 597.411 46.9969C597.315 46.7806 597.411 46.5324 597.627 46.4362C597.844 46.3401 598.092 46.4363 598.188 46.6525C598.26 46.8047 598.228 46.9728 598.132 47.093L599.75 50.673C599.846 50.649 599.935 50.625 600.039 50.617V44.7463C599.806 44.6823 599.63 44.474 599.63 44.2177C599.63 43.9134 599.87 43.6731 600.175 43.6731C600.479 43.6731 600.72 43.9134 600.72 44.2177C600.72 44.474 600.543 44.6823 600.311 44.7463V50.617C600.423 50.625 600.527 50.649 600.632 50.681L602.29 46.9969H602.306C602.162 46.8848 602.114 46.6845 602.194 46.5083C602.29 46.2921 602.546 46.196 602.755 46.2921C602.971 46.3882 603.067 46.6445 602.971 46.8527C602.891 47.0289 602.706 47.125 602.522 47.101H602.538L600.88 50.7851C600.984 50.8412 601.08 50.9133 601.168 50.9934L604.06 48.4385C603.98 48.2623 604.02 48.0461 604.172 47.9099C604.365 47.7417 604.653 47.7577 604.813 47.95C604.982 48.1422 604.966 48.4305 604.773 48.5907C604.621 48.7268 604.405 48.7348 604.237 48.6387L601.353 51.1856C601.417 51.2737 601.481 51.3698 601.521 51.4659L607.225 49.6479C607.209 49.4076 607.361 49.1753 607.601 49.1033C607.89 49.0152 608.194 49.1673 608.282 49.4557C608.37 49.744 608.218 50.0483 607.93 50.1364H607.946Z" fill="#D01126"/>
<path d="M58.5146 186.915C58.5146 193.778 58.3223 194.451 57.9698 196.253C57.6814 197.735 57.0485 198.784 56.0311 199.449C55.27 199.945 53.5235 200.546 49.5259 200.538H45.0315L40.3209 208.01H103.722L99.0277 200.578H95.5188C91.0805 200.57 89.4062 199.833 88.8053 199.393C87.7959 198.656 87.187 197.519 86.9467 195.909C86.6503 193.955 86.5061 193.402 86.5141 186.939L86.5301 169.255L58.5226 169.239L58.5066 186.923L58.5146 186.915Z" fill="#D01126"/>
<path d="M40.3289 103.989L45.1357 111.406H48.9491C54.1003 111.414 55.8148 111.974 56.3756 112.311C57.2248 112.815 57.7775 113.776 58.0579 115.25C58.4024 117.076 58.5787 121.417 58.5707 127.952L58.5546 143.938L22.2955 143.906C15.4298 143.906 13.4991 143.714 11.6965 143.362C10.2144 143.073 9.16493 142.441 8.49999 141.423C8.00329 140.663 7.40245 138.917 7.41046 134.92V130.427L0 125.926V186.698L7.3704 181.733V178.225C7.37842 173.788 8.11545 172.114 8.55607 171.513C9.29311 170.504 10.4307 169.895 12.041 169.655C13.9958 169.359 15.8063 169.215 22.2714 169.223L58.5306 169.255L66.4057 169.263H66.5179H86.5381L86.5541 145.404L86.5702 127.952C86.5782 119.479 86.9146 116.187 87.195 115.002C87.5235 113.608 88.1003 112.711 88.9575 112.254C89.5424 111.942 91.2728 111.43 96.2959 111.43H99.1239L103.73 103.973H40.3289V103.989Z" fill="#003C83"/>
<path d="M101.495 155.191C101.688 150.914 103.274 147.038 105.797 143.97L86.5221 143.954L86.5061 169.279L106.871 169.303C103.338 165.675 101.255 160.653 101.495 155.199V155.191Z" fill="#D01126"/>
<path d="M232.632 130.651V134.463C232.624 139.613 232.064 141.327 231.727 141.888C231.222 142.737 230.261 143.289 228.787 143.57C226.96 143.914 225.39 144.09 218.853 144.082L182.081 144.05L182.097 128.064C182.105 119.591 182.441 116.299 182.722 115.114C183.05 113.72 183.627 112.823 184.484 112.366C185.069 112.054 186.8 111.542 191.823 111.542H194.651L199.257 103.989H136.36L141.167 111.501H144.981C150.132 111.509 151.846 112.07 152.407 112.407C153.256 112.911 153.809 113.872 154.089 115.346C154.434 117.172 154.61 121.513 154.602 128.048L154.586 144.026L134.854 144.01C137.714 147.51 139.349 152.027 139.132 156.897C138.916 161.758 136.889 166.107 133.733 169.335L154.562 169.359L154.546 187.027C154.546 193.89 154.354 194.563 154.001 196.365C153.713 197.847 153.08 198.896 152.063 199.561C151.302 200.057 149.555 200.658 145.557 200.65H141.063L136.352 208.026H199.249L194.555 200.69H191.046C186.607 200.682 184.933 199.945 184.332 199.505C183.323 198.768 182.714 197.631 182.474 196.021C182.177 194.067 182.033 193.514 182.041 187.051L182.057 169.399L218.837 169.431C227.313 169.439 227.834 169.775 229.019 170.056C230.413 170.384 231.31 170.961 231.767 171.817C232.08 172.402 232.592 174.132 232.592 179.154V181.981L239.995 186.722V125.974L232.632 130.667V130.651Z" fill="white"/>
<path d="M132.699 153.837C132.699 150.762 130.208 148.271 127.131 148.271C126.675 148.271 126.226 148.327 125.801 148.431C125.625 145.524 123.206 143.217 120.25 143.217C117.293 143.217 114.858 145.54 114.698 148.463C114.241 148.343 113.761 148.271 113.264 148.271C110.187 148.271 107.696 150.762 107.696 153.837C107.696 156.184 109.154 158.194 111.213 159.011C110.62 159.9 110.268 160.965 110.268 162.111C110.268 165.186 112.759 167.677 115.835 167.677C117.606 167.677 119.176 166.852 120.194 165.57C121.211 166.852 122.789 167.677 124.552 167.677C127.628 167.677 130.12 165.186 130.12 162.111C130.12 160.965 129.775 159.9 129.174 159.011C131.233 158.194 132.699 156.184 132.699 153.837ZM127.949 154.11C127.708 154.19 127.452 154.086 127.324 153.877L121.628 155.687C121.66 155.807 121.676 155.936 121.676 156.064C121.676 156.072 121.676 156.088 121.676 156.096L125.721 156.448C125.793 156.32 125.93 156.232 126.09 156.248C126.298 156.264 126.45 156.448 126.434 156.656C126.418 156.865 126.234 157.017 126.026 157.001C125.858 156.985 125.729 156.865 125.689 156.713L121.644 156.36C121.62 156.488 121.572 156.616 121.515 156.729L124.664 158.675C124.792 158.547 124.992 158.515 125.153 158.619C125.337 158.731 125.401 158.979 125.281 159.171C125.169 159.355 124.92 159.42 124.728 159.299C124.592 159.219 124.528 159.075 124.544 158.923L121.363 156.961C121.307 157.033 121.243 157.105 121.171 157.169L124.888 161.99C125.105 161.902 125.361 161.958 125.513 162.159C125.689 162.391 125.649 162.727 125.417 162.903C125.185 163.08 124.848 163.04 124.672 162.807C124.52 162.615 124.528 162.343 124.672 162.159L120.955 157.337C120.843 157.409 120.722 157.465 120.594 157.497L121.323 161.526C121.491 161.542 121.636 161.67 121.668 161.846C121.708 162.063 121.564 162.263 121.347 162.303C121.131 162.343 120.931 162.199 120.891 161.982C120.859 161.822 120.931 161.67 121.059 161.59L120.33 157.553C120.282 157.553 120.226 157.553 120.178 157.553C120.121 157.553 120.065 157.553 120.017 157.545L119.072 161.686C119.192 161.774 119.248 161.926 119.216 162.087C119.168 162.295 118.96 162.431 118.744 162.383C118.527 162.335 118.399 162.127 118.447 161.91C118.487 161.734 118.639 161.614 118.808 161.606L119.745 157.497C119.625 157.465 119.521 157.409 119.416 157.353L115.707 162.399C115.851 162.583 115.867 162.847 115.723 163.048C115.547 163.288 115.219 163.336 114.978 163.16C114.738 162.984 114.69 162.655 114.866 162.415C115.01 162.215 115.267 162.151 115.491 162.239L119.2 157.193C119.128 157.129 119.064 157.057 119 156.985L115.827 158.947C115.827 159.075 115.771 159.211 115.651 159.283C115.475 159.396 115.243 159.339 115.138 159.163C115.026 158.987 115.082 158.755 115.259 158.651C115.411 158.563 115.595 158.587 115.715 158.699L118.856 156.761C118.792 156.64 118.744 156.512 118.719 156.376L114.73 156.729C114.69 156.889 114.554 157.017 114.377 157.033C114.161 157.049 113.969 156.889 113.945 156.672C113.929 156.456 114.089 156.264 114.305 156.24C114.474 156.224 114.618 156.312 114.69 156.456L118.679 156.104C118.679 156.104 118.679 156.08 118.679 156.072C118.679 155.936 118.695 155.807 118.736 155.687L113.072 153.885C112.943 154.094 112.687 154.19 112.447 154.118C112.158 154.029 111.998 153.717 112.094 153.437C112.182 153.148 112.495 152.988 112.775 153.084C113.015 153.165 113.168 153.389 113.152 153.629L118.824 155.431C118.872 155.327 118.936 155.231 119.008 155.143L116.148 152.62C115.98 152.716 115.763 152.708 115.611 152.572C115.427 152.404 115.403 152.115 115.571 151.931C115.739 151.747 116.028 151.723 116.212 151.891C116.364 152.027 116.404 152.243 116.324 152.42L119.192 154.951C119.28 154.87 119.384 154.806 119.497 154.75L117.902 151.21C117.71 151.258 117.502 151.162 117.414 150.97C117.318 150.754 117.414 150.506 117.63 150.409C117.846 150.313 118.095 150.409 118.191 150.626C118.263 150.778 118.231 150.946 118.135 151.066L119.753 154.646C119.849 154.622 119.937 154.598 120.041 154.59V148.719C119.809 148.655 119.633 148.447 119.633 148.191C119.633 147.887 119.873 147.646 120.178 147.646C120.482 147.646 120.722 147.887 120.722 148.191C120.722 148.447 120.546 148.655 120.314 148.719V154.59C120.426 154.598 120.53 154.622 120.634 154.654L122.293 150.97H122.309C122.164 150.858 122.116 150.658 122.196 150.481C122.293 150.265 122.549 150.169 122.757 150.265C122.974 150.361 123.07 150.618 122.973 150.826C122.893 151.002 122.709 151.098 122.525 151.074H122.541L120.883 154.758C120.987 154.814 121.083 154.886 121.171 154.967L124.063 152.412C123.983 152.235 124.023 152.019 124.175 151.883C124.367 151.715 124.656 151.731 124.816 151.923C124.984 152.115 124.968 152.404 124.776 152.564C124.624 152.7 124.408 152.708 124.239 152.612L121.355 155.159C121.419 155.247 121.483 155.343 121.523 155.439L127.227 153.621C127.211 153.381 127.364 153.148 127.604 153.076C127.892 152.988 128.197 153.14 128.285 153.429C128.373 153.717 128.221 154.021 127.932 154.11H127.949Z" fill="#D01126"/>
<path d="M298.517 186.915C298.517 193.778 298.325 194.451 297.972 196.253C297.684 197.735 297.051 198.784 296.034 199.449C295.273 199.945 293.526 200.546 289.529 200.538H285.034L280.324 208.01H343.725L339.03 200.578H335.521C331.083 200.57 329.409 199.833 328.808 199.393C327.799 198.656 327.19 197.519 326.949 195.909C326.653 193.955 326.509 193.402 326.517 186.939L326.533 169.255L298.525 169.239L298.509 186.923L298.517 186.915Z" fill="#D01126"/>
<path d="M280.332 103.989L285.138 111.406H288.952C294.103 111.414 295.817 111.974 296.378 112.311C297.227 112.815 297.78 113.776 298.061 115.25C298.405 117.076 298.581 121.417 298.573 127.952L298.557 143.938L262.298 143.906C255.432 143.906 253.502 143.714 251.699 143.362C250.217 143.073 249.168 142.441 248.503 141.423C248.006 140.663 247.405 138.917 247.413 134.92V130.427L240.003 125.926V186.698L247.373 181.733V178.225C247.381 173.788 248.118 172.114 248.559 171.513C249.296 170.504 250.433 169.895 252.044 169.655C253.998 169.359 255.809 169.215 262.274 169.223L298.533 169.255L306.408 169.263H306.521H326.541L326.557 145.404L326.573 127.952C326.581 119.479 326.917 116.187 327.198 115.002C327.526 113.608 328.103 112.711 328.96 112.254C329.545 111.942 331.275 111.43 336.299 111.43H339.127L343.733 103.973H280.332V103.989Z" fill="#003C83"/>
<path d="M341.498 155.191C341.69 150.914 343.276 147.038 345.8 143.97L326.525 143.954L326.509 169.279L346.873 169.303C343.34 165.675 341.258 160.653 341.498 155.199V155.191Z" fill="#D01126"/>
<path d="M472.635 130.651V134.463C472.627 139.613 472.066 141.327 471.73 141.888C471.225 142.737 470.264 143.289 468.79 143.57C466.963 143.914 465.393 144.09 458.856 144.082L422.084 144.05L422.1 128.064C422.108 119.591 422.444 116.299 422.725 115.114C423.053 113.72 423.63 112.823 424.487 112.366C425.072 112.054 426.802 111.542 431.825 111.542H434.653L439.26 103.989H376.363L381.17 111.501H384.983C390.135 111.509 391.849 112.07 392.41 112.407C393.259 112.911 393.812 113.872 394.092 115.346C394.437 117.172 394.613 121.513 394.605 128.048L394.589 144.026L374.857 144.01C377.717 147.51 379.351 152.027 379.135 156.897C378.919 161.758 376.892 166.107 373.735 169.335L394.565 169.359L394.549 187.027C394.549 193.89 394.357 194.563 394.004 196.365C393.716 197.847 393.083 198.896 392.065 199.561C391.304 200.057 389.558 200.658 385.56 200.65H381.066L376.355 208.026H439.252L434.557 200.69H431.048C426.61 200.682 424.936 199.945 424.335 199.505C423.325 198.768 422.717 197.631 422.476 196.021C422.18 194.067 422.036 193.514 422.044 187.051L422.06 169.399L458.839 169.431C467.315 169.439 467.836 169.775 469.022 170.056C470.416 170.384 471.313 170.961 471.77 171.817C472.082 172.402 472.595 174.132 472.595 179.154V181.981L479.997 186.722V125.974L472.635 130.667V130.651Z" fill="#D01126"/>
<path d="M372.702 153.837C372.702 150.762 370.21 148.271 367.134 148.271C366.677 148.271 366.229 148.327 365.804 148.431C365.628 145.524 363.209 143.217 360.252 143.217C357.296 143.217 354.861 145.54 354.701 148.463C354.244 148.343 353.763 148.271 353.267 148.271C350.19 148.271 347.699 150.762 347.699 153.837C347.699 156.184 349.157 158.194 351.216 159.011C350.623 159.9 350.27 160.965 350.27 162.111C350.27 165.186 352.762 167.677 355.838 167.677C357.609 167.677 359.179 166.852 360.196 165.57C361.214 166.852 362.792 167.677 364.554 167.677C367.631 167.677 370.122 165.186 370.122 162.111C370.122 160.965 369.778 159.9 369.177 159.011C371.236 158.194 372.702 156.184 372.702 153.837ZM367.943 154.11C367.703 154.19 367.447 154.086 367.318 153.877L361.622 155.687C361.654 155.807 361.67 155.936 361.67 156.064C361.67 156.072 361.67 156.088 361.67 156.096L365.716 156.448C365.788 156.32 365.924 156.232 366.085 156.248C366.293 156.264 366.445 156.448 366.429 156.656C366.413 156.865 366.229 157.017 366.021 157.001C365.852 156.985 365.724 156.865 365.684 156.713L361.638 156.36C361.614 156.488 361.566 156.616 361.51 156.729L364.659 158.675C364.787 158.547 364.987 158.515 365.147 158.619C365.332 158.731 365.396 158.979 365.275 159.171C365.163 159.355 364.915 159.42 364.723 159.299C364.587 159.219 364.522 159.075 364.538 158.923L361.358 156.961C361.302 157.033 361.238 157.105 361.166 157.169L364.883 161.99C365.099 161.902 365.356 161.958 365.508 162.159C365.684 162.391 365.644 162.727 365.412 162.903C365.179 163.08 364.843 163.04 364.667 162.807C364.514 162.615 364.522 162.343 364.667 162.159L360.949 157.337C360.837 157.409 360.717 157.465 360.589 157.497L361.318 161.526C361.486 161.542 361.63 161.67 361.662 161.846C361.702 162.063 361.558 162.263 361.342 162.303C361.126 162.343 360.925 162.199 360.885 161.982C360.853 161.822 360.925 161.67 361.054 161.59L360.324 157.553C360.276 157.553 360.22 157.553 360.172 157.553C360.116 157.553 360.06 157.553 360.012 157.545L359.067 161.686C359.187 161.774 359.243 161.926 359.211 162.087C359.163 162.295 358.955 162.431 358.738 162.383C358.522 162.335 358.394 162.127 358.442 161.91C358.482 161.734 358.634 161.614 358.802 161.606L359.74 157.497C359.619 157.465 359.515 157.409 359.411 157.353L355.702 162.399C355.846 162.583 355.862 162.847 355.718 163.048C355.542 163.288 355.213 163.336 354.973 163.16C354.733 162.984 354.685 162.655 354.861 162.415C355.005 162.215 355.261 162.151 355.486 162.239L359.195 157.193C359.123 157.129 359.059 157.057 358.995 156.985L355.822 158.947C355.822 159.075 355.766 159.211 355.646 159.283C355.47 159.396 355.237 159.339 355.133 159.163C355.021 158.987 355.077 158.755 355.253 158.651C355.406 158.563 355.59 158.587 355.71 158.699L358.85 156.761C358.786 156.64 358.738 156.512 358.714 156.376L354.725 156.729C354.685 156.889 354.548 157.017 354.372 157.033C354.156 157.049 353.964 156.889 353.939 156.672C353.923 156.456 354.084 156.264 354.3 156.24C354.468 156.224 354.612 156.312 354.685 156.456L358.674 156.104C358.674 156.104 358.674 156.08 358.674 156.072C358.674 155.936 358.69 155.807 358.73 155.687L353.066 153.885C352.938 154.094 352.682 154.19 352.441 154.118C352.153 154.029 351.993 153.717 352.089 153.437C352.177 153.148 352.489 152.988 352.77 153.084C353.01 153.165 353.162 153.389 353.146 153.629L358.818 155.431C358.866 155.327 358.931 155.231 359.003 155.143L356.143 152.62C355.974 152.716 355.758 152.708 355.606 152.572C355.422 152.404 355.398 152.115 355.566 151.931C355.734 151.747 356.022 151.723 356.207 151.891C356.359 152.027 356.399 152.243 356.319 152.42L359.187 154.951C359.275 154.87 359.379 154.806 359.491 154.75L357.897 151.21C357.705 151.258 357.497 151.162 357.408 150.97C357.312 150.754 357.408 150.506 357.625 150.409C357.841 150.313 358.089 150.409 358.185 150.626C358.258 150.778 358.226 150.946 358.129 151.066L359.748 154.646C359.844 154.622 359.932 154.598 360.036 154.59V148.719C359.804 148.655 359.627 148.447 359.627 148.191C359.627 147.887 359.868 147.646 360.172 147.646C360.477 147.646 360.717 147.887 360.717 148.191C360.717 148.447 360.541 148.655 360.308 148.719V154.59C360.421 154.598 360.525 154.622 360.629 154.654L362.287 150.97H362.303C362.159 150.858 362.111 150.658 362.191 150.481C362.287 150.265 362.544 150.169 362.752 150.265C362.968 150.361 363.064 150.618 362.968 150.826C362.888 151.002 362.704 151.098 362.52 151.074H362.536L360.877 154.758C360.981 154.814 361.078 154.886 361.166 154.967L364.058 152.412C363.978 152.235 364.018 152.019 364.17 151.883C364.362 151.715 364.651 151.731 364.811 151.923C364.979 152.115 364.963 152.404 364.771 152.564C364.619 152.7 364.402 152.708 364.234 152.612L361.35 155.159C361.414 155.247 361.478 155.343 361.518 155.439L367.222 153.621C367.206 153.381 367.358 153.148 367.599 153.076C367.887 152.988 368.192 153.14 368.28 153.429C368.368 153.717 368.216 154.021 367.927 154.11H367.943Z" fill="#D01126"/>
<path d="M538.52 186.915C538.52 193.778 538.328 194.451 537.975 196.253C537.687 197.735 537.054 198.784 536.036 199.449C535.275 199.945 533.529 200.546 529.531 200.538H525.037L520.326 208.01H583.728L579.033 200.578H575.524C571.086 200.57 569.412 199.833 568.811 199.393C567.801 198.656 567.192 197.519 566.952 195.909C566.656 193.955 566.511 193.402 566.519 186.939L566.535 169.255L538.528 169.239L538.512 186.923L538.52 186.915Z" fill="#D01126"/>
<path d="M520.334 103.989L525.141 111.406H528.954C534.106 111.414 535.82 111.974 536.381 112.311C537.23 112.815 537.783 113.776 538.063 115.25C538.408 117.076 538.584 121.417 538.576 127.952L538.56 143.938L502.301 143.906C495.435 143.906 493.504 143.714 491.702 143.362C490.22 143.073 489.17 142.441 488.505 141.423C488.009 140.663 487.408 138.917 487.416 134.92V130.427L480.005 125.926V186.698L487.376 181.733V178.225C487.384 173.788 488.121 172.114 488.561 171.513C489.298 170.504 490.436 169.895 492.046 169.655C494.001 169.359 495.812 169.215 502.277 169.223L538.536 169.255L546.411 169.263H546.523H566.543L566.559 145.404L566.575 127.952C566.583 119.479 566.92 116.187 567.2 115.002C567.529 113.608 568.106 112.711 568.963 112.254C569.548 111.942 571.278 111.43 576.301 111.43H579.129L583.736 103.973H520.334V103.989Z" fill="#003C83"/>
<path d="M581.493 155.191C581.685 150.914 583.271 147.038 585.795 143.97L566.519 143.954L566.503 169.279L586.868 169.303C583.335 165.675 581.252 160.653 581.493 155.199V155.191Z" fill="#D01126"/>
<path d="M712.638 130.651V134.463C712.63 139.613 712.069 141.327 711.732 141.888C711.228 142.737 710.266 143.289 708.792 143.57C706.966 143.914 705.395 144.09 698.858 144.082L662.086 144.05L662.102 128.064C662.11 119.591 662.447 116.299 662.727 115.114C663.056 113.72 663.633 112.823 664.49 112.366C665.075 112.054 666.805 111.542 671.828 111.542H674.656L679.263 103.989H616.366L621.173 111.501H624.986C630.137 111.509 631.852 112.07 632.412 112.407C633.262 112.911 633.814 113.872 634.095 115.346C634.439 117.172 634.616 121.513 634.608 128.048L634.592 144.026L614.86 144.01C617.72 147.51 619.354 152.027 619.138 156.897C618.921 161.758 616.895 166.107 613.738 169.335L634.567 169.359L634.552 187.027C634.552 193.89 634.359 194.563 634.007 196.365C633.718 197.847 633.085 198.896 632.068 199.561C631.307 200.057 629.56 200.658 625.563 200.65H621.068L616.358 208.026H679.255L674.56 200.69H671.051C666.613 200.682 664.938 199.945 664.338 199.505C663.328 198.768 662.719 197.631 662.479 196.021C662.182 194.067 662.038 193.514 662.046 187.051L662.062 169.399L698.842 169.431C707.318 169.439 707.839 169.775 709.025 170.056C710.419 170.384 711.316 170.961 711.772 171.817C712.085 172.402 712.598 174.132 712.598 179.154V181.981L720 186.722V125.974L712.638 130.667V130.651Z" fill="white"/>
<path d="M612.697 153.837C612.697 150.762 610.205 148.271 607.129 148.271C606.672 148.271 606.223 148.327 605.799 148.431C605.623 145.524 603.203 143.217 600.247 143.217C597.291 143.217 594.855 145.54 594.695 148.463C594.239 148.343 593.758 148.271 593.261 148.271C590.185 148.271 587.693 150.762 587.693 153.837C587.693 156.184 589.151 158.194 591.21 159.011C590.617 159.9 590.265 160.965 590.265 162.111C590.265 165.186 592.756 167.677 595.833 167.677C597.603 167.677 599.173 166.852 600.191 165.57C601.208 166.852 602.787 167.677 604.549 167.677C607.625 167.677 610.117 165.186 610.117 162.111C610.117 160.965 609.772 159.9 609.172 159.011C611.23 158.194 612.697 156.184 612.697 153.837ZM607.946 154.11C607.706 154.19 607.449 154.086 607.321 153.877L601.625 155.687C601.657 155.807 601.673 155.936 601.673 156.064C601.673 156.072 601.673 156.088 601.673 156.096L605.719 156.448C605.791 156.32 605.927 156.232 606.087 156.248C606.296 156.264 606.448 156.448 606.432 156.656C606.416 156.865 606.231 157.017 606.023 157.001C605.855 156.985 605.727 156.865 605.687 156.713L601.641 156.36C601.617 156.488 601.569 156.616 601.513 156.729L604.661 158.675C604.789 158.547 604.99 158.515 605.15 158.619C605.334 158.731 605.398 158.979 605.278 159.171C605.166 159.355 604.918 159.42 604.725 159.299C604.589 159.219 604.525 159.075 604.541 158.923L601.361 156.961C601.304 157.033 601.24 157.105 601.168 157.169L604.886 161.99C605.102 161.902 605.358 161.958 605.51 162.159C605.687 162.391 605.647 162.727 605.414 162.903C605.182 163.08 604.845 163.04 604.669 162.807C604.517 162.615 604.525 162.343 604.669 162.159L600.952 157.337C600.84 157.409 600.72 157.465 600.591 157.497L601.32 161.526C601.489 161.542 601.633 161.67 601.665 161.846C601.705 162.063 601.561 162.263 601.345 162.303C601.128 162.343 600.928 162.199 600.888 161.982C600.856 161.822 600.928 161.67 601.056 161.59L600.327 157.553C600.279 157.553 600.223 157.553 600.175 157.553C600.119 157.553 600.063 157.553 600.015 157.545L599.069 161.686C599.189 161.774 599.246 161.926 599.213 162.087C599.165 162.295 598.957 162.431 598.741 162.383C598.525 162.335 598.396 162.127 598.444 161.91C598.485 161.734 598.637 161.614 598.805 161.606L599.742 157.497C599.622 157.465 599.518 157.409 599.414 157.353L595.705 162.399C595.849 162.583 595.865 162.847 595.721 163.048C595.544 163.288 595.216 163.336 594.976 163.16C594.735 162.984 594.687 162.655 594.863 162.415C595.008 162.215 595.264 162.151 595.488 162.239L599.198 157.193C599.125 157.129 599.061 157.057 598.997 156.985L595.825 158.947C595.825 159.075 595.769 159.211 595.649 159.283C595.472 159.396 595.24 159.339 595.136 159.163C595.024 158.987 595.08 158.755 595.256 158.651C595.408 158.563 595.592 158.587 595.713 158.699L598.853 156.761C598.789 156.64 598.741 156.512 598.717 156.376L594.727 156.729C594.687 156.889 594.551 157.017 594.375 157.033C594.158 157.049 593.966 156.889 593.942 156.672C593.926 156.456 594.086 156.264 594.303 156.24C594.471 156.224 594.615 156.312 594.687 156.456L598.677 156.104C598.677 156.104 598.677 156.08 598.677 156.072C598.677 155.936 598.693 155.807 598.733 155.687L593.069 153.885C592.941 154.094 592.684 154.19 592.444 154.118C592.156 154.029 591.995 153.717 592.091 153.437C592.18 153.148 592.492 152.988 592.772 153.084C593.013 153.165 593.165 153.389 593.149 153.629L598.821 155.431C598.869 155.327 598.933 155.231 599.005 155.143L596.145 152.62C595.977 152.716 595.761 152.708 595.608 152.572C595.424 152.404 595.4 152.115 595.568 151.931C595.737 151.747 596.025 151.723 596.209 151.891C596.361 152.027 596.402 152.243 596.321 152.42L599.189 154.951C599.278 154.87 599.382 154.806 599.494 154.75L597.9 151.21C597.707 151.258 597.499 151.162 597.411 150.97C597.315 150.754 597.411 150.506 597.627 150.409C597.844 150.313 598.092 150.409 598.188 150.626C598.26 150.778 598.228 150.946 598.132 151.066L599.75 154.646C599.846 154.622 599.935 154.598 600.039 154.59V148.719C599.806 148.655 599.63 148.447 599.63 148.191C599.63 147.887 599.87 147.646 600.175 147.646C600.479 147.646 600.72 147.887 600.72 148.191C600.72 148.447 600.543 148.655 600.311 148.719V154.59C600.423 154.598 600.527 154.622 600.632 154.654L602.29 150.97H602.306C602.162 150.858 602.114 150.658 602.194 150.481C602.29 150.265 602.546 150.169 602.755 150.265C602.971 150.361 603.067 150.618 602.971 150.826C602.891 151.002 602.706 151.098 602.522 151.074H602.538L600.88 154.758C600.984 154.814 601.08 154.886 601.168 154.967L604.06 152.412C603.98 152.235 604.02 152.019 604.172 151.883C604.365 151.715 604.653 151.731 604.813 151.923C604.982 152.115 604.966 152.404 604.773 152.564C604.621 152.7 604.405 152.708 604.237 152.612L601.353 155.159C601.417 155.247 601.481 155.343 601.521 155.439L607.225 153.621C607.209 153.381 607.361 153.148 607.601 153.076C607.89 152.988 608.194 153.14 608.282 153.429C608.37 153.717 608.218 154.021 607.93 154.11H607.946Z" fill="#D01126"/>
<path d="M58.5146 290.888C58.5146 297.752 58.3223 298.425 57.9698 300.227C57.6814 301.709 57.0485 302.758 56.0311 303.422C55.27 303.919 53.5235 304.52 49.5259 304.512H45.0315L40.3209 311.984H103.722L99.0277 304.552H95.5188C91.0805 304.544 89.4062 303.807 88.8053 303.366C87.7959 302.63 87.187 301.492 86.9467 299.882C86.6503 297.928 86.5061 297.376 86.5141 290.912L86.5301 273.228L58.5226 273.212L58.5066 290.896L58.5146 290.888Z" fill="#D01126"/>
<path d="M40.3289 207.963L45.1357 215.379H48.9491C54.1003 215.387 55.8148 215.948 56.3756 216.284C57.2248 216.789 57.7775 217.75 58.0579 219.223C58.4024 221.05 58.5787 225.39 58.5707 231.926L58.5546 247.912L22.2955 247.88C15.4298 247.88 13.4991 247.688 11.6965 247.335C10.2144 247.047 9.16493 246.414 8.49999 245.397C8.00329 244.636 7.40245 242.89 7.41046 238.894V234.401L0 229.9V290.672L7.3704 285.706V282.198C7.37842 277.761 8.11545 276.088 8.55607 275.487C9.29311 274.478 10.4307 273.869 12.041 273.629C13.9958 273.332 15.8063 273.188 22.2714 273.196L58.5306 273.228L66.4057 273.236H66.5179H86.5381L86.5541 249.377L86.5702 231.926C86.5782 223.452 86.9146 220.161 87.195 218.975C87.5235 217.582 88.1003 216.685 88.9575 216.228C89.5424 215.916 91.2728 215.403 96.2959 215.403H99.1239L103.73 207.947H40.3289V207.963Z" fill="#003C83"/>
<path d="M101.495 259.164C101.688 254.888 103.274 251.011 105.797 247.944L86.5221 247.928L86.5061 273.252L106.871 273.276C103.338 269.648 101.255 264.627 101.495 259.172V259.164Z" fill="#D01126"/>
<path d="M232.632 234.625V238.437C232.624 243.587 232.064 245.301 231.727 245.862C231.222 246.711 230.261 247.263 228.787 247.544C226.96 247.888 225.39 248.064 218.853 248.056L182.081 248.024L182.097 232.038C182.105 223.564 182.441 220.273 182.722 219.087C183.05 217.694 183.627 216.797 184.484 216.34C185.069 216.028 186.8 215.515 191.823 215.515H194.651L199.257 207.963H136.36L141.167 215.475H144.981C150.132 215.483 151.846 216.044 152.407 216.38C153.256 216.885 153.809 217.846 154.089 219.32C154.434 221.146 154.61 225.487 154.602 232.022L154.586 248L134.854 247.984C137.714 251.484 139.349 256.001 139.132 260.871C138.916 265.732 136.889 270.081 133.733 273.309L154.562 273.333L154.546 291.001C154.546 297.864 154.354 298.537 154.001 300.339C153.713 301.821 153.08 302.87 152.063 303.535C151.302 304.031 149.555 304.632 145.557 304.624H141.063L136.352 312H199.249L194.555 304.664H191.046C186.607 304.656 184.933 303.919 184.332 303.479C183.323 302.742 182.714 301.604 182.474 299.995C182.177 298.04 182.033 297.488 182.041 291.025L182.057 273.373L218.837 273.405C227.313 273.413 227.834 273.749 229.019 274.029C230.413 274.358 231.31 274.934 231.767 275.791C232.08 276.376 232.592 278.106 232.592 283.128V285.955L239.995 290.696V229.948L232.632 234.641V234.625Z" fill="#D01126"/>
<path d="M132.699 257.811C132.699 254.736 130.208 252.245 127.131 252.245C126.675 252.245 126.226 252.301 125.801 252.405C125.625 249.498 123.206 247.191 120.25 247.191C117.293 247.191 114.858 249.514 114.698 252.437C114.241 252.317 113.761 252.245 113.264 252.245C110.187 252.245 107.696 254.736 107.696 257.811C107.696 260.158 109.154 262.168 111.213 262.985C110.62 263.874 110.268 264.939 110.268 266.085C110.268 269.16 112.759 271.651 115.835 271.651C117.606 271.651 119.176 270.826 120.194 269.545C121.211 270.826 122.789 271.651 124.552 271.651C127.628 271.651 130.12 269.16 130.12 266.085C130.12 264.939 129.775 263.874 129.174 262.985C131.233 262.168 132.699 260.158 132.699 257.811ZM127.949 258.076C127.708 258.156 127.452 258.052 127.324 257.843L121.628 259.653C121.66 259.774 121.676 259.902 121.676 260.03C121.676 260.038 121.676 260.054 121.676 260.062L125.721 260.414C125.793 260.286 125.93 260.198 126.09 260.214C126.298 260.23 126.45 260.414 126.434 260.623C126.418 260.831 126.234 260.983 126.026 260.967C125.858 260.951 125.729 260.831 125.689 260.679L121.644 260.326C121.62 260.454 121.572 260.582 121.515 260.695L124.664 262.641C124.792 262.513 124.992 262.481 125.153 262.585C125.337 262.697 125.401 262.945 125.281 263.137C125.169 263.322 124.92 263.386 124.728 263.266C124.592 263.185 124.528 263.041 124.544 262.889L121.363 260.927C121.307 260.999 121.243 261.071 121.171 261.135L124.888 265.957C125.105 265.868 125.361 265.925 125.513 266.125C125.689 266.357 125.649 266.693 125.417 266.87C125.185 267.046 124.848 267.006 124.672 266.773C124.52 266.581 124.528 266.309 124.672 266.125L120.955 261.303C120.843 261.375 120.722 261.431 120.594 261.464L121.323 265.492C121.491 265.508 121.636 265.636 121.668 265.812C121.708 266.029 121.564 266.229 121.347 266.269C121.131 266.309 120.931 266.165 120.891 265.949C120.859 265.788 120.931 265.636 121.059 265.556L120.33 261.52C120.282 261.52 120.226 261.52 120.178 261.52C120.121 261.52 120.065 261.52 120.017 261.512L119.072 265.652C119.192 265.74 119.248 265.892 119.216 266.053C119.168 266.261 118.96 266.397 118.744 266.349C118.527 266.301 118.399 266.093 118.447 265.876C118.487 265.7 118.639 265.58 118.808 265.572L119.745 261.464C119.625 261.431 119.521 261.375 119.416 261.319L115.707 266.365C115.851 266.549 115.867 266.814 115.723 267.014C115.547 267.254 115.219 267.302 114.978 267.126C114.738 266.95 114.69 266.621 114.866 266.381C115.01 266.181 115.267 266.117 115.491 266.205L119.2 261.159C119.128 261.095 119.064 261.023 119 260.951L115.827 262.913C115.827 263.041 115.771 263.177 115.651 263.25C115.475 263.362 115.243 263.306 115.138 263.129C115.026 262.953 115.082 262.721 115.259 262.617C115.411 262.529 115.595 262.553 115.715 262.665L118.856 260.727C118.792 260.607 118.744 260.478 118.719 260.342L114.73 260.695C114.69 260.855 114.554 260.983 114.377 260.999C114.161 261.015 113.969 260.855 113.945 260.639C113.929 260.422 114.089 260.23 114.305 260.206C114.474 260.19 114.618 260.278 114.69 260.422L118.679 260.07C118.679 260.07 118.679 260.046 118.679 260.038C118.679 259.902 118.695 259.774 118.736 259.653L113.072 257.851C112.943 258.06 112.687 258.156 112.447 258.084C112.158 257.996 111.998 257.683 112.094 257.403C112.182 257.115 112.495 256.954 112.775 257.051C113.015 257.131 113.168 257.355 113.152 257.595L118.824 259.397C118.872 259.293 118.936 259.197 119.008 259.109L116.148 256.586C115.98 256.682 115.763 256.674 115.611 256.538C115.427 256.37 115.403 256.081 115.571 255.897C115.739 255.713 116.028 255.689 116.212 255.857C116.364 255.993 116.404 256.21 116.324 256.386L119.192 258.917C119.28 258.837 119.384 258.772 119.497 258.716L117.902 255.176C117.71 255.224 117.502 255.128 117.414 254.936C117.318 254.72 117.414 254.472 117.63 254.376C117.846 254.279 118.095 254.375 118.191 254.592C118.263 254.744 118.231 254.912 118.135 255.032L119.753 258.612C119.849 258.588 119.937 258.564 120.041 258.556V252.686C119.809 252.622 119.633 252.413 119.633 252.157C119.633 251.853 119.873 251.612 120.178 251.612C120.482 251.612 120.722 251.853 120.722 252.157C120.722 252.413 120.546 252.622 120.314 252.686V258.556C120.426 258.564 120.53 258.588 120.634 258.62L122.293 254.936H122.309C122.164 254.824 122.116 254.624 122.196 254.448C122.293 254.231 122.549 254.135 122.757 254.231C122.974 254.327 123.07 254.584 122.973 254.792C122.893 254.968 122.709 255.064 122.525 255.04H122.541L120.883 258.724C120.987 258.78 121.083 258.853 121.171 258.933L124.063 256.378C123.983 256.202 124.023 255.985 124.175 255.849C124.367 255.681 124.656 255.697 124.816 255.889C124.984 256.081 124.968 256.37 124.776 256.53C124.624 256.666 124.408 256.674 124.239 256.578L121.355 259.125C121.419 259.213 121.483 259.309 121.523 259.405L127.227 257.587C127.211 257.347 127.364 257.115 127.604 257.043C127.892 256.954 128.197 257.107 128.285 257.395C128.373 257.683 128.221 257.988 127.932 258.076H127.949Z" fill="#D01126"/>
<path d="M298.517 290.888C298.517 297.752 298.325 298.425 297.972 300.227C297.684 301.709 297.051 302.758 296.034 303.422C295.273 303.919 293.526 304.52 289.529 304.512H285.034L280.324 311.984H343.725L339.03 304.552H335.521C331.083 304.544 329.409 303.807 328.808 303.366C327.799 302.63 327.19 301.492 326.949 299.882C326.653 297.928 326.509 297.376 326.517 290.912L326.533 273.228L298.525 273.212L298.509 290.896L298.517 290.888Z" fill="#D01126"/>
<path d="M280.332 207.963L285.138 215.379H288.952C294.103 215.387 295.817 215.948 296.378 216.284C297.227 216.789 297.78 217.75 298.061 219.223C298.405 221.05 298.581 225.39 298.573 231.926L298.557 247.912L262.298 247.88C255.432 247.88 253.502 247.688 251.699 247.335C250.217 247.047 249.168 246.414 248.503 245.397C248.006 244.636 247.405 242.89 247.413 238.894V234.401L240.003 229.9V290.672L247.373 285.706V282.198C247.381 277.761 248.118 276.088 248.559 275.487C249.296 274.478 250.433 273.869 252.044 273.629C253.998 273.332 255.809 273.188 262.274 273.196L298.533 273.228L306.408 273.236H306.521H326.541L326.557 249.377L326.573 231.926C326.581 223.452 326.917 220.161 327.198 218.975C327.526 217.582 328.103 216.685 328.96 216.228C329.545 215.916 331.275 215.403 336.299 215.403H339.127L343.733 207.947H280.332V207.963Z" fill="#003C83"/>
<path d="M341.498 259.164C341.69 254.888 343.276 251.011 345.8 247.944L326.525 247.928L326.509 273.252L346.873 273.276C343.34 269.648 341.258 264.627 341.498 259.172V259.164Z" fill="#D01126"/>
<path d="M472.635 234.625V238.437C472.627 243.587 472.066 245.301 471.73 245.862C471.225 246.711 470.264 247.263 468.79 247.544C466.963 247.888 465.393 248.064 458.856 248.056L422.084 248.024L422.1 232.038C422.108 223.564 422.444 220.273 422.725 219.087C423.053 217.694 423.63 216.797 424.487 216.34C425.072 216.028 426.802 215.515 431.825 215.515H434.653L439.26 207.963H376.363L381.17 215.475H384.983C390.135 215.483 391.849 216.044 392.41 216.38C393.259 216.885 393.812 217.846 394.092 219.32C394.437 221.146 394.613 225.487 394.605 232.022L394.589 248L374.857 247.984C377.717 251.484 379.351 256.001 379.135 260.871C378.919 265.732 376.892 270.081 373.735 273.309L394.565 273.333L394.549 291.001C394.549 297.864 394.357 298.537 394.004 300.339C393.716 301.821 393.083 302.87 392.065 303.535C391.304 304.031 389.558 304.632 385.56 304.624H381.066L376.355 312H439.252L434.557 304.664H431.048C426.61 304.656 424.936 303.919 424.335 303.479C423.325 302.742 422.717 301.604 422.476 299.995C422.18 298.04 422.036 297.488 422.044 291.025L422.06 273.373L458.839 273.405C467.315 273.413 467.836 273.749 469.022 274.029C470.416 274.358 471.313 274.934 471.77 275.791C472.082 276.376 472.595 278.106 472.595 283.128V285.955L479.997 290.696V229.948L472.635 234.641V234.625Z" fill="white"/>
<path d="M372.702 257.811C372.702 254.736 370.21 252.245 367.134 252.245C366.677 252.245 366.229 252.301 365.804 252.405C365.628 249.498 363.209 247.191 360.252 247.191C357.296 247.191 354.861 249.514 354.701 252.437C354.244 252.317 353.763 252.245 353.267 252.245C350.19 252.245 347.699 254.736 347.699 257.811C347.699 260.158 349.157 262.168 351.216 262.985C350.623 263.874 350.27 264.939 350.27 266.085C350.27 269.16 352.762 271.651 355.838 271.651C357.609 271.651 359.179 270.826 360.196 269.545C361.214 270.826 362.792 271.651 364.554 271.651C367.631 271.651 370.122 269.16 370.122 266.085C370.122 264.939 369.778 263.874 369.177 262.985C371.236 262.168 372.702 260.158 372.702 257.811ZM367.943 258.076C367.703 258.156 367.447 258.052 367.318 257.843L361.622 259.653C361.654 259.774 361.67 259.902 361.67 260.03C361.67 260.038 361.67 260.054 361.67 260.062L365.716 260.414C365.788 260.286 365.924 260.198 366.085 260.214C366.293 260.23 366.445 260.414 366.429 260.623C366.413 260.831 366.229 260.983 366.021 260.967C365.852 260.951 365.724 260.831 365.684 260.679L361.638 260.326C361.614 260.454 361.566 260.582 361.51 260.695L364.659 262.641C364.787 262.513 364.987 262.481 365.147 262.585C365.332 262.697 365.396 262.945 365.275 263.137C365.163 263.322 364.915 263.386 364.723 263.266C364.587 263.185 364.522 263.041 364.538 262.889L361.358 260.927C361.302 260.999 361.238 261.071 361.166 261.135L364.883 265.957C365.099 265.868 365.356 265.925 365.508 266.125C365.684 266.357 365.644 266.693 365.412 266.87C365.179 267.046 364.843 267.006 364.667 266.773C364.514 266.581 364.522 266.309 364.667 266.125L360.949 261.303C360.837 261.375 360.717 261.431 360.589 261.464L361.318 265.492C361.486 265.508 361.63 265.636 361.662 265.812C361.702 266.029 361.558 266.229 361.342 266.269C361.126 266.309 360.925 266.165 360.885 265.949C360.853 265.788 360.925 265.636 361.054 265.556L360.324 261.52C360.276 261.52 360.22 261.52 360.172 261.52C360.116 261.52 360.06 261.52 360.012 261.512L359.067 265.652C359.187 265.74 359.243 265.892 359.211 266.053C359.163 266.261 358.955 266.397 358.738 266.349C358.522 266.301 358.394 266.093 358.442 265.876C358.482 265.7 358.634 265.58 358.802 265.572L359.74 261.464C359.619 261.431 359.515 261.375 359.411 261.319L355.702 266.365C355.846 266.549 355.862 266.814 355.718 267.014C355.542 267.254 355.213 267.302 354.973 267.126C354.733 266.95 354.685 266.621 354.861 266.381C355.005 266.181 355.261 266.117 355.486 266.205L359.195 261.159C359.123 261.095 359.059 261.023 358.995 260.951L355.822 262.913C355.822 263.041 355.766 263.177 355.646 263.25C355.47 263.362 355.237 263.306 355.133 263.129C355.021 262.953 355.077 262.721 355.253 262.617C355.406 262.529 355.59 262.553 355.71 262.665L358.85 260.727C358.786 260.607 358.738 260.478 358.714 260.342L354.725 260.695C354.685 260.855 354.548 260.983 354.372 260.999C354.156 261.015 353.964 260.855 353.939 260.639C353.923 260.422 354.084 260.23 354.3 260.206C354.468 260.19 354.612 260.278 354.685 260.422L358.674 260.07C358.674 260.07 358.674 260.046 358.674 260.038C358.674 259.902 358.69 259.774 358.73 259.653L353.066 257.851C352.938 258.06 352.682 258.156 352.441 258.084C352.153 257.996 351.993 257.683 352.089 257.403C352.177 257.115 352.489 256.954 352.77 257.051C353.01 257.131 353.162 257.355 353.146 257.595L358.818 259.397C358.866 259.293 358.931 259.197 359.003 259.109L356.143 256.586C355.974 256.682 355.758 256.674 355.606 256.538C355.422 256.37 355.398 256.081 355.566 255.897C355.734 255.713 356.022 255.689 356.207 255.857C356.359 255.993 356.399 256.21 356.319 256.386L359.187 258.917C359.275 258.837 359.379 258.772 359.491 258.716L357.897 255.176C357.705 255.224 357.497 255.128 357.408 254.936C357.312 254.72 357.408 254.472 357.625 254.376C357.841 254.279 358.089 254.375 358.185 254.592C358.258 254.744 358.226 254.912 358.129 255.032L359.748 258.612C359.844 258.588 359.932 258.564 360.036 258.556V252.686C359.804 252.622 359.627 252.413 359.627 252.157C359.627 251.853 359.868 251.612 360.172 251.612C360.477 251.612 360.717 251.853 360.717 252.157C360.717 252.413 360.541 252.622 360.308 252.686V258.556C360.421 258.564 360.525 258.588 360.629 258.62L362.287 254.936H362.303C362.159 254.824 362.111 254.624 362.191 254.448C362.287 254.231 362.544 254.135 362.752 254.231C362.968 254.327 363.064 254.584 362.968 254.792C362.888 254.968 362.704 255.064 362.52 255.04H362.536L360.877 258.724C360.981 258.78 361.078 258.853 361.166 258.933L364.058 256.378C363.978 256.202 364.018 255.985 364.17 255.849C364.362 255.681 364.651 255.697 364.811 255.889C364.979 256.081 364.963 256.37 364.771 256.53C364.619 256.666 364.402 256.674 364.234 256.578L361.35 259.125C361.414 259.213 361.478 259.309 361.518 259.405L367.222 257.587C367.206 257.347 367.358 257.115 367.599 257.043C367.887 256.954 368.192 257.107 368.28 257.395C368.368 257.683 368.216 257.988 367.927 258.076H367.943Z" fill="#D01126"/>
<path d="M538.52 290.888C538.52 297.752 538.328 298.425 537.975 300.227C537.687 301.709 537.054 302.758 536.036 303.422C535.275 303.919 533.529 304.52 529.531 304.512H525.037L520.326 311.984H583.728L579.033 304.552H575.524C571.086 304.544 569.412 303.807 568.811 303.366C567.801 302.63 567.192 301.492 566.952 299.882C566.656 297.928 566.511 297.376 566.519 290.912L566.535 273.228L538.528 273.212L538.512 290.896L538.52 290.888Z" fill="#D01126"/>
<path d="M520.334 207.963L525.141 215.379H528.954C534.106 215.387 535.82 215.948 536.381 216.284C537.23 216.789 537.783 217.75 538.063 219.223C538.408 221.05 538.584 225.39 538.576 231.926L538.56 247.912L502.301 247.88C495.435 247.88 493.504 247.688 491.702 247.335C490.22 247.047 489.17 246.414 488.505 245.397C488.009 244.636 487.408 242.89 487.416 238.894V234.401L480.005 229.9V290.672L487.376 285.706V282.198C487.384 277.761 488.121 276.088 488.561 275.487C489.298 274.478 490.436 273.869 492.046 273.629C494.001 273.332 495.812 273.188 502.277 273.196L538.536 273.228L546.411 273.236H546.523H566.543L566.559 249.377L566.575 231.926C566.583 223.452 566.92 220.161 567.2 218.975C567.529 217.582 568.106 216.685 568.963 216.228C569.548 215.916 571.278 215.403 576.301 215.403H579.129L583.736 207.947H520.334V207.963Z" fill="#003C83"/>
<path d="M581.493 259.164C581.685 254.888 583.271 251.011 585.795 247.944L566.519 247.928L566.503 273.252L586.868 273.276C583.335 269.648 581.252 264.627 581.493 259.172V259.164Z" fill="#D01126"/>
<path d="M712.638 234.625V238.437C712.63 243.587 712.069 245.301 711.732 245.862C711.228 246.711 710.266 247.263 708.792 247.544C706.966 247.888 705.395 248.064 698.858 248.056L662.086 248.024L662.102 232.038C662.11 223.564 662.447 220.273 662.727 219.087C663.056 217.694 663.633 216.797 664.49 216.34C665.075 216.028 666.805 215.515 671.828 215.515H674.656L679.263 207.963H616.366L621.173 215.475H624.986C630.137 215.483 631.852 216.044 632.412 216.38C633.262 216.885 633.814 217.846 634.095 219.32C634.439 221.146 634.616 225.487 634.608 232.022L634.592 248L614.86 247.984C617.72 251.484 619.354 256.001 619.138 260.871C618.921 265.732 616.895 270.081 613.738 273.309L634.567 273.333L634.552 291.001C634.552 297.864 634.359 298.537 634.007 300.339C633.718 301.821 633.085 302.87 632.068 303.535C631.307 304.031 629.56 304.632 625.563 304.624H621.068L616.358 312H679.255L674.56 304.664H671.051C666.613 304.656 664.938 303.919 664.338 303.479C663.328 302.742 662.719 301.604 662.479 299.995C662.182 298.04 662.038 297.488 662.046 291.025L662.062 273.373L698.842 273.405C707.318 273.413 707.839 273.749 709.025 274.029C710.419 274.358 711.316 274.934 711.772 275.791C712.085 276.376 712.598 278.106 712.598 283.128V285.955L720 290.696V229.948L712.638 234.641V234.625Z" fill="#D01126"/>
<path d="M612.697 257.811C612.697 254.736 610.205 252.245 607.129 252.245C606.672 252.245 606.223 252.301 605.799 252.405C605.623 249.498 603.203 247.191 600.247 247.191C597.291 247.191 594.855 249.514 594.695 252.437C594.239 252.317 593.758 252.245 593.261 252.245C590.185 252.245 587.693 254.736 587.693 257.811C587.693 260.158 589.151 262.168 591.21 262.985C590.617 263.874 590.265 264.939 590.265 266.085C590.265 269.16 592.756 271.651 595.833 271.651C597.603 271.651 599.173 270.826 600.191 269.545C601.208 270.826 602.787 271.651 604.549 271.651C607.625 271.651 610.117 269.16 610.117 266.085C610.117 264.939 609.772 263.874 609.172 262.985C611.23 262.168 612.697 260.158 612.697 257.811ZM607.946 258.076C607.706 258.156 607.449 258.052 607.321 257.843L601.625 259.653C601.657 259.774 601.673 259.902 601.673 260.03C601.673 260.038 601.673 260.054 601.673 260.062L605.719 260.414C605.791 260.286 605.927 260.198 606.087 260.214C606.296 260.23 606.448 260.414 606.432 260.623C606.416 260.831 606.231 260.983 606.023 260.967C605.855 260.951 605.727 260.831 605.687 260.679L601.641 260.326C601.617 260.454 601.569 260.582 601.513 260.695L604.661 262.641C604.789 262.513 604.99 262.481 605.15 262.585C605.334 262.697 605.398 262.945 605.278 263.137C605.166 263.322 604.918 263.386 604.725 263.266C604.589 263.185 604.525 263.041 604.541 262.889L601.361 260.927C601.304 260.999 601.24 261.071 601.168 261.135L604.886 265.957C605.102 265.868 605.358 265.925 605.51 266.125C605.687 266.357 605.647 266.693 605.414 266.87C605.182 267.046 604.845 267.006 604.669 266.773C604.517 266.581 604.525 266.309 604.669 266.125L600.952 261.303C600.84 261.375 600.72 261.431 600.591 261.464L601.32 265.492C601.489 265.508 601.633 265.636 601.665 265.812C601.705 266.029 601.561 266.229 601.345 266.269C601.128 266.309 600.928 266.165 600.888 265.949C600.856 265.788 600.928 265.636 601.056 265.556L600.327 261.52C600.279 261.52 600.223 261.52 600.175 261.52C600.119 261.52 600.063 261.52 600.015 261.512L599.069 265.652C599.189 265.74 599.246 265.892 599.213 266.053C599.165 266.261 598.957 266.397 598.741 266.349C598.525 266.301 598.396 266.093 598.444 265.876C598.485 265.7 598.637 265.58 598.805 265.572L599.742 261.464C599.622 261.431 599.518 261.375 599.414 261.319L595.705 266.365C595.849 266.549 595.865 266.814 595.721 267.014C595.544 267.254 595.216 267.302 594.976 267.126C594.735 266.95 594.687 266.621 594.863 266.381C595.008 266.181 595.264 266.117 595.488 266.205L599.198 261.159C599.125 261.095 599.061 261.023 598.997 260.951L595.825 262.913C595.825 263.041 595.769 263.177 595.649 263.25C595.472 263.362 595.24 263.306 595.136 263.129C595.024 262.953 595.08 262.721 595.256 262.617C595.408 262.529 595.592 262.553 595.713 262.665L598.853 260.727C598.789 260.607 598.741 260.478 598.717 260.342L594.727 260.695C594.687 260.855 594.551 260.983 594.375 260.999C594.158 261.015 593.966 260.855 593.942 260.639C593.926 260.422 594.086 260.23 594.303 260.206C594.471 260.19 594.615 260.278 594.687 260.422L598.677 260.07C598.677 260.07 598.677 260.046 598.677 260.038C598.677 259.902 598.693 259.774 598.733 259.653L593.069 257.851C592.941 258.06 592.684 258.156 592.444 258.084C592.156 257.996 591.995 257.683 592.091 257.403C592.18 257.115 592.492 256.954 592.772 257.051C593.013 257.131 593.165 257.355 593.149 257.595L598.821 259.397C598.869 259.293 598.933 259.197 599.005 259.109L596.145 256.586C595.977 256.682 595.761 256.674 595.608 256.538C595.424 256.37 595.4 256.081 595.568 255.897C595.737 255.713 596.025 255.689 596.209 255.857C596.361 255.993 596.402 256.21 596.321 256.386L599.189 258.917C599.278 258.837 599.382 258.772 599.494 258.716L597.9 255.176C597.707 255.224 597.499 255.128 597.411 254.936C597.315 254.72 597.411 254.472 597.627 254.376C597.844 254.279 598.092 254.375 598.188 254.592C598.26 254.744 598.228 254.912 598.132 255.032L599.75 258.612C599.846 258.588 599.935 258.564 600.039 258.556V252.686C599.806 252.622 599.63 252.413 599.63 252.157C599.63 251.853 599.87 251.612 600.175 251.612C600.479 251.612 600.72 251.853 600.72 252.157C600.72 252.413 600.543 252.622 600.311 252.686V258.556C600.423 258.564 600.527 258.588 600.632 258.62L602.29 254.936H602.306C602.162 254.824 602.114 254.624 602.194 254.448C602.29 254.231 602.546 254.135 602.755 254.231C602.971 254.327 603.067 254.584 602.971 254.792C602.891 254.968 602.706 255.064 602.522 255.04H602.538L600.88 258.724C600.984 258.78 601.08 258.853 601.168 258.933L604.06 256.378C603.98 256.202 604.02 255.985 604.172 255.849C604.365 255.681 604.653 255.697 604.813 255.889C604.982 256.081 604.966 256.37 604.773 256.53C604.621 256.666 604.405 256.674 604.237 256.578L601.353 259.125C601.417 259.213 601.481 259.309 601.521 259.405L607.225 257.587C607.209 257.347 607.361 257.115 607.601 257.043C607.89 256.954 608.194 257.107 608.282 257.395C608.37 257.683 608.218 257.988 607.93 258.076H607.946Z" fill="#D01126"/>
</svg>